SplineFontDB: 3.0
FontName: Sedan-Italic
FullName: Sedan Italic
FamilyName: Sedan
Weight: Book
Copyright: Copyright (c) 2012, Sebastian Salazar (sebotas26@hotmail.com), with Reserved Font Name 'Sedan'
Version: 1.001
ItalicAngle: 0
UnderlinePosition: -50
UnderlineWidth: 50
Ascent: 800
Descent: 200
sfntRevision: 0x00010042
LayerCount: 2
Layer: 0 1 "Back"  1
Layer: 1 1 "Fore"  0
XUID: [1021 21 333417556 4500647]
FSType: 0
OS2Version: 3
OS2_WeightWidthSlopeOnly: 0
OS2_UseTypoMetrics: 1
CreationTime: 1329338460
ModificationTime: 1351749401
PfmFamily: 17
TTFWeight: 400
TTFWidth: 5
LineGap: 0
VLineGap: 0
Panose: 2 0 5 3 0 0 0 2 0 4
OS2TypoAscent: 978
OS2TypoAOffset: 0
OS2TypoDescent: -407
OS2TypoDOffset: 0
OS2TypoLinegap: 0
OS2WinAscent: 978
OS2WinAOffset: 0
OS2WinDescent: 407
OS2WinDOffset: 0
HheadAscent: 978
HheadAOffset: 0
HheadDescent: -407
HheadDOffset: 0
OS2SubXSize: 650
OS2SubYSize: 600
OS2SubXOff: 0
OS2SubYOff: 75
OS2SupXSize: 650
OS2SupYSize: 600
OS2SupXOff: 0
OS2SupYOff: 350
OS2StrikeYSize: 50
OS2StrikeYPos: 262
OS2Vendor: 'PYRS'
OS2CodePages: 20000001.00000000
OS2UnicodeRanges: 8000002f.4000004a.00000000.00000000
Lookup: 1 0 0 "'aalt' Access All Alternates lookup 0"  {"'aalt' Access All Alternates lookup 0 subtable"  } ['aalt' ('DFLT' <'dflt' > ) ]
Lookup: 1 0 0 "'onum' Oldstyle Figures lookup 1"  {"'onum' Oldstyle Figures lookup 1 subtable" ("oldstyle" ) } ['onum' ('DFLT' <'dflt' > ) ]
Lookup: 258 0 0 "'kern' Horizontal Kerning lookup 0"  {"'kern' Horizontal Kerning lookup 0 subtable"  } ['kern' ('DFLT' <'dflt' > ) ]
DEI: 91125
TtTable: prep
PUSHW_1
 511
SCANCTRL
PUSHB_1
 4
SCANTYPE
EndTTInstrs
ShortTable: maxp 16
  1
  0
  246
  130
  7
  0
  0
  2
  0
  1
  1
  0
  64
  0
  0
  0
EndShort

StartChar: exclam
Encoding: 33 33 4
Width: 310
GlyphClass: 2
Flags: W
LayerCount: 2
Fore
SplineSet
140 169 m 0,0,1
 122 169 122 169 122 191 c 0,2,3
 122 197 122 197 148 336.5 c 128,-1,4
 174 476 174 476 174 542.5 c 128,-1,5
 174 609 174 609 164 656 c 1,6,7
 214 684 214 684 242 684 c 0,8,9
 281 684 281 684 281 631 c 128,-1,10
 281 578 281 578 257 508 c 128,-1,11
 233 438 233 438 202.5 348.5 c 128,-1,12
 172 259 172 259 161 178 c 1,13,14
 150 169 150 169 140 169 c 0,0,1
50 43 m 128,-1,16
 50 68 50 68 66.5 85 c 128,-1,17
 83 102 83 102 108 102 c 128,-1,18
 133 102 133 102 150 85 c 128,-1,19
 167 68 167 68 167 43 c 128,-1,20
 167 18 167 18 150 1.5 c 128,-1,21
 133 -15 133 -15 108 -15 c 128,-1,22
 83 -15 83 -15 66.5 1.5 c 128,-1,15
 50 18 50 18 50 43 c 128,-1,16
EndSplineSet
EndChar

StartChar: quotedbl
Encoding: 34 34 5
Width: 318
GlyphClass: 2
Flags: W
LayerCount: 2
Fore
SplineSet
217 521 m 2,0,-1
 216 590 l 1,1,2
 216 682 216 682 272 682 c 0,3,4
 287 682 287 682 296.5 672 c 128,-1,5
 306 662 306 662 306 643 c 128,-1,6
 306 624 306 624 273 548.5 c 128,-1,7
 240 473 240 473 233 442 c 1,8,9
 228 438 228 438 221 438 c 128,-1,10
 214 438 214 438 209 442 c 1,11,12
 217 472 217 472 217 521 c 2,0,-1
70 521 m 2,13,-1
 69 590 l 1,14,15
 69 682 69 682 125 682 c 0,16,17
 140 682 140 682 149.5 672 c 128,-1,18
 159 662 159 662 159 643 c 128,-1,19
 159 624 159 624 126 548.5 c 128,-1,20
 93 473 93 473 86 442 c 1,21,22
 81 438 81 438 74 438 c 128,-1,23
 67 438 67 438 62 442 c 1,24,25
 70 472 70 472 70 521 c 2,13,-1
EndSplineSet
EndChar

StartChar: numbersign
Encoding: 35 35 6
Width: 533
GlyphClass: 2
Flags: W
LayerCount: 2
Fore
SplineSet
521 231 m 1,0,-1
 350 231 l 1,1,-1
 274 28 l 1,2,3
 265 -2 265 -2 219 -2 c 1,4,-1
 302 231 l 1,5,-1
 172 231 l 1,6,-1
 96 28 l 1,7,8
 87 -2 87 -2 41 -2 c 1,9,-1
 124 231 l 1,10,-1
 39 231 l 2,11,12
 25 231 25 231 20 240 c 128,-1,13
 15 249 15 249 15 275 c 1,14,-1
 141 278 l 1,15,-1
 190 415 l 1,16,-1
 101 418 l 2,17,18
 85 419 85 419 79 428.5 c 128,-1,19
 73 438 73 438 73 462 c 1,20,-1
 205 460 l 1,21,-1
 274 652 l 2,22,23
 280 668 280 668 297 677 c 128,-1,24
 314 686 314 686 328 687 c 2,25,-1
 343 688 l 1,26,-1
 257 459 l 1,27,-1
 383 458 l 1,28,-1
 452 652 l 2,29,30
 458 668 458 668 475 677 c 128,-1,31
 492 686 492 686 506 687 c 2,32,-1
 521 688 l 1,33,-1
 434 457 l 1,34,-1
 515 456 l 2,35,36
 548 456 548 456 548 402 c 1,37,-1
 415 406 l 1,38,-1
 370 284 l 1,39,-1
 488 287 l 1,40,41
 521 284 521 284 521 231 c 1,0,-1
240 413 m 1,42,-1
 190 279 l 1,43,-1
 321 283 l 1,44,-1
 365 408 l 1,45,-1
 240 413 l 1,42,-1
EndSplineSet
EndChar

StartChar: dollar
Encoding: 36 36 7
Width: 502
GlyphClass: 2
Flags: W
LayerCount: 2
Fore
SplineSet
34 34 m 0,0,1
 20 34 20 34 20 46 c 0,2,3
 20 56 20 56 37 90 c 128,-1,4
 54 124 54 124 60.5 139.5 c 128,-1,5
 67 155 67 155 70.5 165 c 128,-1,6
 74 175 74 175 76 181 c 128,-1,7
 78 187 78 187 82 194 c 0,8,9
 90 208 90 208 99 208 c 128,-1,10
 108 208 108 208 116 204 c 1,11,12
 105 169 105 169 101 152 c 1,13,14
 127 104 127 104 175 82 c 1,15,-1
 246 329 l 1,16,17
 212 364 212 364 193 387.5 c 128,-1,18
 174 411 174 411 156.5 449.5 c 128,-1,19
 139 488 139 488 139 526 c 0,20,21
 139 619 139 619 204.5 673.5 c 128,-1,22
 270 728 270 728 359 728 c 1,23,-1
 385 818 l 2,24,25
 387 826 387 826 405.5 826 c 128,-1,26
 424 826 424 826 424 816 c 2,27,-1
 424 814 l 1,28,-1
 398 725 l 1,29,30
 435 721 435 721 471 702 c 1,31,-1
 480 724 l 1,32,33
 481 730 481 730 486 730 c 0,34,35
 494 730 494 730 505 719 c 1,36,37
 479 643 479 643 479 584 c 2,38,-1
 479 569 l 2,39,40
 479 562 479 562 465 562 c 128,-1,41
 451 562 451 562 451 578.5 c 128,-1,42
 451 595 451 595 446 614 c 1,43,44
 421 655 421 655 383 670 c 1,45,-1
 314 431 l 1,46,47
 344 402 344 402 360.5 385 c 128,-1,48
 377 368 377 368 399 338 c 0,49,50
 441 282 441 282 441 213 c 0,51,52
 441 121 441 121 377 72.5 c 128,-1,53
 313 24 313 24 222 24 c 0,54,55
 206 24 206 24 199 25 c 1,56,-1
 173 -66 l 2,57,58
 171 -73 171 -73 152.5 -73 c 128,-1,59
 134 -73 134 -73 134 -63 c 1,60,-1
 161 31 l 1,61,62
 107 44 107 44 65 81 c 1,63,64
 52 57 52 57 48 40 c 1,65,66
 44 34 44 34 34 34 c 0,0,1
346 174 m 0,67,68
 346 204 346 204 328.5 231.5 c 128,-1,69
 311 259 311 259 276 297 c 1,70,-1
 212 70 l 1,71,72
 218 69 218 69 230 69 c 0,73,74
 277 69 277 69 311.5 97 c 128,-1,75
 346 125 346 125 346 174 c 0,67,68
261.5 646 m 128,-1,77
 224 616 224 616 224 568 c 128,-1,78
 224 520 224 520 283 461 c 1,79,-1
 345 677 l 1,80,76
 299 676 299 676 261.5 646 c 128,-1,77
EndSplineSet
Substitution2: "'onum' Oldstyle Figures lookup 1 subtable" dollar.taboldstyle
Substitution2: "'aalt' Access All Alternates lookup 0 subtable" dollar.taboldstyle
EndChar

StartChar: percent
Encoding: 37 37 8
Width: 762
GlyphClass: 2
Flags: W
LayerCount: 2
Fore
SplineSet
122 -9 m 1,0,1
 102 -33 102 -33 90 -33 c 128,-1,2
 78 -33 78 -33 64 -16 c 1,3,-1
 699 682 l 2,4,5
 717 701 717 701 726 701 c 0,6,7
 742 701 742 701 755 684 c 1,8,-1
 122 -9 l 1,0,1
710 180 m 0,9,10
 710 107 710 107 655.5 49.5 c 128,-1,11
 601 -8 601 -8 523 -8 c 0,12,13
 465 -8 465 -8 429.5 32 c 128,-1,14
 394 72 394 72 394 128 c 0,15,16
 394 205 394 205 447.5 263 c 128,-1,17
 501 321 501 321 582 321 c 0,18,19
 638 321 638 321 674 278 c 128,-1,20
 710 235 710 235 710 180 c 0,9,10
462 80 m 128,-1,22
 493 60 493 60 542 60 c 128,-1,23
 591 60 591 60 632 89 c 128,-1,24
 673 118 673 118 673 174 c 0,25,26
 673 210 673 210 644 232.5 c 128,-1,27
 615 255 615 255 567 255 c 128,-1,28
 519 255 519 255 475 222.5 c 128,-1,29
 431 190 431 190 431 135 c 0,30,21
 431 100 431 100 462 80 c 128,-1,22
417 533 m 0,31,32
 417 460 417 460 362.5 402.5 c 128,-1,33
 308 345 308 345 230 345 c 0,34,35
 172 345 172 345 136.5 385 c 128,-1,36
 101 425 101 425 101 481 c 0,37,38
 101 558 101 558 154.5 616 c 128,-1,39
 208 674 208 674 289 674 c 0,40,41
 345 674 345 674 381 631 c 128,-1,42
 417 588 417 588 417 533 c 0,31,32
169 433 m 128,-1,44
 200 413 200 413 249 413 c 128,-1,45
 298 413 298 413 339 442 c 128,-1,46
 380 471 380 471 380 527 c 0,47,48
 380 563 380 563 351 585.5 c 128,-1,49
 322 608 322 608 274 608 c 128,-1,50
 226 608 226 608 182 575.5 c 128,-1,51
 138 543 138 543 138 488 c 0,52,43
 138 453 138 453 169 433 c 128,-1,44
EndSplineSet
EndChar

StartChar: ampersand
Encoding: 38 38 9
Width: 809
GlyphClass: 2
Flags: W
LayerCount: 2
Fore
SplineSet
139 454 m 0,0,1
 139 534 139 534 204.5 602.5 c 128,-1,2
 270 671 270 671 350 671 c 0,3,4
 393 671 393 671 416.5 646.5 c 128,-1,5
 440 622 440 622 440 582.5 c 128,-1,6
 440 543 440 543 417.5 507.5 c 128,-1,7
 395 472 395 472 370 454 c 1,8,9
 514 454 514 454 626 494 c 0,10,11
 682 514 682 514 714.5 550.5 c 128,-1,12
 747 587 747 587 747 637 c 0,13,14
 747 660 747 660 741 677 c 1,15,16
 753 682 753 682 771 682 c 128,-1,17
 789 682 789 682 807 665.5 c 128,-1,18
 825 649 825 649 825 613.5 c 128,-1,19
 825 578 825 578 803 545.5 c 128,-1,20
 781 513 781 513 744 492 c 0,21,22
 679 457 679 457 598 442 c 1,23,24
 589 349 589 349 549.5 260 c 128,-1,25
 510 171 510 171 443 110 c 1,26,27
 601 -21 601 -21 690 -21 c 0,28,29
 719 -21 719 -21 740.5 -9 c 128,-1,30
 762 3 762 3 773 14.5 c 128,-1,31
 784 26 784 26 788 26 c 0,32,33
 800 26 800 26 800 13.5 c 128,-1,34
 800 1 800 1 749 -40 c 128,-1,35
 698 -81 698 -81 648.5 -81 c 128,-1,36
 599 -81 599 -81 519.5 -45 c 128,-1,37
 440 -9 440 -9 370 53 c 1,38,39
 271 -13 271 -13 174 -13 c 0,40,41
 36 -13 36 -13 36 117 c 0,42,43
 36 176 36 176 76 231 c 128,-1,44
 116 286 116 286 173 320 c 1,45,46
 139 397 139 397 139 454 c 0,0,1
365 542 m 0,47,48
 365 566 365 566 346 583 c 128,-1,49
 327 600 327 600 288.5 600 c 128,-1,50
 250 600 250 600 227.5 568 c 128,-1,51
 205 536 205 536 205 495 c 128,-1,52
 205 454 205 454 233 388.5 c 128,-1,53
 261 323 261 323 312.5 252 c 128,-1,54
 364 181 364 181 414 136 c 1,55,56
 512 227 512 227 512 381 c 0,57,58
 512 405 512 405 509 429 c 1,59,60
 445 421 445 421 409 421 c 128,-1,61
 373 421 373 421 321 423 c 1,62,63
 365 482 365 482 365 542 c 0,47,48
120 161 m 0,64,65
 120 113 120 113 150 80.5 c 128,-1,66
 180 48 180 48 233 48 c 128,-1,67
 286 48 286 48 341 82 c 1,68,69
 248 175 248 175 188 288 c 1,70,71
 120 232 120 232 120 161 c 0,64,65
EndSplineSet
EndChar

StartChar: quotesingle
Encoding: 39 39 10
Width: 300
GlyphClass: 2
Flags: W
LayerCount: 2
Fore
SplineSet
291 552 m 0,0,1
 291 578 291 578 248 578 c 0,2,3
 242 578 242 578 236 578 c 1,4,5
 219 588 219 588 219 611 c 0,6,7
 219 644 219 644 241.5 663 c 128,-1,8
 264 682 264 682 293.5 682 c 128,-1,9
 323 682 323 682 338 656 c 1,10,11
 347 638 347 638 347 622.5 c 128,-1,12
 347 607 347 607 345 596 c 0,13,14
 331 531 331 531 288.5 491 c 128,-1,15
 246 451 246 451 175 416 c 1,16,-1
 168 435 l 1,17,18
 214 456 214 456 250 487 c 0,19,20
 291 523 291 523 291 552 c 0,0,1
EndSplineSet
EndChar

StartChar: parenleft
Encoding: 40 40 11
Width: 542
GlyphClass: 2
Flags: W
LayerCount: 2
Fore
SplineSet
391 -364 m 0,0,1
 400 -364 400 -364 400 -375 c 128,-1,2
 400 -386 400 -386 395.5 -396.5 c 128,-1,3
 391 -407 391 -407 382 -407 c 0,4,5
 249 -407 249 -407 156 -276 c 128,-1,6
 63 -145 63 -145 63 65 c 0,7,8
 63 218 63 218 115 371 c 128,-1,9
 167 524 167 524 250 638.5 c 128,-1,10
 333 753 333 753 442 824.5 c 128,-1,11
 551 896 551 896 660 896 c 0,12,13
 669 896 669 896 669 885 c 128,-1,14
 669 874 669 874 664 863.5 c 128,-1,15
 659 853 659 853 650 853 c 0,16,17
 557 853 557 853 462 777.5 c 128,-1,18
 367 702 367 702 297 588 c 128,-1,19
 227 474 227 474 183 334 c 128,-1,20
 139 194 139 194 139 70 c 0,21,22
 139 -116 139 -116 210.5 -240 c 128,-1,23
 282 -364 282 -364 391 -364 c 0,0,1
EndSplineSet
EndChar

StartChar: parenright
Encoding: 41 41 12
Width: 477
GlyphClass: 2
Flags: W
LayerCount: 2
Fore
SplineSet
368 440 m 0,0,1
 368 617 368 617 295.5 735 c 128,-1,2
 223 853 223 853 109 853 c 0,3,4
 100 853 100 853 100 866 c 0,5,6
 100 896 100 896 117 896 c 0,7,8
 252 896 252 896 348 773.5 c 128,-1,9
 444 651 444 651 444 449 c 0,10,11
 444 326 444 326 406.5 197.5 c 128,-1,12
 369 69 369 69 306 -37 c 128,-1,13
 243 -143 243 -143 166 -227.5 c 128,-1,14
 89 -312 89 -312 3.5 -359.5 c 128,-1,15
 -82 -407 -82 -407 -158 -407 c 0,16,17
 -166 -407 -166 -407 -166 -395 c 0,18,19
 -166 -365 -166 -365 -149 -364 c 1,20,21
 -65 -364 -65 -364 28.5 -287.5 c 128,-1,22
 122 -211 122 -211 196 -95.5 c 128,-1,23
 270 20 270 20 319 165.5 c 128,-1,24
 368 311 368 311 368 440 c 0,0,1
EndSplineSet
EndChar

StartChar: asterisk
Encoding: 42 42 13
Width: 439
GlyphClass: 2
Flags: W
LayerCount: 2
Fore
SplineSet
140 662 m 128,-1,1
 150 671 150 671 158 671 c 128,-1,2
 166 671 166 671 169 668 c 2,3,-1
 277 576 l 1,4,-1
 307 738 l 2,5,6
 308 744 308 744 317.5 748.5 c 128,-1,7
 327 753 327 753 335 753 c 0,8,9
 350 753 350 753 350 737 c 0,10,11
 350 731 350 731 346 714 c 0,12,13
 320 620 320 620 309 575 c 1,14,-1
 463 659 l 2,15,16
 469 662 469 662 473 662 c 0,17,18
 489 662 489 662 489 645 c 0,19,20
 489 632 489 632 474 625 c 2,21,-1
 318 553 l 1,22,-1
 445 484 l 2,23,24
 454 478 454 478 454 468 c 128,-1,25
 454 458 454 458 443.5 448.5 c 128,-1,26
 433 439 433 439 424.5 439 c 128,-1,27
 416 439 416 439 410 442 c 1,28,-1
 298 529 l 1,29,-1
 270 364 l 1,30,31
 266 349 266 349 246 349 c 128,-1,32
 226 349 226 349 226 363 c 1,33,-1
 267 526 l 1,34,-1
 112 438 l 2,35,36
 108 436 108 436 102 436 c 0,37,38
 84 436 84 436 84 454 c 128,-1,39
 84 472 84 472 98 477 c 1,40,-1
 259 551 l 1,41,-1
 133 625 l 2,42,43
 126 630 126 630 128 641.5 c 128,-1,0
 130 653 130 653 140 662 c 128,-1,1
EndSplineSet
EndChar

StartChar: plus
Encoding: 43 43 14
Width: 472
GlyphClass: 2
Flags: W
LayerCount: 2
Fore
SplineSet
306 505 m 0,0,1
 310 505 310 505 315 505 c 1,2,-1
 267 278 l 1,3,-1
 424 281 l 2,4,5
 464 281 464 281 464 251 c 0,6,7
 464 243 464 243 461 233 c 1,8,-1
 257 233 l 1,9,-1
 214 29 l 2,10,11
 208 2 208 2 180 2 c 0,12,13
 176 2 176 2 173 2 c 2,14,-1
 162 5 l 1,15,16
 189 140 189 140 208 233 c 1,17,-1
 43 233 l 2,18,19
 26 233 26 233 19 243.5 c 128,-1,20
 12 254 12 254 14 265 c 2,21,-1
 15 276 l 1,22,23
 55 276 55 276 217 278 c 1,24,-1
 253 458 l 2,25,26
 262 505 262 505 306 505 c 0,0,1
EndSplineSet
EndChar

StartChar: comma
Encoding: 44 44 15
Width: 260
GlyphClass: 2
Flags: W
LayerCount: 2
Fore
SplineSet
159 -37 m 0,0,1
 159 -1 159 -1 111 -1 c 0,2,3
 105 -1 105 -1 98 -2 c 1,4,5
 72 11 72 11 72 40 c 128,-1,6
 72 69 72 69 88 85.5 c 128,-1,7
 104 102 104 102 133.5 102 c 128,-1,8
 163 102 163 102 183 76 c 128,-1,9
 203 50 203 50 203 16 c 0,10,11
 203 -49 203 -49 168.5 -89 c 128,-1,12
 134 -129 134 -129 71 -164 c 1,13,-1
 60 -145 l 1,14,15
 102 -124 102 -124 130.5 -93 c 128,-1,16
 159 -62 159 -62 159 -37 c 0,0,1
EndSplineSet
EndChar

StartChar: hyphen
Encoding: 45 45 16
Width: 250
GlyphClass: 2
Flags: W
LayerCount: 2
Fore
SplineSet
6 227 m 1,0,1
 10 227 10 227 37 227 c 128,-1,2
 64 227 64 227 129.5 240.5 c 128,-1,3
 195 254 195 254 211 254 c 0,4,5
 240 254 240 254 240 230 c 0,6,7
 240 226 240 226 238 214 c 1,8,9
 198 212 198 212 132 196.5 c 128,-1,10
 66 181 66 181 46 181 c 128,-1,11
 26 181 26 181 17.5 192.5 c 128,-1,12
 9 204 9 204 8 216 c 1,13,-1
 6 227 l 1,0,1
EndSplineSet
EndChar

StartChar: period
Encoding: 46 46 17
Width: 260
GlyphClass: 2
Flags: W
LayerCount: 2
Fore
SplineSet
170.5 4.5 m 128,-1,1
 154 -13 154 -13 130.5 -13 c 128,-1,2
 107 -13 107 -13 90 3.5 c 128,-1,3
 73 20 73 20 73 43 c 128,-1,4
 73 66 73 66 88.5 83.5 c 128,-1,5
 104 101 104 101 127.5 101 c 128,-1,6
 151 101 151 101 169 85.5 c 128,-1,7
 187 70 187 70 187 46 c 128,-1,0
 187 22 187 22 170.5 4.5 c 128,-1,1
EndSplineSet
EndChar

StartChar: slash
Encoding: 47 47 18
Width: 580
GlyphClass: 2
Flags: W
LayerCount: 2
Fore
SplineSet
74 -113 m 2,0,1
 57 -137 57 -137 43.5 -137 c 128,-1,2
 30 -137 30 -137 17 -120 c 1,3,-1
 667 746 l 2,4,5
 682 766 682 766 692 766 c 0,6,7
 711 766 711 766 722 749 c 1,8,-1
 74 -113 l 2,0,1
EndSplineSet
EndChar

StartChar: zero
Encoding: 48 48 19
Width: 550
GlyphClass: 2
Flags: W
LayerCount: 2
Fore
SplineSet
336 451 m 0,0,1
 413 451 413 451 463.5 404 c 128,-1,2
 514 357 514 357 514 281 c 0,3,4
 514 171 514 171 424 79 c 128,-1,5
 334 -13 334 -13 220 -13 c 0,6,7
 144 -13 144 -13 94 36 c 128,-1,8
 44 85 44 85 44 163 c 0,9,10
 44 273 44 273 132.5 362 c 128,-1,11
 221 451 221 451 336 451 c 0,0,1
322 396 m 0,12,13
 235 396 235 396 173 326.5 c 128,-1,14
 111 257 111 257 111 167 c 0,15,16
 111 108 111 108 145 75.5 c 128,-1,17
 179 43 179 43 234 43 c 0,18,19
 321 43 321 43 385.5 113.5 c 128,-1,20
 450 184 450 184 450 274 c 0,21,22
 450 331 450 331 414 363.5 c 128,-1,23
 378 396 378 396 322 396 c 0,12,13
EndSplineSet
Substitution2: "'onum' Oldstyle Figures lookup 1 subtable" zero.taboldstyle
Substitution2: "'aalt' Access All Alternates lookup 0 subtable" zero.taboldstyle
EndChar

StartChar: one
Encoding: 49 49 20
Width: 378
GlyphClass: 2
Flags: W
LayerCount: 2
Fore
SplineSet
226 438 m 1,0,-1
 354 441 l 2,1,2
 358 441 358 441 358 426 c 128,-1,3
 358 411 358 411 349 411 c 2,4,-1
 279 411 l 2,5,6
 267 411 267 411 263 394 c 2,7,-1
 194 118 l 2,8,9
 182 67 182 67 182 48.5 c 128,-1,10
 182 30 182 30 193 30 c 2,11,-1
 254 30 l 2,12,13
 259 30 259 30 259 15 c 128,-1,14
 259 0 259 0 249 0 c 2,15,-1
 128 1 l 1,16,-1
 -1 -2 l 2,17,18
 -5 -2 -5 -2 -5 13 c 128,-1,19
 -5 28 -5 28 4 28 c 2,20,-1
 74 28 l 2,21,22
 86 28 86 28 91 45 c 2,23,-1
 161 325 l 2,24,25
 172 369 172 369 172 389 c 128,-1,26
 172 409 172 409 160 409 c 2,27,-1
 99 409 l 2,28,29
 95 409 95 409 95 423.5 c 128,-1,30
 95 438 95 438 105 439 c 1,31,32
 181 438 181 438 226 438 c 1,0,-1
EndSplineSet
Substitution2: "'onum' Oldstyle Figures lookup 1 subtable" one.taboldstyle
Substitution2: "'aalt' Access All Alternates lookup 0 subtable" one.taboldstyle
EndChar

StartChar: two
Encoding: 50 50 21
Width: 395
GlyphClass: 2
Flags: W
LayerCount: 2
Fore
SplineSet
302 330 m 0,0,1
 302 365 302 365 283 386.5 c 128,-1,2
 264 408 264 408 229 408 c 128,-1,3
 194 408 194 408 174 388 c 128,-1,4
 154 368 154 368 154 338 c 128,-1,5
 154 308 154 308 163 282 c 1,6,7
 138 266 138 266 115.5 266 c 128,-1,8
 93 266 93 266 80.5 280 c 128,-1,9
 68 294 68 294 68 316 c 0,10,11
 68 364 68 364 125 407 c 128,-1,12
 182 450 182 450 249 450 c 128,-1,13
 316 450 316 450 356.5 419.5 c 128,-1,14
 397 389 397 389 397 346.5 c 128,-1,15
 397 304 397 304 371.5 264 c 128,-1,16
 346 224 346 224 295 185 c 0,17,18
 211 121 211 121 90 55 c 1,19,-1
 92 50 l 1,20,21
 168 67 168 67 246 67 c 0,22,23
 370 67 370 67 370 15 c 0,24,25
 370 -27 370 -27 305 -63 c 1,26,-1
 301 -62 l 1,27,28
 301 -24 301 -24 271.5 -9 c 128,-1,29
 242 6 242 6 163 6 c 128,-1,30
 84 6 84 6 -18 0 c 0,31,32
 -25 0 -25 0 -25 8 c 128,-1,33
 -25 16 -25 16 -14 22 c 0,34,35
 137 119 137 119 219.5 195 c 128,-1,36
 302 271 302 271 302 330 c 0,0,1
EndSplineSet
Substitution2: "'onum' Oldstyle Figures lookup 1 subtable" two.taboldstyle
Substitution2: "'aalt' Access All Alternates lookup 0 subtable" two.taboldstyle
EndChar

StartChar: three
Encoding: 51 51 22
Width: 521
GlyphClass: 2
Flags: W
LayerCount: 2
Fore
SplineSet
152 -243 m 0,0,1
 230 -243 230 -243 282 -181.5 c 128,-1,2
 334 -120 334 -120 334 -43 c 0,3,4
 334 58 334 58 248 101 c 1,5,6
 179 68 179 68 153 68 c 128,-1,7
 127 68 127 68 127 84 c 0,8,9
 127 104 127 104 160.5 118.5 c 128,-1,10
 194 133 194 133 235 133 c 1,11,12
 281 162 281 162 318 212 c 128,-1,13
 355 262 355 262 355 309.5 c 128,-1,14
 355 357 355 357 336.5 383.5 c 128,-1,15
 318 410 318 410 280 410 c 128,-1,16
 242 410 242 410 209 385.5 c 128,-1,17
 176 361 176 361 176 325 c 0,18,19
 176 306 176 306 186 287 c 1,20,21
 171 262 171 262 145 262 c 0,22,23
 90 262 90 262 90 305 c 0,24,25
 90 358 90 358 157.5 404 c 128,-1,26
 225 450 225 450 295.5 450 c 128,-1,27
 366 450 366 450 409 418.5 c 128,-1,28
 452 387 452 387 452 330.5 c 128,-1,29
 452 274 452 274 403.5 217.5 c 128,-1,30
 355 161 355 161 289 123 c 1,31,32
 361 102 361 102 395.5 61.5 c 128,-1,33
 430 21 430 21 430 -29 c 0,34,35
 430 -120 430 -120 338.5 -199.5 c 128,-1,36
 247 -279 247 -279 128 -279 c 0,37,38
 57 -279 57 -279 10.5 -251 c 128,-1,39
 -36 -223 -36 -223 -36 -184 c 0,40,41
 -36 -165 -36 -165 -20.5 -151 c 128,-1,42
 -5 -137 -5 -137 15.5 -137 c 128,-1,43
 36 -137 36 -137 55 -147 c 1,44,45
 55 -243 55 -243 152 -243 c 0,0,1
EndSplineSet
Substitution2: "'onum' Oldstyle Figures lookup 1 subtable" three.taboldstyle
Substitution2: "'aalt' Access All Alternates lookup 0 subtable" three.taboldstyle
EndChar

StartChar: four
Encoding: 52 52 23
Width: 525
GlyphClass: 2
Flags: W
LayerCount: 2
Fore
SplineSet
-12 5 m 2,0,1
 -20 5 -20 5 -20 18 c 128,-1,2
 -20 31 -20 31 0 51 c 2,3,-1
 427 472 l 1,4,5
 460 472 460 472 460 455 c 0,6,7
 460 451 460 451 451 425 c 0,8,9
 423 344 423 344 384 190 c 2,10,-1
 350 53 l 1,11,-1
 448 53 l 2,12,13
 456 53 456 53 456 41.5 c 128,-1,14
 456 30 456 30 450.5 17.5 c 128,-1,15
 445 5 445 5 436 5 c 2,16,-1
 338 5 l 1,17,18
 315 -91 315 -91 306 -124 c 0,19,20
 289 -185 289 -185 289 -213 c 128,-1,21
 289 -241 289 -241 307 -241 c 2,22,-1
 369 -241 l 2,23,24
 381 -241 381 -241 381 -255.5 c 128,-1,25
 381 -270 381 -270 358 -270 c 0,26,27
 270 -269 270 -269 235 -269 c 2,28,-1
 84 -270 l 2,29,30
 75 -270 75 -270 75 -257 c 0,31,32
 75 -241 75 -241 92 -241 c 2,33,-1
 170 -241 l 2,34,35
 187 -241 187 -241 191.5 -224.5 c 128,-1,36
 196 -208 196 -208 212.5 -137.5 c 128,-1,37
 229 -67 229 -67 243 -16 c 1,38,-1
 248 5 l 1,39,-1
 -12 5 l 2,0,1
327 327 m 1,40,-1
 54 51 l 1,41,-1
 259 51 l 1,42,-1
 311 257 l 1,43,-1
 330 327 l 1,44,-1
 327 327 l 1,40,-1
EndSplineSet
Substitution2: "'onum' Oldstyle Figures lookup 1 subtable" four.taboldstyle
Substitution2: "'aalt' Access All Alternates lookup 0 subtable" four.taboldstyle
EndChar

StartChar: five
Encoding: 53 53 24
Width: 525
GlyphClass: 2
Flags: W
LayerCount: 2
Fore
SplineSet
440 29 m 0,0,1
 440 -89 440 -89 342.5 -186.5 c 128,-1,2
 245 -284 245 -284 99 -284 c 0,3,4
 31 -284 31 -284 -9.5 -259.5 c 128,-1,5
 -50 -235 -50 -235 -50 -198 c 0,6,7
 -50 -175 -50 -175 -34.5 -158.5 c 128,-1,8
 -19 -142 -19 -142 11 -142 c 1,9,10
 20 -193 20 -193 53.5 -217.5 c 128,-1,11
 87 -242 87 -242 136 -242 c 0,12,13
 235 -242 235 -242 299 -173.5 c 128,-1,14
 363 -105 363 -105 363 -21.5 c 128,-1,15
 363 62 363 62 311 117.5 c 128,-1,16
 259 173 259 173 147 173 c 0,17,18
 141 173 141 173 132.5 168 c 128,-1,19
 124 163 124 163 116 163 c 128,-1,20
 108 163 108 163 108 170 c 1,21,-1
 191 431 l 1,22,-1
 423 450 l 2,23,24
 479 454 479 454 507 490 c 0,25,26
 513 497 513 497 521 497 c 128,-1,27
 529 497 529 497 529 488.5 c 128,-1,28
 529 480 529 480 516.5 456 c 128,-1,29
 504 432 504 432 471.5 403 c 128,-1,30
 439 374 439 374 398 369 c 1,31,-1
 204 352 l 1,32,-1
 171 253 l 1,33,34
 305 247 305 247 372.5 184 c 128,-1,35
 440 121 440 121 440 29 c 0,0,1
EndSplineSet
Substitution2: "'onum' Oldstyle Figures lookup 1 subtable" five.taboldstyle
Substitution2: "'aalt' Access All Alternates lookup 0 subtable" five.taboldstyle
EndChar

StartChar: six
Encoding: 54 54 25
Width: 501
GlyphClass: 2
Flags: W
LayerCount: 2
Fore
SplineSet
539 693 m 0,0,1
 551 693 551 693 551 681 c 0,2,3
 551 675 551 675 545 673 c 0,4,5
 371 605 371 605 253 490 c 0,6,7
 191 430 191 430 155.5 349 c 128,-1,8
 120 268 120 268 120 188 c 128,-1,9
 120 108 120 108 148.5 66 c 128,-1,10
 177 24 177 24 219 24 c 0,11,12
 281 24 281 24 317.5 82 c 128,-1,13
 354 140 354 140 354 211 c 0,14,15
 354 250 354 250 334 279 c 128,-1,16
 314 308 314 308 273 308 c 0,17,18
 256 308 256 308 235.5 301 c 128,-1,19
 215 294 215 294 214 294 c 0,20,21
 203 294 203 294 203 305 c 0,22,23
 203 322 203 322 238 337 c 128,-1,24
 273 352 273 352 309 352 c 0,25,26
 373 352 373 352 415.5 306 c 128,-1,27
 458 260 458 260 458 202 c 0,28,29
 458 114 458 114 379 50.5 c 128,-1,30
 300 -13 300 -13 207 -13 c 0,31,32
 132 -13 132 -13 75 46 c 128,-1,33
 18 105 18 105 18 194 c 128,-1,34
 18 283 18 283 62.5 368 c 128,-1,35
 107 453 107 453 179.5 518 c 128,-1,36
 252 583 252 583 345 629 c 128,-1,37
 438 675 438 675 536 693 c 0,38,39
 537 693 537 693 539 693 c 0,0,1
EndSplineSet
Substitution2: "'onum' Oldstyle Figures lookup 1 subtable" six.taboldstyle
Substitution2: "'aalt' Access All Alternates lookup 0 subtable" six.taboldstyle
EndChar

StartChar: seven
Encoding: 55 55 26
Width: 528
GlyphClass: 2
Flags: W
LayerCount: 2
Fore
SplineSet
538 432 m 0,0,1
 538 425 538 425 527 411 c 1,2,3
 408 288 408 288 282 113 c 0,4,5
 215 20 215 20 173.5 -73 c 128,-1,6
 132 -166 132 -166 132 -235 c 0,7,8
 132 -253 132 -253 133 -263 c 1,9,10
 108 -280 108 -280 83 -280 c 0,11,12
 30 -280 30 -280 30 -233 c 0,13,14
 30 -169 30 -169 74 -83.5 c 128,-1,15
 118 2 118 2 190 88 c 0,16,17
 314 237 314 237 446 361 c 1,18,-1
 307 361 l 2,19,20
 215 361 215 361 175 356 c 128,-1,21
 135 351 135 351 111 333 c 0,22,23
 104 328 104 328 88 305 c 0,24,25
 86 302 86 302 79 302 c 0,26,27
 58 302 58 302 58 313 c 0,28,29
 58 317 58 317 79.5 347 c 128,-1,30
 101 377 101 377 110.5 391.5 c 128,-1,31
 120 406 120 406 129 421 c 128,-1,32
 138 436 138 436 142 444 c 2,33,-1
 150 459 l 2,34,35
 153 466 153 466 154.5 468 c 128,-1,36
 156 470 156 470 161.5 470 c 128,-1,37
 167 470 167 470 174 466 c 128,-1,38
 181 462 181 462 181 459.5 c 128,-1,39
 181 457 181 457 171 437 c 1,40,-1
 390 437 l 2,41,42
 438 437 438 437 480 440 c 128,-1,43
 522 443 522 443 526 443 c 0,44,45
 538 443 538 443 538 432 c 0,0,1
EndSplineSet
Substitution2: "'onum' Oldstyle Figures lookup 1 subtable" seven.taboldstyle
Substitution2: "'aalt' Access All Alternates lookup 0 subtable" seven.taboldstyle
EndChar

StartChar: eight
Encoding: 56 56 27
Width: 498
GlyphClass: 2
Flags: W
LayerCount: 2
Fore
SplineSet
184 339 m 1,0,1
 107 403 107 403 107 478.5 c 128,-1,2
 107 554 107 554 179 619.5 c 128,-1,3
 251 685 251 685 334 685 c 0,4,5
 399 685 399 685 441 649.5 c 128,-1,6
 483 614 483 614 483 563 c 128,-1,7
 483 512 483 512 439.5 459 c 128,-1,8
 396 406 396 406 321 364 c 1,9,10
 423 282 423 282 423 195 c 128,-1,11
 423 108 423 108 347 47.5 c 128,-1,12
 271 -13 271 -13 176 -13 c 0,13,14
 106 -13 106 -13 62 28.5 c 128,-1,15
 18 70 18 70 18 135 c 128,-1,16
 18 200 18 200 68.5 249.5 c 128,-1,17
 119 299 119 299 184 339 c 1,0,1
129 66.5 m 128,-1,19
 159 34 159 34 208 34 c 128,-1,20
 257 34 257 34 294.5 66.5 c 128,-1,21
 332 99 332 99 332 149.5 c 128,-1,22
 332 200 332 200 295.5 245 c 128,-1,23
 259 290 259 290 210 319 c 1,24,25
 99 242 99 242 99 150 c 0,26,18
 99 99 99 99 129 66.5 c 128,-1,19
378 612 m 128,-1,28
 355 639 355 639 310.5 639 c 128,-1,29
 266 639 266 639 228.5 604 c 128,-1,30
 191 569 191 569 191 530 c 0,31,32
 191 483 191 483 224 448 c 0,33,34
 244 427 244 427 266 409.5 c 128,-1,35
 288 392 288 392 294 387 c 1,36,37
 339 414 339 414 370 460 c 128,-1,38
 401 506 401 506 401 545.5 c 128,-1,27
 401 585 401 585 378 612 c 128,-1,28
EndSplineSet
Substitution2: "'onum' Oldstyle Figures lookup 1 subtable" eight.taboldstyle
Substitution2: "'aalt' Access All Alternates lookup 0 subtable" eight.taboldstyle
EndChar

StartChar: nine
Encoding: 57 57 28
Width: 519
GlyphClass: 2
Flags: W
LayerCount: 2
Fore
SplineSet
-62 -285 m 0,0,1
 -74 -285 -74 -285 -74 -273 c 0,2,3
 -74 -267 -74 -267 -68 -265 c 0,4,5
 104 -199 104 -199 234 -68 c 0,6,7
 300 -2 300 -2 339 83.5 c 128,-1,8
 378 169 378 169 378 249 c 128,-1,9
 378 329 378 329 349.5 371 c 128,-1,10
 321 413 321 413 279 413 c 0,11,12
 217 413 217 413 180.5 355 c 128,-1,13
 144 297 144 297 144 226 c 0,14,15
 144 187 144 187 164 158 c 128,-1,16
 184 129 184 129 225 129 c 0,17,18
 242 129 242 129 262.5 136 c 128,-1,19
 283 143 283 143 284 143 c 0,20,21
 295 143 295 143 295 132 c 0,22,23
 295 115 295 115 260 100 c 128,-1,24
 225 85 225 85 189 85 c 0,25,26
 125 85 125 85 82.5 131 c 128,-1,27
 40 177 40 177 40 235 c 0,28,29
 40 323 40 323 119 386.5 c 128,-1,30
 198 450 198 450 291 450 c 0,31,32
 366 450 366 450 423 391 c 128,-1,33
 480 332 480 332 480 243 c 0,34,35
 480 125 480 125 399.5 10 c 128,-1,36
 319 -105 319 -105 195.5 -183 c 128,-1,37
 72 -261 72 -261 -59 -285 c 0,38,39
 -60 -285 -60 -285 -62 -285 c 0,0,1
EndSplineSet
Substitution2: "'onum' Oldstyle Figures lookup 1 subtable" nine.taboldstyle
Substitution2: "'aalt' Access All Alternates lookup 0 subtable" nine.taboldstyle
EndChar

StartChar: colon
Encoding: 58 58 29
Width: 260
GlyphClass: 2
Flags: W
LayerCount: 2
Fore
SplineSet
180.5 4.5 m 128,-1,1
 164 -13 164 -13 140.5 -13 c 128,-1,2
 117 -13 117 -13 100 3.5 c 128,-1,3
 83 20 83 20 83 43 c 128,-1,4
 83 66 83 66 98.5 83.5 c 128,-1,5
 114 101 114 101 137.5 101 c 128,-1,6
 161 101 161 101 179 85.5 c 128,-1,7
 197 70 197 70 197 46 c 128,-1,0
 197 22 197 22 180.5 4.5 c 128,-1,1
254.5 339.5 m 128,-1,9
 238 322 238 322 214.5 322 c 128,-1,10
 191 322 191 322 174 338.5 c 128,-1,11
 157 355 157 355 157 378 c 128,-1,12
 157 401 157 401 172.5 418.5 c 128,-1,13
 188 436 188 436 211.5 436 c 128,-1,14
 235 436 235 436 253 420.5 c 128,-1,15
 271 405 271 405 271 381 c 128,-1,8
 271 357 271 357 254.5 339.5 c 128,-1,9
EndSplineSet
EndChar

StartChar: semicolon
Encoding: 59 59 30
Width: 260
GlyphClass: 2
Flags: W
LayerCount: 2
Fore
SplineSet
254.5 339.5 m 128,-1,1
 238 322 238 322 214.5 322 c 128,-1,2
 191 322 191 322 174 338.5 c 128,-1,3
 157 355 157 355 157 378 c 128,-1,4
 157 401 157 401 172.5 418.5 c 128,-1,5
 188 436 188 436 211.5 436 c 128,-1,6
 235 436 235 436 253 420.5 c 128,-1,7
 271 405 271 405 271 381 c 128,-1,0
 271 357 271 357 254.5 339.5 c 128,-1,1
159 -37 m 0,8,9
 159 -1 159 -1 111 -1 c 0,10,11
 105 -1 105 -1 98 -2 c 1,12,13
 72 11 72 11 72 40 c 128,-1,14
 72 69 72 69 88 85.5 c 128,-1,15
 104 102 104 102 133.5 102 c 128,-1,16
 163 102 163 102 183 76 c 128,-1,17
 203 50 203 50 203 16 c 0,18,19
 203 -49 203 -49 168.5 -89 c 128,-1,20
 134 -129 134 -129 71 -164 c 1,21,-1
 60 -145 l 1,22,23
 102 -124 102 -124 130.5 -93 c 128,-1,24
 159 -62 159 -62 159 -37 c 0,8,9
EndSplineSet
EndChar

StartChar: less
Encoding: 60 60 31
Width: 454
GlyphClass: 2
Flags: W
LayerCount: 2
Fore
SplineSet
435 400 m 1,0,1
 231 325 231 325 107 235 c 1,2,3
 132 204 132 204 209.5 154 c 128,-1,4
 287 104 287 104 364 70 c 1,5,6
 352 44 352 44 310 44 c 128,-1,7
 268 44 268 44 196 87 c 128,-1,8
 124 130 124 130 71.5 175.5 c 128,-1,9
 19 221 19 221 19 233 c 128,-1,10
 19 245 19 245 94 292.5 c 128,-1,11
 169 340 169 340 259 383 c 128,-1,12
 349 426 349 426 381.5 426 c 128,-1,13
 414 426 414 426 423.5 417.5 c 128,-1,14
 433 409 433 409 435 400 c 1,0,1
EndSplineSet
EndChar

StartChar: equal
Encoding: 61 61 32
Width: 524
GlyphClass: 2
Flags: W
LayerCount: 2
Fore
SplineSet
502 334 m 0,0,1
 502 326 502 326 499 314 c 1,2,-1
 83 314 l 2,3,4
 54 314 54 314 54 344 c 1,5,-1
 55 355 l 1,6,-1
 462 360 l 2,7,8
 502 360 502 360 502 334 c 0,0,1
468 170 m 0,9,10
 468 161 468 161 464 150 c 1,11,-1
 48 150 l 2,12,13
 19 150 19 150 19 180 c 1,14,-1
 20 191 l 1,15,-1
 427 196 l 2,16,17
 468 196 468 196 468 170 c 0,9,10
EndSplineSet
EndChar

StartChar: greater
Encoding: 62 62 33
Width: 470
GlyphClass: 2
Flags: W
LayerCount: 2
Fore
SplineSet
27 70 m 1,0,1
 119 104 119 104 200 145 c 0,2,3
 313 202 313 202 354 235 c 1,4,5
 344 246 344 246 323 265 c 128,-1,6
 302 284 302 284 238 325.5 c 128,-1,7
 174 367 174 367 98 400 c 1,8,9
 110 426 110 426 152 426 c 128,-1,10
 194 426 194 426 266 383 c 128,-1,11
 338 340 338 340 390 294.5 c 128,-1,12
 442 249 442 249 442 237 c 128,-1,13
 442 225 442 225 367.5 177.5 c 128,-1,14
 293 130 293 130 203 87 c 128,-1,15
 113 44 113 44 80.5 44 c 128,-1,16
 48 44 48 44 38.5 52.5 c 128,-1,17
 29 61 29 61 27 70 c 1,0,1
EndSplineSet
EndChar

StartChar: question
Encoding: 63 63 34
Width: 472
GlyphClass: 2
Flags: W
LayerCount: 2
Fore
SplineSet
110 134 m 0,0,1
 90 134 90 134 90 183.5 c 128,-1,2
 90 233 90 233 119 270 c 128,-1,3
 148 307 148 307 189 327 c 128,-1,4
 230 347 230 347 271 364.5 c 128,-1,5
 312 382 312 382 341 408 c 128,-1,6
 370 434 370 434 370 466.5 c 128,-1,7
 370 499 370 499 339 516.5 c 128,-1,8
 308 534 308 534 270.5 540.5 c 128,-1,9
 233 547 233 547 200.5 567 c 128,-1,10
 168 587 168 587 167 615 c 128,-1,11
 166 643 166 643 174 661.5 c 128,-1,12
 182 680 182 680 190 688 c 2,13,-1
 197 695 l 1,14,15
 214 666 214 666 257 644.5 c 128,-1,16
 300 623 300 623 340 612 c 128,-1,17
 380 601 380 601 411.5 575.5 c 128,-1,18
 443 550 443 550 443 505.5 c 128,-1,19
 443 461 443 461 419 422 c 128,-1,20
 395 383 395 383 359.5 360.5 c 128,-1,21
 324 338 324 338 282.5 316 c 128,-1,22
 241 294 241 294 205.5 276.5 c 128,-1,23
 170 259 170 259 146 231 c 128,-1,24
 122 203 122 203 122 167 c 1,25,-1
 127 142 l 1,26,27
 119 134 119 134 110 134 c 0,0,1
178.5 4.5 m 128,-1,29
 162 -13 162 -13 138.5 -13 c 128,-1,30
 115 -13 115 -13 98 3.5 c 128,-1,31
 81 20 81 20 81 43 c 128,-1,32
 81 66 81 66 96.5 83.5 c 128,-1,33
 112 101 112 101 135.5 101 c 128,-1,34
 159 101 159 101 177 85.5 c 128,-1,35
 195 70 195 70 195 46 c 128,-1,28
 195 22 195 22 178.5 4.5 c 128,-1,29
EndSplineSet
EndChar

StartChar: at
Encoding: 64 64 35
Width: 976
GlyphClass: 2
Flags: W
LayerCount: 2
Fore
SplineSet
681.5 424 m 128,-1,1
 699 442 699 442 709.5 442 c 128,-1,2
 720 442 720 442 720 430 c 0,3,4
 720 420 720 420 715 413 c 0,5,6
 703 396 703 396 674.5 337.5 c 128,-1,7
 646 279 646 279 613 179.5 c 128,-1,8
 580 80 580 80 580 61 c 0,9,10
 580 49 580 49 597 49 c 0,11,12
 722 49 722 49 808 144 c 128,-1,13
 894 239 894 239 894 351 c 0,14,15
 894 440 894 440 831 498.5 c 128,-1,16
 768 557 768 557 651.5 557 c 128,-1,17
 535 557 535 557 437 512.5 c 128,-1,18
 339 468 339 468 272 399.5 c 128,-1,19
 205 331 205 331 165 248.5 c 128,-1,20
 125 166 125 166 125 91 c 0,21,22
 125 -8 125 -8 198.5 -69.5 c 128,-1,23
 272 -131 272 -131 422 -131 c 0,24,25
 512 -131 512 -131 584 -106 c 0,26,27
 607 -98 607 -98 610 -98 c 0,28,29
 620 -98 620 -98 620 -108 c 0,30,31
 620 -124 620 -124 594 -133 c 0,32,33
 489 -170 489 -170 385 -170 c 0,34,35
 221 -170 221 -170 140.5 -104.5 c 128,-1,36
 60 -39 60 -39 60 67 c 0,37,38
 60 152 60 152 108 245.5 c 128,-1,39
 156 339 156 339 236 418 c 128,-1,40
 316 497 316 497 432 548.5 c 128,-1,41
 548 600 548 600 682 600 c 128,-1,42
 816 600 816 600 887.5 537.5 c 128,-1,43
 959 475 959 475 959 382 c 128,-1,44
 959 289 959 289 906.5 200 c 128,-1,45
 854 111 854 111 757 49.5 c 128,-1,46
 660 -12 660 -12 547 -12 c 0,47,48
 492 -12 492 -12 492 21 c 0,49,50
 492 53 492 53 548 194 c 0,51,52
 566 240 566 240 565 241 c 1,53,54
 381 -15 381 -15 309 -15 c 0,55,56
 284 -15 284 -15 267 2.5 c 128,-1,57
 250 20 250 20 250 51 c 128,-1,58
 250 82 250 82 262.5 130 c 128,-1,59
 275 178 275 178 300 233 c 128,-1,60
 325 288 325 288 358 336.5 c 128,-1,61
 391 385 391 385 437 417.5 c 128,-1,62
 483 450 483 450 523.5 450 c 128,-1,63
 564 450 564 450 589 439 c 128,-1,64
 614 428 614 428 627 417 c 128,-1,65
 640 406 640 406 644 406 c 0,66,0
 664 406 664 406 681.5 424 c 128,-1,1
561.5 387.5 m 128,-1,68
 532 408 532 408 499.5 408 c 128,-1,69
 467 408 467 408 426 349 c 128,-1,70
 385 290 385 290 359.5 217.5 c 128,-1,71
 334 145 334 145 334 104 c 128,-1,72
 334 63 334 63 359 63 c 0,73,74
 387 63 387 63 478 171.5 c 128,-1,75
 569 280 569 280 601 347 c 1,76,67
 591 367 591 367 561.5 387.5 c 128,-1,68
EndSplineSet
EndChar

StartChar: A
Encoding: 65 65 36
Width: 558
GlyphClass: 2
Flags: W
LayerCount: 2
Fore
SplineSet
438 1 m 1,0,-1
 310 -2 l 2,1,2
 302 -2 302 -2 302 7 c 0,3,4
 302 32 302 32 317 32 c 2,5,-1
 372 32 l 2,6,7
 397 32 397 32 397 57 c 0,8,9
 397 79 397 79 383 169.5 c 128,-1,10
 369 260 369 260 364 299 c 1,11,12
 337 300 337 300 296 300 c 128,-1,13
 255 300 255 300 202 297 c 1,14,15
 114 149 114 149 65 48 c 1,16,17
 59 33 59 33 71 33 c 2,18,-1
 138 33 l 2,19,20
 145 33 145 33 145 16.5 c 128,-1,21
 145 0 145 0 129 0 c 2,22,-1
 -1 1 l 1,23,-1
 -112 -2 l 2,24,25
 -120 -2 -120 -2 -120 8 c 0,26,27
 -120 32 -120 32 -105 32 c 2,28,-1
 -58 32 l 2,29,30
 -35 32 -35 32 -20 54 c 0,31,32
 6 93 6 93 74 190 c 0,33,34
 207 378 207 378 302 545 c 0,35,36
 341 612 341 612 385 649.5 c 128,-1,37
 429 687 429 687 467 687 c 0,38,39
 495 687 495 687 495 659 c 1,40,41
 463 649 463 649 449 633.5 c 128,-1,42
 435 618 435 618 435 593 c 0,43,44
 435 402 435 402 468 217.5 c 128,-1,45
 501 33 501 33 541 33 c 2,46,-1
 573 33 l 2,47,48
 581 33 581 33 581 16.5 c 128,-1,49
 581 0 581 0 568 0 c 2,50,-1
 438 1 l 1,0,-1
226 337 m 1,51,52
 283 336 283 336 313 336 c 128,-1,53
 343 336 343 336 359 336 c 1,54,55
 342 460 342 460 342 523 c 1,56,-1
 338 523 l 1,57,58
 319 490 319 490 226 337 c 1,51,52
EndSplineSet
EndChar

StartChar: B
Encoding: 66 66 37
Width: 632
GlyphClass: 2
Flags: W
LayerCount: 2
Fore
SplineSet
560 627.5 m 128,-1,1
 617 584 617 584 617 522 c 128,-1,2
 617 460 617 460 568 408 c 128,-1,3
 519 356 519 356 433 340 c 1,4,5
 500 318 500 318 539.5 281 c 128,-1,6
 579 244 579 244 579 188.5 c 128,-1,7
 579 133 579 133 532 82.5 c 128,-1,8
 485 32 485 32 426.5 9 c 128,-1,9
 368 -14 368 -14 317 -14 c 128,-1,10
 266 -14 266 -14 185.5 0.5 c 128,-1,11
 105 15 105 15 65 15 c 128,-1,12
 25 15 25 15 -15 4 c 1,13,14
 -15 7 -15 7 -14 12.5 c 128,-1,15
 -13 18 -13 18 0 29 c 128,-1,16
 13 40 13 40 42 45 c 128,-1,17
 71 50 71 50 95.5 85.5 c 128,-1,18
 120 121 120 121 141 207 c 2,19,-1
 243 618 l 1,20,21
 179 616 179 616 103 579 c 1,22,23
 98 584 98 584 98 593.5 c 128,-1,24
 98 603 98 603 107.5 613 c 128,-1,25
 117 623 117 623 139.5 633.5 c 128,-1,26
 162 644 162 644 196 652 c 0,27,28
 268 671 268 671 400 671 c 0,29,0
 503 671 503 671 560 627.5 c 128,-1,1
483 162 m 0,30,31
 483 232 483 232 426 282 c 128,-1,32
 369 332 369 332 272 336 c 1,33,34
 268 323 268 323 256 272.5 c 128,-1,35
 244 222 244 222 234 187.5 c 128,-1,36
 224 153 224 153 203.5 116 c 128,-1,37
 183 79 183 79 159 67 c 1,38,-1
 158 64 l 1,39,40
 171 68 171 68 196 68 c 128,-1,41
 221 68 221 68 279 59 c 128,-1,42
 337 50 337 50 379.5 50 c 128,-1,43
 422 50 422 50 452.5 84.5 c 128,-1,44
 483 119 483 119 483 162 c 0,30,31
341 375 m 0,45,46
 414 375 414 375 461 421.5 c 128,-1,47
 508 468 508 468 508 519 c 128,-1,48
 508 570 508 570 474 600.5 c 128,-1,49
 440 631 440 631 374 631 c 0,50,51
 344 631 344 631 333 585 c 2,52,-1
 283 383 l 1,53,54
 315 375 315 375 341 375 c 0,45,46
EndSplineSet
EndChar

StartChar: C
Encoding: 67 67 38
Width: 638
GlyphClass: 2
Flags: W
LayerCount: 2
Fore
SplineSet
589 502 m 1,0,1
 603 551 603 551 603 565 c 0,2,3
 602 594 602 594 566.5 612 c 128,-1,4
 531 630 531 630 465 630 c 0,5,6
 366 630 366 630 290 576.5 c 128,-1,7
 214 523 214 523 176 440 c 128,-1,8
 138 357 138 357 138 261 c 128,-1,9
 138 165 138 165 200 105.5 c 128,-1,10
 262 46 262 46 349 46 c 128,-1,11
 436 46 436 46 519 111 c 1,12,-1
 545 177 l 1,13,14
 552 189 552 189 560 189 c 0,15,16
 572 189 572 189 584 162 c 1,17,18
 550 100 550 100 520 -4 c 0,19,20
 513 -26 513 -26 503 -26 c 0,21,22
 485 -26 485 -26 478 -21 c 1,23,-1
 484 8 l 1,24,25
 484 16 484 16 476 16 c 0,26,27
 474 16 474 16 421.5 2.5 c 128,-1,28
 369 -11 369 -11 326 -11 c 0,29,30
 194 -11 194 -11 105.5 59 c 128,-1,31
 17 129 17 129 17 247 c 128,-1,32
 17 365 17 365 88 469 c 128,-1,33
 159 573 159 573 266.5 629.5 c 128,-1,34
 374 686 374 686 486 686 c 0,35,36
 500 686 500 686 526 684 c 2,37,-1
 609 675 l 1,38,39
 637 675 637 675 648 678.5 c 128,-1,40
 659 682 659 682 669 692 c 1,41,42
 676 697 676 697 680 697 c 0,43,44
 689 697 689 697 701 685 c 1,45,46
 679 662 679 662 658.5 607.5 c 128,-1,47
 638 553 638 553 638 515 c 2,48,-1
 638 513 l 2,49,50
 638 505 638 505 627 499 c 128,-1,51
 616 493 616 493 602.5 493 c 128,-1,52
 589 493 589 493 589 502 c 1,0,1
EndSplineSet
EndChar

StartChar: D
Encoding: 68 68 39
Width: 690
GlyphClass: 2
Flags: W
LayerCount: 2
Fore
SplineSet
357 671 m 0,0,1
 674 671 674 671 674 362 c 0,2,3
 674 287 674 287 640.5 216.5 c 128,-1,4
 607 146 607 146 554 96 c 128,-1,5
 501 46 501 46 433 16 c 128,-1,6
 365 -14 365 -14 306 -14 c 128,-1,7
 247 -14 247 -14 164.5 0.5 c 128,-1,8
 82 15 82 15 42 15 c 128,-1,9
 2 15 2 15 -37 4 c 1,10,11
 -37 16 -37 16 -24 28 c 128,-1,12
 -11 40 -11 40 11 44 c 0,13,14
 45 50 45 50 68.5 85.5 c 128,-1,15
 92 121 92 121 110 207 c 2,16,-1
 196 618 l 1,17,18
 132 616 132 616 57 579 c 1,19,20
 52 584 52 584 51.5 597 c 128,-1,21
 51 610 51 610 78.5 627 c 128,-1,22
 106 644 106 644 178.5 657.5 c 128,-1,23
 251 671 251 671 357 671 c 0,0,1
339 51 m 0,24,25
 425 51 425 51 498 135 c 128,-1,26
 571 219 571 219 571 343 c 0,27,28
 571 631 571 631 332 631 c 0,29,30
 303 631 303 631 293 585 c 0,31,32
 277 514 277 514 257.5 416 c 128,-1,33
 238 318 238 318 228 273.5 c 128,-1,34
 218 229 218 229 203.5 177 c 128,-1,35
 189 125 189 125 174 101.5 c 128,-1,36
 159 78 159 78 139 68 c 1,37,-1
 138 65 l 1,38,39
 151 69 151 69 176 69 c 128,-1,40
 201 69 201 69 250.5 60 c 128,-1,41
 300 51 300 51 339 51 c 0,24,25
EndSplineSet
EndChar

StartChar: E
Encoding: 69 69 40
Width: 584
GlyphClass: 2
Flags: W
LayerCount: 2
Fore
SplineSet
463 -37 m 1,0,-1
 452 -38 l 1,1,2
 434 -38 434 -38 434 -24 c 0,3,4
 434 -13 434 -13 444 13 c 1,5,6
 374 -14 374 -14 306 -14 c 128,-1,7
 238 -14 238 -14 157.5 0.5 c 128,-1,8
 77 15 77 15 37 15 c 128,-1,9
 -3 15 -3 15 -43 4 c 1,10,11
 -43 15 -43 15 -28.5 27.5 c 128,-1,12
 -14 40 -14 40 14.5 45 c 128,-1,13
 43 50 43 50 69 85.5 c 128,-1,14
 95 121 95 121 119 207 c 2,15,-1
 236 618 l 1,16,17
 170 616 170 616 93 579 c 1,18,19
 88 584 88 584 88.5 597 c 128,-1,20
 89 610 89 610 116.5 627 c 128,-1,21
 144 644 144 644 217 657.5 c 128,-1,22
 290 671 290 671 396 671 c 2,23,-1
 505 670 l 2,24,25
 553 670 553 670 584 671 c 0,26,27
 585 671 585 671 586 678.5 c 128,-1,28
 587 686 587 686 592.5 693.5 c 128,-1,29
 598 701 598 701 609 701 c 128,-1,30
 620 701 620 701 620 694 c 128,-1,31
 620 687 620 687 603 629 c 128,-1,32
 586 571 586 571 586 542 c 0,33,34
 586 532 586 532 570 532 c 128,-1,35
 554 532 554 532 554 540 c 2,36,-1
 555 568 l 2,37,38
 555 589 555 589 548 602 c 0,39,40
 534 631 534 631 369 631 c 0,41,42
 339 631 339 631 326 585 c 2,43,-1
 264 360 l 1,44,45
 268 359 268 359 320.5 359 c 128,-1,46
 373 359 373 359 449 366 c 1,47,48
 471 423 471 423 476 427.5 c 128,-1,49
 481 432 481 432 494 432 c 128,-1,50
 507 432 507 432 507 426 c 0,51,52
 507 413 507 413 494 382.5 c 128,-1,53
 481 352 481 352 472.5 326 c 128,-1,54
 464 300 464 300 461 263 c 0,55,56
 459 240 459 240 437 239 c 0,57,58
 425 239 425 239 425 246 c 0,59,60
 425 258 425 258 428 303 c 1,61,62
 368 318 368 318 251 318 c 1,63,64
 247 305 247 305 234 256.5 c 128,-1,65
 221 208 221 208 210.5 177 c 128,-1,66
 200 146 200 146 179.5 111 c 128,-1,67
 159 76 159 76 134 64 c 1,68,-1
 133 61 l 1,69,70
 146 65 146 65 171 65 c 128,-1,71
 196 65 196 65 253.5 56 c 128,-1,72
 311 47 311 47 350 47 c 0,73,74
 422 47 422 47 467 81 c 1,75,-1
 492 131 l 1,76,77
 492 135 492 135 499 138.5 c 128,-1,78
 506 142 506 142 515 142 c 128,-1,79
 524 142 524 142 525 134 c 1,80,-1
 463 -37 l 1,0,-1
EndSplineSet
EndChar

StartChar: F
Encoding: 70 70 41
Width: 544
GlyphClass: 2
Flags: W
LayerCount: 2
Fore
SplineSet
358 671 m 2,0,-1
 467 670 l 2,1,2
 515 670 515 670 546 671 c 0,3,4
 547 671 547 671 548 678 c 0,5,6
 549 701 549 701 568 701 c 0,7,8
 571 701 571 701 575.5 697.5 c 128,-1,9
 580 694 580 694 580 689.5 c 128,-1,10
 580 685 580 685 568.5 632.5 c 128,-1,11
 557 580 557 580 557 552 c 2,12,-1
 557 542 l 2,13,14
 557 532 557 532 541 532 c 128,-1,15
 525 532 525 532 525 540 c 0,16,17
 524 549 524 549 523 569 c 128,-1,18
 522 589 522 589 514 602 c 0,19,20
 498 631 498 631 333 631 c 0,21,22
 304 631 304 631 294 585 c 2,23,-1
 246 349 l 1,24,25
 250 348 250 348 302.5 348 c 128,-1,26
 355 348 355 348 431 355 c 1,27,28
 449 412 449 412 456 418 c 0,29,30
 458 421 458 421 471 421 c 128,-1,31
 484 421 484 421 485 413 c 1,32,33
 485 404 485 404 474.5 372.5 c 128,-1,34
 464 341 464 341 457 316.5 c 128,-1,35
 450 292 450 292 450 268 c 128,-1,36
 450 244 450 244 449 240 c 0,37,38
 446 228 446 228 431 228 c 128,-1,39
 416 228 416 228 415 235 c 2,40,-1
 414 254 l 1,41,42
 414 274 414 274 414 292 c 1,43,44
 353 307 353 307 236 307 c 1,45,46
 235 304 235 304 226.5 269 c 128,-1,47
 218 234 218 234 214 219 c 128,-1,48
 210 204 210 204 199 170.5 c 128,-1,49
 188 137 188 137 179 118 c 0,50,51
 153 62 153 62 125 39 c 1,52,53
 148 39 148 39 187 34 c 128,-1,54
 226 29 226 29 250 29 c 1,55,56
 247 18 247 18 234.5 7 c 128,-1,57
 222 -4 222 -4 208 -4 c 1,58,-1
 48 15 l 1,59,60
 8 15 8 15 -32 4 c 1,61,62
 -32 16 -32 16 -19 28 c 128,-1,63
 -6 40 -6 40 16 44 c 0,64,65
 50 50 50 50 73 85.5 c 128,-1,66
 96 121 96 121 115 207 c 2,67,-1
 201 618 l 1,68,69
 137 616 137 616 63 579 c 1,70,71
 57 586 57 586 57 594 c 0,72,73
 57 636 57 636 190 659 c 0,74,75
 260 671 260 671 358 671 c 2,0,-1
EndSplineSet
EndChar

StartChar: G
Encoding: 71 71 42
Width: 666
GlyphClass: 2
Flags: W
LayerCount: 2
Fore
SplineSet
553 88 m 1,0,-1
 552 26 l 1,1,2
 552 -38 552 -38 528 -82.5 c 128,-1,3
 504 -127 504 -127 479 -127 c 0,4,5
 469 -127 469 -127 463 -117 c 1,6,7
 509 -31 509 -31 509 13 c 0,8,9
 509 21 509 21 501 21 c 0,10,11
 496 21 496 21 474 13 c 0,12,13
 410 -11 410 -11 333 -11 c 0,14,15
 188 -11 188 -11 98 56.5 c 128,-1,16
 8 124 8 124 8 243 c 0,17,18
 8 340 8 340 56 428 c 0,19,20
 149 598 149 598 346 662 c 0,21,22
 417 686 417 686 485 686 c 0,23,24
 505 686 505 686 525 684 c 2,25,-1
 608 675 l 1,26,27
 636 675 636 675 647 678.5 c 128,-1,28
 658 682 658 682 666.5 689.5 c 128,-1,29
 675 697 675 697 679 697 c 0,30,31
 689 697 689 697 700 685 c 1,32,33
 678 661 678 661 656 606 c 128,-1,34
 634 551 634 551 634 513 c 0,35,36
 634 498 634 498 609.5 494 c 128,-1,37
 585 490 585 490 585 502 c 0,38,39
 585 504 585 504 592.5 524 c 128,-1,40
 600 544 600 544 600 569 c 128,-1,41
 600 594 600 594 564.5 612 c 128,-1,42
 529 630 529 630 463 630 c 0,43,44
 362 630 362 630 284.5 576.5 c 128,-1,45
 207 523 207 523 168.5 440.5 c 128,-1,46
 130 358 130 358 130 262 c 128,-1,47
 130 166 130 166 192.5 104.5 c 128,-1,48
 255 43 255 43 345 43 c 0,49,50
 402 43 402 43 469 72 c 1,51,52
 490 129 490 129 493 206 c 2,53,-1
 494 233 l 2,54,55
 494 253 494 253 474 253 c 2,56,-1
 430 253 l 2,57,58
 419 253 419 253 386 250 c 0,59,60
 376 250 376 250 376 273.5 c 128,-1,61
 376 297 376 297 389 297 c 0,62,63
 475 291 475 291 538 291 c 128,-1,64
 601 291 601 291 658 300 c 0,65,66
 663 300 663 300 663 292 c 128,-1,67
 663 284 663 284 656 273 c 128,-1,68
 649 262 649 262 640 262 c 0,69,70
 614 262 614 262 596 253 c 1,71,72
 553 235 553 235 553 88 c 1,0,-1
EndSplineSet
EndChar

StartChar: H
Encoding: 72 72 43
Width: 738
GlyphClass: 2
Flags: W
LayerCount: 2
Fore
SplineSet
551 311 m 1,0,1
 505 314 505 314 433 314 c 2,2,-1
 330 314 l 1,3,-1
 248 313 l 1,4,5
 217 195 217 195 189.5 132 c 128,-1,6
 162 69 162 69 128 41 c 1,7,-1
 251 33 l 2,8,9
 256 32 256 32 256 14 c 128,-1,10
 256 -4 256 -4 231 -4 c 1,11,12
 72 9 72 9 27 9 c 128,-1,13
 -18 9 -18 9 -31 4 c 1,14,15
 -31 9 -31 9 -30.5 15.5 c 128,-1,16
 -30 22 -30 22 -18.5 33 c 128,-1,17
 -7 44 -7 44 15 44 c 0,18,19
 16 44 16 44 17 44 c 0,20,21
 50 44 50 44 72.5 80.5 c 128,-1,22
 95 117 95 117 117 207 c 2,23,-1
 219 623 l 1,24,25
 153 621 153 621 78 584 c 1,26,27
 72 592 72 592 72 598 c 0,28,29
 74 632 74 632 142 648.5 c 128,-1,30
 210 665 210 665 286 665 c 1,31,-1
 397 670 l 2,32,33
 414 670 414 670 422 667 c 1,34,35
 422 641 422 641 410 636 c 1,36,37
 402 634 402 634 396 634 c 0,38,39
 381 636 381 636 344 636 c 0,40,41
 333 636 333 636 327 624.5 c 128,-1,42
 321 613 321 613 314 586 c 0,43,44
 279 434 279 434 258 354 c 1,45,46
 300 352 300 352 377 352 c 128,-1,47
 454 352 454 352 564 364 c 1,48,-1
 629 631 l 1,49,50
 618 634 618 634 603 634 c 128,-1,51
 588 634 588 634 569 630 c 1,52,53
 562 639 562 639 562 649.5 c 128,-1,54
 562 660 562 660 567.5 664 c 128,-1,55
 573 668 573 668 588 668 c 2,56,-1
 688 663 l 1,57,58
 733 663 733 663 756.5 667 c 128,-1,59
 780 671 780 671 786 671 c 128,-1,60
 792 671 792 671 799 667.5 c 128,-1,61
 806 664 806 664 806 654 c 128,-1,62
 806 644 806 644 799 636 c 1,63,-1
 753 636 l 2,64,65
 742 636 742 636 736 624.5 c 128,-1,66
 730 613 730 613 723 586 c 0,67,68
 656 296 656 296 621.5 188 c 128,-1,69
 587 80 587 80 540 41 c 1,70,71
 563 41 563 41 602 36 c 128,-1,72
 641 31 641 31 665 31 c 1,73,74
 662 18 662 18 648.5 7 c 128,-1,75
 635 -4 635 -4 621 -4 c 1,76,-1
 457 15 l 1,77,78
 426 15 426 15 388 4 c 1,79,80
 388 8 388 8 389 14 c 128,-1,81
 390 20 390 20 402 31.5 c 128,-1,82
 414 43 414 43 442 47 c 128,-1,83
 470 51 470 51 487 82.5 c 128,-1,84
 504 114 504 114 526 207 c 2,85,-1
 551 311 l 1,0,1
EndSplineSet
EndChar

StartChar: I
Encoding: 73 73 44
Width: 394
GlyphClass: 2
Flags: W
LayerCount: 2
Fore
SplineSet
412 671 m 0,0,1
 433 671 433 671 433 658 c 0,2,3
 433 652 433 652 427.5 645.5 c 128,-1,4
 422 639 422 639 420 636 c 1,5,-1
 362 636 l 2,6,7
 351 636 351 636 345 624.5 c 128,-1,8
 339 613 339 613 332 586 c 0,9,10
 265 296 265 296 230.5 188 c 128,-1,11
 196 80 196 80 149 41 c 1,12,13
 172 41 172 41 211 36 c 128,-1,14
 250 31 250 31 274 31 c 1,15,16
 271 18 271 18 257.5 7 c 128,-1,17
 244 -4 244 -4 230 -4 c 1,18,-1
 66 15 l 1,19,20
 26 15 26 15 -13 4 c 1,21,22
 -13 8 -13 8 -12 14 c 128,-1,23
 -11 20 -11 20 1 31.5 c 128,-1,24
 13 43 13 43 35 46 c 0,25,26
 71 51 71 51 94 85.5 c 128,-1,27
 117 120 117 120 138 207 c 2,28,-1
 240 623 l 1,29,30
 174 621 174 621 99 584 c 1,31,32
 93 592 93 592 93 598 c 0,33,34
 95 635 95 635 182.5 653 c 128,-1,35
 270 671 270 671 412 671 c 0,0,1
EndSplineSet
EndChar

StartChar: J
Encoding: 74 74 45
Width: 348
GlyphClass: 2
Flags: W
LayerCount: 2
Fore
SplineSet
-180 -273 m 0,0,1
 -228 -273 -228 -273 -228 -228 c 0,2,3
 -228 -190 -228 -190 -194 -173 c 1,4,5
 -153 -208 -153 -208 -94 -208 c 0,6,7
 -32 -208 -32 -208 18 -75 c 0,8,9
 77 85 77 85 220 623 c 1,10,11
 154 621 154 621 79 584 c 1,12,13
 73 592 73 592 73 598 c 0,14,15
 76 635 76 635 162.5 653 c 128,-1,16
 249 671 249 671 390 671 c 0,17,18
 411 671 411 671 411 658 c 0,19,20
 411 652 411 652 405.5 645.5 c 128,-1,21
 400 639 400 639 398 636 c 1,22,-1
 340 636 l 2,23,24
 329 636 329 636 323 625 c 128,-1,25
 317 614 317 614 309 586 c 0,26,27
 191 141 191 141 151 31 c 0,28,29
 109 -86 109 -86 41 -158 c 1,30,31
 -65 -273 -65 -273 -180 -273 c 0,0,1
EndSplineSet
EndChar

StartChar: K
Encoding: 75 75 46
Width: 664
GlyphClass: 2
Flags: W
LayerCount: 2
Fore
SplineSet
512 657 m 2,0,-1
 568 656 l 1,1,2
 627 656 627 656 678 664 c 1,3,4
 692 664 692 664 692 649 c 1,5,-1
 688 630 l 1,6,7
 642 630 642 630 611 603 c 1,8,9
 512 508 512 508 367 383 c 1,10,-1
 367 380 l 1,11,12
 402 358 402 358 433 313.5 c 128,-1,13
 464 269 464 269 484.5 221.5 c 128,-1,14
 505 174 505 174 521.5 129 c 128,-1,15
 538 84 538 84 549 55.5 c 128,-1,16
 560 27 560 27 566 27 c 2,17,-1
 639 33 l 1,18,19
 645 20 645 20 645 12 c 0,20,21
 645 -2 645 -2 500 -2 c 2,22,-1
 481 -2 l 2,23,24
 469 -2 469 -2 443 65.5 c 128,-1,25
 417 133 417 133 376 213.5 c 128,-1,26
 335 294 335 294 289 319 c 1,27,28
 282 313 282 313 234 274 c 1,29,30
 182 87 182 87 125 41 c 1,31,32
 148 41 148 41 187 36 c 128,-1,33
 226 31 226 31 250 31 c 1,34,35
 247 18 247 18 233.5 7 c 128,-1,36
 220 -4 220 -4 206 -4 c 1,37,-1
 42 15 l 1,38,39
 2 15 2 15 -37 4 c 1,40,41
 -37 8 -37 8 -36 14 c 128,-1,42
 -35 20 -35 20 -23 31.5 c 128,-1,43
 -11 43 -11 43 11 46 c 0,44,45
 47 51 47 51 69.5 85.5 c 128,-1,46
 92 120 92 120 114 207 c 0,47,48
 219 629 219 629 215 629 c 0,49,50
 178 629 178 629 123 613 c 1,51,52
 120 621 120 621 120 626 c 0,53,54
 120 663 120 663 277 663 c 1,55,-1
 335 666 l 1,56,57
 376 666 376 666 376 656 c 1,58,-1
 370 638 l 1,59,60
 361 639 361 639 345.5 639 c 128,-1,61
 330 639 330 639 324 627.5 c 128,-1,62
 318 616 318 616 311 589 c 0,63,64
 270 413 270 413 252 342 c 1,65,66
 263 351 263 351 303.5 382 c 128,-1,67
 344 413 344 413 362 427.5 c 128,-1,68
 380 442 380 442 412 469 c 0,69,70
 470 517 470 517 524 577 c 0,71,72
 549 605 549 605 549 620 c 0,73,74
 549 630 549 630 526 630 c 0,75,76
 520 630 520 630 496 627 c 1,77,78
 496 657 496 657 512 657 c 2,0,-1
EndSplineSet
EndChar

StartChar: L
Encoding: 76 76 47
Width: 558
GlyphClass: 2
Flags: W
LayerCount: 2
Fore
SplineSet
440 -24 m 0,0,1
 440 -18 440 -18 452 13 c 1,2,3
 386 -14 386 -14 318 -14 c 128,-1,4
 250 -14 250 -14 172 0.5 c 128,-1,5
 94 15 94 15 54 15 c 128,-1,6
 14 15 14 15 -26 4 c 1,7,8
 -26 15 -26 15 -10.5 27.5 c 128,-1,9
 5 40 5 40 28 44 c 0,10,11
 99 56 99 56 151 210 c 2,12,-1
 287 620 l 1,13,14
 229 616 229 616 149 579 c 1,15,16
 145 583 145 583 145 592.5 c 128,-1,17
 145 602 145 602 157 613 c 128,-1,18
 169 624 169 624 195 635 c 128,-1,19
 221 646 221 646 258 654 c 0,20,21
 343 674 343 674 469 674 c 1,22,23
 468 642 468 642 445 642 c 0,24,25
 399 642 399 642 390 615 c 2,26,-1
 286 318 l 2,27,28
 284 313 284 313 272.5 279.5 c 128,-1,29
 261 246 261 246 255 229.5 c 128,-1,30
 249 213 249 213 235 181 c 128,-1,31
 221 149 221 149 209 130 c 0,32,33
 177 79 177 79 145 65 c 1,34,-1
 144 62 l 1,35,36
 176 73 176 73 197.5 73 c 128,-1,37
 219 73 219 73 262 62.5 c 128,-1,38
 305 52 305 52 343 52 c 0,39,40
 435 52 435 52 483 85 c 1,41,-1
 509 138 l 1,42,43
 509 142 509 142 516.5 145.5 c 128,-1,44
 524 149 524 149 533 149 c 128,-1,45
 542 149 542 149 542 141 c 1,46,-1
 468 -37 l 1,47,48
 440 -37 440 -37 440 -24 c 0,0,1
EndSplineSet
EndChar

StartChar: M
Encoding: 77 77 48
Width: 897
GlyphClass: 2
Flags: W
LayerCount: 2
Fore
SplineSet
687 1 m 2,0,-1
 546 -2 l 2,1,2
 541 -2 541 -2 541 6 c 0,3,4
 544 32 544 32 559 32 c 2,5,-1
 600 32 l 2,6,7
 632 32 632 32 639 57 c 0,8,9
 649 89 649 89 703.5 304.5 c 128,-1,10
 758 520 758 520 768 559 c 1,11,12
 561 266 561 266 397 74 c 0,13,14
 390 65 390 65 377.5 66 c 128,-1,15
 365 67 365 67 360 77 c 1,16,17
 382 108 382 108 392 123 c 1,18,19
 334 318 334 318 307 533 c 1,20,21
 296 500 296 500 223 317 c 1,22,23
 134 88 134 88 131 53 c 0,24,25
 130 33 130 33 149 33 c 2,26,-1
 206 33 l 2,27,28
 215 33 215 33 214.5 24 c 128,-1,29
 214 15 214 15 207.5 7.5 c 128,-1,30
 201 0 201 0 193 0 c 2,31,-1
 86 2 l 1,32,-1
 -25 -2 l 2,33,34
 -31 -2 -31 -2 -30 15 c 128,-1,35
 -29 32 -29 32 -16 32 c 2,36,-1
 15 32 l 2,37,38
 45 32 45 32 60 57 c 0,39,40
 63 61 63 61 80 102 c 0,41,42
 109 173 109 173 170 319 c 1,43,44
 277 566 277 566 277 621 c 0,45,46
 277 645 277 645 263 650.5 c 128,-1,47
 249 656 249 656 219 656 c 128,-1,48
 189 656 189 656 189 673 c 1,49,-1
 192 691 l 1,50,51
 380 681 380 681 405 676 c 1,52,53
 399 636 399 636 399 581.5 c 128,-1,54
 399 527 399 527 416 433 c 128,-1,55
 433 339 433 339 450 276 c 2,56,-1
 467 213 l 1,57,58
 738 569 738 569 779 678 c 1,59,60
 800 677 800 677 842 677 c 128,-1,61
 884 677 884 677 968 682 c 0,62,63
 972 683 972 683 973.5 679.5 c 128,-1,64
 975 676 975 676 975 671 c 2,65,-1
 974 658 l 1,66,67
 974 639 974 639 962 639 c 2,68,-1
 918 641 l 1,69,70
 888 641 888 641 877 608 c 0,71,72
 829 470 829 470 792.5 307.5 c 128,-1,73
 756 145 756 145 756 61 c 0,74,75
 756 43 756 43 758 38 c 128,-1,76
 760 33 760 33 769 33 c 2,77,-1
 818 33 l 2,78,79
 828 33 828 33 828 23 c 1,80,81
 827 15 827 15 822 7.5 c 128,-1,82
 817 0 817 0 810 0 c 0,83,84
 719 1 719 1 687 1 c 2,0,-1
EndSplineSet
EndChar

StartChar: N
Encoding: 78 78 49
Width: 747
GlyphClass: 2
Flags: W
LayerCount: 2
Fore
SplineSet
232 35 m 1,0,1
 213 -3 213 -3 185 -3 c 1,2,-1
 50 15 l 1,3,4
 11 15 11 15 -29 4 c 1,5,6
 -29 16 -29 16 -14.5 30.5 c 128,-1,7
 0 45 0 45 28 50 c 128,-1,8
 56 55 56 55 79.5 88 c 128,-1,9
 103 121 103 121 124 207 c 1,10,-1
 229 585 l 1,11,12
 215 606 215 606 198.5 616.5 c 128,-1,13
 182 627 182 627 171 628.5 c 128,-1,14
 160 630 160 630 137.5 630 c 128,-1,15
 115 630 115 630 84.5 617.5 c 128,-1,16
 54 605 54 605 44.5 605 c 128,-1,17
 35 605 35 605 35 618 c 1,18,19
 44 625 44 625 59.5 636 c 128,-1,20
 75 647 75 647 117 665.5 c 128,-1,21
 159 684 159 684 197.5 684 c 128,-1,22
 236 684 236 684 268.5 662.5 c 128,-1,23
 301 641 301 641 330 595.5 c 128,-1,24
 359 550 359 550 384 500 c 0,25,26
 469 334 469 334 545 222 c 1,27,28
 581 396 581 396 608.5 476 c 128,-1,29
 636 556 636 556 660.5 596.5 c 128,-1,30
 685 637 685 637 719.5 663 c 128,-1,31
 754 689 754 689 798.5 689 c 128,-1,32
 843 689 843 689 843 654 c 0,33,34
 843 627 843 627 822 606 c 1,35,36
 761 606 761 606 714.5 551.5 c 128,-1,37
 668 497 668 497 644 417 c 0,38,39
 597 260 597 260 597 138 c 0,40,41
 597 86 597 86 619 29 c 2,42,-1
 626 11 l 1,43,44
 626 -3 626 -3 615 -3 c 0,45,46
 562 -3 562 -3 270 513 c 1,47,48
 213 276 213 276 181 181 c 128,-1,49
 149 86 149 86 101 45 c 1,50,51
 124 45 124 45 166 40 c 128,-1,52
 208 35 208 35 232 35 c 1,0,1
EndSplineSet
EndChar

StartChar: O
Encoding: 79 79 50
Width: 632
GlyphClass: 2
Flags: W
LayerCount: 2
Fore
SplineSet
199.5 610.5 m 128,-1,1
 289 684 289 684 398 684 c 128,-1,2
 507 684 507 684 565.5 613.5 c 128,-1,3
 624 543 624 543 624 437.5 c 128,-1,4
 624 332 624 332 578 231.5 c 128,-1,5
 532 131 532 131 441.5 61 c 128,-1,6
 351 -9 351 -9 238.5 -9 c 128,-1,7
 126 -9 126 -9 70 56.5 c 128,-1,8
 14 122 14 122 14 224.5 c 128,-1,9
 14 327 14 327 62 432 c 128,-1,0
 110 537 110 537 199.5 610.5 c 128,-1,1
484.5 570.5 m 128,-1,11
 451 625 451 625 379.5 625 c 128,-1,12
 308 625 308 625 246 565 c 128,-1,13
 184 505 184 505 153 420 c 128,-1,14
 122 335 122 335 122 247.5 c 128,-1,15
 122 160 122 160 158.5 103 c 128,-1,16
 195 46 195 46 267 46 c 128,-1,17
 339 46 339 46 398 107.5 c 128,-1,18
 457 169 457 169 487.5 256.5 c 128,-1,19
 518 344 518 344 518 430 c 128,-1,10
 518 516 518 516 484.5 570.5 c 128,-1,11
EndSplineSet
EndChar

StartChar: P
Encoding: 80 80 51
Width: 554
GlyphClass: 2
Flags: W
LayerCount: 2
Fore
SplineSet
214 -4 m 1,0,1
 64 11 64 11 14.5 11 c 128,-1,2
 -35 11 -35 11 -35 6 c 1,3,4
 -35 38 -35 38 13 41 c 0,5,6
 45 43 45 43 66 81.5 c 128,-1,7
 87 120 87 120 99 207 c 2,8,-1
 157 618 l 1,9,10
 93 616 93 616 22 579 c 1,11,12
 16 584 16 584 15.5 598 c 128,-1,13
 15 612 15 612 41.5 628.5 c 128,-1,14
 68 645 68 645 139 658 c 128,-1,15
 210 671 210 671 314 671 c 0,16,17
 367 671 367 671 420 651 c 128,-1,18
 473 631 473 631 514 584.5 c 128,-1,19
 555 538 555 538 555 477 c 0,20,21
 555 402 555 402 482 350.5 c 128,-1,22
 409 299 409 299 310 299 c 0,23,24
 262 299 262 299 219 312 c 1,25,26
 218 308 218 308 210.5 267 c 128,-1,27
 203 226 203 226 197 202.5 c 128,-1,28
 191 179 191 179 180 142 c 0,29,30
 160 70 160 70 125 39 c 1,31,32
 148 39 148 39 185.5 34.5 c 128,-1,33
 223 30 223 30 250 29 c 1,34,35
 247 16 247 16 236.5 6 c 128,-1,36
 226 -4 226 -4 214 -4 c 1,0,1
291 341 m 0,37,38
 355 341 355 341 400 380.5 c 128,-1,39
 445 420 445 420 445 483.5 c 128,-1,40
 445 547 445 547 399 589 c 128,-1,41
 353 631 353 631 292 631 c 0,42,43
 263 631 263 631 256 585 c 2,44,-1
 224 353 l 1,45,46
 257 341 257 341 291 341 c 0,37,38
EndSplineSet
EndChar

StartChar: Q
Encoding: 81 81 52
Width: 676
GlyphClass: 2
Flags: W
LayerCount: 2
Fore
SplineSet
300 119 m 0,0,1
 341 119 341 119 367 137 c 1,2,3
 378 137 378 137 378 128 c 0,4,5
 378 111 378 111 341 89.5 c 128,-1,6
 304 68 304 68 253 68 c 0,7,8
 162 68 162 68 110.5 130 c 128,-1,9
 59 192 59 192 59 280.5 c 128,-1,10
 59 369 59 369 106.5 462 c 128,-1,11
 154 555 154 555 241 619.5 c 128,-1,12
 328 684 328 684 428 684 c 0,13,14
 549 684 549 684 607.5 619.5 c 128,-1,15
 666 555 666 555 666 448 c 0,16,17
 666 375 666 375 621.5 277 c 128,-1,18
 577 179 577 179 508 92 c 128,-1,19
 439 5 439 5 344.5 -56 c 128,-1,20
 250 -117 250 -117 160 -117 c 0,21,22
 132 -117 132 -117 114.5 -102.5 c 128,-1,23
 97 -88 97 -88 97 -68 c 0,24,25
 97 -34 97 -34 133.5 -9.5 c 128,-1,26
 170 15 170 15 237.5 15 c 128,-1,27
 305 15 305 15 379.5 -15.5 c 128,-1,28
 454 -46 454 -46 521.5 -89.5 c 128,-1,29
 589 -133 589 -133 654 -176 c 1,30,31
 808 -281 808 -281 891 -281 c 0,32,33
 914 -281 914 -281 928.5 -270 c 128,-1,34
 943 -259 943 -259 943 -241.5 c 128,-1,35
 943 -224 943 -224 914 -205 c 128,-1,36
 885 -186 885 -186 851 -186 c 1,37,38
 854 -166 854 -166 873.5 -149 c 128,-1,39
 893 -132 893 -132 920.5 -132 c 128,-1,40
 948 -132 948 -132 968.5 -149.5 c 128,-1,41
 989 -167 989 -167 989 -198 c 0,42,43
 989 -257 989 -257 948.5 -300 c 128,-1,44
 908 -343 908 -343 840.5 -343 c 128,-1,45
 773 -343 773 -343 702 -310.5 c 128,-1,46
 631 -278 631 -278 571 -232 c 128,-1,47
 511 -186 511 -186 453 -140 c 0,48,49
 313 -29 313 -29 218 -29 c 0,50,51
 169 -29 169 -29 169 -48 c 0,52,53
 169 -60 169 -60 188 -60 c 0,54,55
 273 -60 273 -60 346.5 -6.5 c 128,-1,56
 420 47 420 47 464.5 126 c 128,-1,57
 509 205 509 205 534 288.5 c 128,-1,58
 559 372 559 372 559 440 c 0,59,60
 559 633 559 633 424 633 c 0,61,62
 351 633 351 633 291.5 580.5 c 128,-1,63
 232 528 232 528 201.5 451.5 c 128,-1,64
 171 375 171 375 171 298 c 128,-1,65
 171 221 171 221 204 170 c 128,-1,66
 237 119 237 119 300 119 c 0,0,1
EndSplineSet
EndChar

StartChar: R
Encoding: 82 82 53
Width: 628
GlyphClass: 2
Flags: W
LayerCount: 2
Fore
SplineSet
527.5 69 m 128,-1,1
 562 29 562 29 583.5 29 c 128,-1,2
 605 29 605 29 629 45 c 1,3,4
 638 42 638 42 638 34 c 0,5,6
 638 20 638 20 602.5 4 c 128,-1,7
 567 -12 567 -12 533 -12 c 128,-1,8
 499 -12 499 -12 474 3 c 128,-1,9
 449 18 449 18 425 50 c 0,10,11
 386 102 386 102 354 160 c 1,12,-1
 272 303 l 1,13,14
 253 306 253 306 237 312 c 1,15,16
 235 306 235 306 227.5 275 c 128,-1,17
 220 244 220 244 215 224.5 c 128,-1,18
 210 205 210 205 200 173 c 128,-1,19
 190 141 190 141 180 119 c 0,20,21
 156 62 156 62 129 39 c 1,22,23
 142 39 142 39 176 35 c 128,-1,24
 210 31 210 31 239 30 c 1,25,26
 236 18 236 18 224.5 7.5 c 128,-1,27
 213 -3 213 -3 201 -3 c 1,28,29
 61 11 61 11 15.5 11 c 128,-1,30
 -30 11 -30 11 -32 6 c 1,31,32
 -32 22 -32 22 -17.5 31 c 128,-1,33
 -3 40 -3 40 17 41 c 0,34,35
 82 46 82 46 111 207 c 1,36,37
 177 518 177 518 186 617 c 1,38,39
 125 615 125 615 52 578 c 1,40,41
 48 584 48 584 48.5 598 c 128,-1,42
 49 612 49 612 76 628.5 c 128,-1,43
 103 645 103 645 175 658 c 128,-1,44
 247 671 247 671 340.5 671 c 128,-1,45
 434 671 434 671 507.5 621.5 c 128,-1,46
 581 572 581 572 581 492.5 c 128,-1,47
 581 413 581 413 516.5 361 c 128,-1,48
 452 309 452 309 361 300 c 1,49,50
 394 269 394 269 422 225 c 2,51,-1
 468 150 l 2,52,0
 493 109 493 109 527.5 69 c 128,-1,1
310 341 m 0,53,54
 375 341 375 341 421.5 381.5 c 128,-1,55
 468 422 468 422 472 489 c 1,56,57
 472 552 472 552 429 591.5 c 128,-1,58
 386 631 386 631 327 631 c 0,59,60
 298 631 298 631 288 585 c 1,61,-1
 244 353 l 1,62,63
 277 341 277 341 310 341 c 0,53,54
EndSplineSet
EndChar

StartChar: S
Encoding: 83 83 54
Width: 500
GlyphClass: 2
Flags: W
LayerCount: 2
Fore
SplineSet
476 532 m 256,0,1
 476 525 476 525 462 525 c 128,-1,2
 448 525 448 525 448 534 c 0,3,4
 448 537 448 537 448 548.5 c 128,-1,5
 448 560 448 560 443 577 c 1,6,7
 406 640 406 640 343 640 c 0,8,9
 297 640 297 640 259 610 c 128,-1,10
 221 580 221 580 221 532 c 0,11,12
 221 477 221 477 298 406 c 0,13,14
 330 377 330 377 361.5 344.5 c 128,-1,15
 393 312 393 312 415.5 268 c 128,-1,16
 438 224 438 224 438 176 c 0,17,18
 438 84 438 84 374 35.5 c 128,-1,19
 310 -13 310 -13 218.5 -13 c 128,-1,20
 127 -13 127 -13 62 44 c 1,21,22
 49 20 49 20 45 3 c 1,23,24
 41 -3 41 -3 31 -3 c 0,25,26
 17 -3 17 -3 17 9 c 0,27,28
 17 17 17 17 24 30 c 0,29,30
 55 90 55 90 64 117 c 128,-1,31
 73 144 73 144 74 146.5 c 128,-1,32
 75 149 75 149 78 155.5 c 128,-1,33
 81 162 81 162 83.5 164 c 128,-1,34
 86 166 86 166 90 169 c 0,35,36
 97 174 97 174 113 167 c 1,37,38
 102 132 102 132 98 115 c 1,39,40
 117 80 117 80 153.5 56 c 128,-1,41
 190 32 190 32 232 32 c 128,-1,42
 274 32 274 32 308.5 60 c 128,-1,43
 343 88 343 88 343 137 c 0,44,45
 343 191 343 191 270 264 c 0,46,47
 239 295 239 295 209 327.5 c 128,-1,48
 179 360 179 360 157.5 402.5 c 128,-1,49
 136 445 136 445 136 489 c 0,50,51
 136 582 136 582 202 636.5 c 128,-1,52
 268 691 268 691 357 691 c 0,53,54
 419 691 419 691 468 665 c 1,55,-1
 477 687 l 2,56,57
 480 693 480 693 484 693 c 0,58,59
 490 693 490 693 502 682 c 1,60,61
 476 604 476 604 476 547 c 0,62,63
 476 539 476 539 476 532 c 256,0,1
EndSplineSet
EndChar

StartChar: T
Encoding: 84 84 55
Width: 582
GlyphClass: 2
Flags: W
LayerCount: 2
Fore
SplineSet
234 1 m 2,0,-1
 93 -2 l 2,1,2
 87 -2 87 -2 87 8 c 0,3,4
 86 32 86 32 100 32 c 2,5,-1
 143 32 l 2,6,7
 168 32 168 32 177.5 41.5 c 128,-1,8
 187 51 187 51 192 78 c 2,9,-1
 287 535 l 2,10,11
 296 577 296 577 295.5 598.5 c 128,-1,12
 295 620 295 620 205 620 c 0,13,14
 146 620 146 620 117 605 c 128,-1,15
 88 590 88 590 88 554 c 128,-1,16
 88 518 88 518 105 482 c 1,17,18
 76 448 76 448 42 448 c 0,19,20
 2 448 2 448 2 500.5 c 128,-1,21
 2 553 2 553 64.5 610 c 128,-1,22
 127 667 127 667 221 667 c 0,23,24
 329 667 329 667 440 658 c 128,-1,25
 551 649 551 649 556 649 c 0,26,27
 617 649 617 649 634 687 c 0,28,29
 639 698 639 698 646.5 698 c 128,-1,30
 654 698 654 698 654 694 c 0,31,32
 654 674 654 674 634 634.5 c 128,-1,33
 614 595 614 595 597 595 c 0,34,35
 527 595 527 595 405 607 c 1,36,-1
 304 121 l 2,37,38
 298 88 298 88 298 60.5 c 128,-1,39
 298 33 298 33 309 33 c 2,40,-1
 367 33 l 2,41,42
 371 33 371 33 371 27 c 0,43,44
 371 1 371 1 362 0 c 1,45,46
 273 1 273 1 234 1 c 2,0,-1
EndSplineSet
EndChar

StartChar: U
Encoding: 85 85 56
Width: 644
GlyphClass: 2
Flags: W
LayerCount: 2
Fore
SplineSet
619 671 m 1,0,-1
 720 674 l 2,1,2
 724 674 724 674 724 668 c 2,3,-1
 724 665 l 2,4,5
 724 654 724 654 719 647 c 128,-1,6
 714 640 714 640 710 640 c 2,7,-1
 682 640 l 2,8,9
 660 640 660 640 633 538 c 0,10,11
 571 300 571 300 512 192 c 0,12,13
 479 133 479 133 440.5 87 c 128,-1,14
 402 41 402 41 346 13 c 128,-1,15
 290 -15 290 -15 224 -15 c 0,16,17
 139 -15 139 -15 82 37.5 c 128,-1,18
 25 90 25 90 25 178 c 1,19,20
 30 325 30 325 88 540 c 0,21,22
 107 608 107 608 107 635 c 1,23,-1
 3 639 l 1,24,25
 3 677 3 677 29 677 c 1,26,27
 136 672 136 672 176.5 672 c 128,-1,28
 217 672 217 672 258.5 676 c 128,-1,29
 300 680 300 680 309 680 c 0,30,31
 313 680 313 680 313 671 c 128,-1,32
 313 662 313 662 308 651.5 c 128,-1,33
 303 641 303 641 296 641 c 2,34,-1
 259 641 l 2,35,36
 234 641 234 641 223.5 631.5 c 128,-1,37
 213 622 213 622 208 595 c 1,38,39
 178 495 178 495 155.5 380 c 128,-1,40
 133 265 133 265 133 197 c 1,41,42
 137 127 137 127 169 90.5 c 128,-1,43
 201 54 201 54 258 54 c 128,-1,44
 315 54 315 54 364 88.5 c 128,-1,45
 413 123 413 123 444 179 c 128,-1,46
 475 235 475 235 498 299 c 128,-1,47
 521 363 521 363 532 430 c 0,48,49
 555 560 555 560 555 619 c 1,50,51
 554 639 554 639 545 639 c 2,52,-1
 482 637 l 1,53,-1
 484 648 l 1,54,55
 487 673 487 673 496 673 c 2,56,-1
 619 671 l 1,0,-1
EndSplineSet
EndChar

StartChar: V
Encoding: 86 86 57
Width: 500
GlyphClass: 2
Flags: W
LayerCount: 2
Fore
SplineSet
233 645 m 2,0,1
 213 645 213 645 203 637 c 1,2,3
 158 532 158 532 158 350.5 c 128,-1,4
 158 169 158 169 174 74 c 1,5,-1
 180 74 l 1,6,7
 271 178 271 178 362 337 c 128,-1,8
 453 496 453 496 453 603 c 0,9,10
 453 634 453 634 430 634 c 1,11,-1
 390 626 l 1,12,13
 390 647 390 647 410 655 c 0,14,15
 459 675 459 675 517 675 c 0,16,17
 545 675 545 675 545 654 c 0,18,19
 545 569 545 569 456.5 404.5 c 128,-1,20
 368 240 368 240 262 110.5 c 128,-1,21
 156 -19 156 -19 110 -19 c 0,22,23
 87 -19 87 -19 74.5 62 c 128,-1,24
 62 143 62 143 62 228.5 c 128,-1,25
 62 314 62 314 65 370 c 128,-1,26
 68 426 68 426 71.5 469 c 128,-1,27
 75 512 75 512 79 546.5 c 128,-1,28
 83 581 83 581 86 601.5 c 128,-1,29
 89 622 89 622 89 624 c 0,30,31
 89 635 89 635 79 635 c 2,32,-1
 -2 628 l 1,33,34
 1 643 1 643 14.5 656.5 c 128,-1,35
 28 670 28 670 42 670 c 0,36,37
 184 670 184 670 262 681 c 1,38,-1
 238 645 l 1,39,-1
 233 645 l 2,0,1
EndSplineSet
EndChar

StartChar: W
Encoding: 87 87 58
Width: 764
GlyphClass: 2
Flags: W
LayerCount: 2
Fore
SplineSet
149 305 m 1,0,-1
 151 91 l 1,1,-1
 155 91 l 1,2,3
 243 186 243 186 331 360 c 128,-1,4
 419 534 419 534 419 610 c 0,5,6
 419 626 419 626 400 626 c 2,7,-1
 366 626 l 2,8,9
 360 626 360 626 360 634 c 0,10,11
 363 658 363 658 375 658 c 0,12,13
 431 662 431 662 475 662 c 1,14,-1
 539 667 l 1,15,16
 478 458 478 458 478 99 c 1,17,-1
 483 99 l 1,18,19
 562 189 562 189 621 283 c 128,-1,20
 680 377 680 377 709 449 c 0,21,22
 759 572 759 572 766 634 c 1,23,24
 766 644 766 644 760 644 c 2,25,-1
 702 644 l 2,26,27
 694 644 694 644 694 651.5 c 128,-1,28
 694 659 694 659 699.5 667.5 c 128,-1,29
 705 676 705 676 710 676 c 0,30,31
 800 674 800 674 829 674 c 0,32,33
 847 674 847 674 847 650 c 1,34,35
 810 534 810 534 756.5 424 c 128,-1,36
 703 314 703 314 651 237 c 128,-1,37
 599 160 599 160 549 101 c 128,-1,38
 499 42 499 42 464.5 13 c 128,-1,39
 430 -16 430 -16 416 -16 c 0,40,41
 387 -16 387 -16 387 167.5 c 128,-1,42
 387 351 387 351 415 442 c 1,43,44
 355 303 355 303 288.5 199.5 c 128,-1,45
 222 96 222 96 122 -8 c 0,46,47
 113 -17 113 -17 95.5 -17 c 128,-1,48
 78 -17 78 -17 75 -8 c 0,49,50
 69 19 69 19 69 65.5 c 128,-1,51
 69 112 69 112 75.5 285.5 c 128,-1,52
 82 459 82 459 82 609 c 0,53,54
 82 622 82 622 77 626 c 128,-1,55
 72 630 72 630 59 629 c 2,56,-1
 -8 622 l 1,57,58
 2 666 2 666 24 666 c 1,59,60
 89 671 89 671 120 671 c 1,61,-1
 262 679 l 2,62,63
 267 679 267 679 267 670 c 128,-1,64
 267 661 267 661 255.5 652 c 128,-1,65
 244 643 244 643 231 642 c 1,66,67
 183 642 183 642 166 551 c 128,-1,68
 149 460 149 460 149 305 c 1,0,-1
EndSplineSet
EndChar

StartChar: X
Encoding: 88 88 59
Width: 710
GlyphClass: 2
Flags: W
LayerCount: 2
Fore
SplineSet
629 671 m 1,0,-1
 741 678 l 1,1,2
 759 678 759 678 759 660 c 128,-1,3
 759 642 759 642 746 642 c 2,4,-1
 718 642 l 2,5,6
 701 642 701 642 685.5 632.5 c 128,-1,7
 670 623 670 623 644 597 c 128,-1,8
 618 571 618 571 545.5 504 c 128,-1,9
 473 437 473 437 403 368 c 1,10,11
 406 358 406 358 414.5 319 c 128,-1,12
 423 280 423 280 429 259.5 c 128,-1,13
 435 239 435 239 446 202.5 c 128,-1,14
 457 166 457 166 469 145 c 128,-1,15
 481 124 481 124 498 100 c 0,16,17
 530 56 530 56 584 56 c 0,18,19
 607 56 607 56 627.5 74 c 128,-1,20
 648 92 648 92 650.5 92 c 128,-1,21
 653 92 653 92 655.5 89.5 c 128,-1,22
 658 87 658 87 658 84 c 0,23,24
 658 59 658 59 614.5 22.5 c 128,-1,25
 571 -14 571 -14 512 -14 c 0,26,27
 405 -14 405 -14 345 242 c 0,28,29
 341 259 341 259 332 302 c 1,30,31
 233 221 233 221 163 139 c 128,-1,32
 93 57 93 57 93 35 c 0,33,34
 93 30 93 30 98 30 c 2,35,-1
 160 30 l 2,36,37
 168 30 168 30 168 23 c 0,38,39
 168 19 168 19 167 17 c 0,40,41
 162 -5 162 -5 147 -5 c 0,42,43
 27 1 27 1 26 1 c 2,44,-1
 -85 -4 l 2,45,46
 -92 -4 -92 -4 -92 3.5 c 128,-1,47
 -92 11 -92 11 -86.5 20 c 128,-1,48
 -81 29 -81 29 -73 29 c 2,49,-1
 -54 29 l 2,50,51
 -41 29 -41 29 -22 40 c 128,-1,52
 -3 51 -3 51 9 63 c 0,53,54
 169 223 169 223 323 343 c 1,55,56
 272 615 272 615 151 615 c 0,57,58
 128 615 128 615 103 599.5 c 128,-1,59
 78 584 78 584 77 584 c 0,60,61
 72 584 72 584 72 592.5 c 128,-1,62
 72 601 72 601 92.5 622.5 c 128,-1,63
 113 644 113 644 152 664.5 c 128,-1,64
 191 685 191 685 225 685 c 128,-1,65
 259 685 259 685 280 676 c 128,-1,66
 301 667 301 667 315 649.5 c 128,-1,67
 329 632 329 632 340 604 c 0,68,69
 362 549 362 549 380 458 c 0,70,71
 381 455 381 455 382 452 c 0,72,73
 384 448 384 448 392 411 c 1,74,75
 399 418 399 418 410.5 429 c 128,-1,76
 422 440 422 440 451.5 470 c 128,-1,77
 481 500 481 500 504 525 c 0,78,79
 563 591 563 591 563 616 c 0,80,81
 563 645 563 645 532 645 c 128,-1,82
 501 645 501 645 501 654 c 0,83,84
 501 678 501 678 514 678 c 2,85,-1
 629 671 l 1,0,-1
EndSplineSet
EndChar

StartChar: Y
Encoding: 89 89 60
Width: 534
GlyphClass: 2
Flags: W
LayerCount: 2
Fore
SplineSet
57 -3 m 2,0,1
 53 -3 53 -3 53.5 1.5 c 128,-1,2
 54 6 54 6 54.5 10 c 128,-1,3
 55 14 55 14 60 23 c 128,-1,4
 65 32 65 32 72 32 c 2,5,-1
 94 32 l 2,6,7
 138 32 138 32 173.5 149.5 c 128,-1,8
 209 267 209 267 209 386.5 c 128,-1,9
 209 506 209 506 181 574.5 c 128,-1,10
 153 643 153 643 94 643 c 0,11,12
 73 643 73 643 53.5 633 c 128,-1,13
 34 623 34 623 25 613 c 2,14,-1
 16 603 l 1,15,16
 3 606 3 606 3 615 c 0,17,18
 3 634 3 634 45 661 c 128,-1,19
 87 688 87 688 129 688 c 0,20,21
 324 688 324 688 324 447 c 0,22,23
 324 411 324 411 319 366 c 1,24,25
 415 459 415 459 460 527.5 c 128,-1,26
 505 596 505 596 513 635 c 1,27,28
 513 641 513 641 506 641 c 2,29,-1
 478 641 l 2,30,31
 473 641 473 641 473.5 648.5 c 128,-1,32
 474 656 474 656 480 664.5 c 128,-1,33
 486 673 486 673 492 673 c 2,34,-1
 604 672 l 1,35,-1
 672 676 l 1,36,37
 665 642 665 642 642 642 c 0,38,39
 613 642 613 642 599 624 c 0,40,41
 492 489 492 489 309 302 c 1,42,43
 285 174 285 174 248 68 c 1,44,-1
 235 33 l 1,45,-1
 327 39 l 1,46,47
 315 0 315 0 301 0 c 0,48,49
 189 1 189 1 166 1 c 2,50,-1
 57 -3 l 2,0,1
EndSplineSet
EndChar

StartChar: Z
Encoding: 90 90 61
Width: 574
GlyphClass: 2
Flags: W
LayerCount: 2
Fore
SplineSet
275 69.5 m 128,-1,1
 386 54 386 54 426 54 c 128,-1,2
 466 54 466 54 484 64.5 c 128,-1,3
 502 75 502 75 530 112 c 0,4,5
 535 120 535 120 540 120 c 0,6,7
 550 120 550 120 556 108 c 1,8,9
 488 -22 488 -22 362 -22 c 0,10,11
 311 -22 311 -22 173.5 -3.5 c 128,-1,12
 36 15 36 15 -4 15 c 128,-1,13
 -44 15 -44 15 -84 4 c 1,14,15
 -80 25 -80 25 -45 40 c 0,16,17
 -27 48 -27 48 49 134 c 0,18,19
 128 222 128 222 473 629 c 1,20,21
 429 619 429 619 248 619 c 0,22,23
 149 619 149 619 118 597 c 1,24,25
 104 579 104 579 104 509 c 1,26,27
 93 505 93 505 83 505 c 0,28,29
 65 505 65 505 65 522 c 1,30,31
 80 616 80 616 80 682 c 0,32,33
 80 691 80 691 84.5 695.5 c 128,-1,34
 89 700 89 700 98 701 c 1,35,36
 103 681 103 681 115.5 675 c 128,-1,37
 128 669 128 669 175 669 c 2,38,-1
 518 669 l 2,39,40
 569 669 569 669 588 675 c 128,-1,41
 607 681 607 681 609 681 c 0,42,43
 616 681 616 681 616 676 c 0,44,45
 616 669 616 669 601 654 c 1,46,47
 262 252 262 252 194 174 c 128,-1,48
 126 96 126 96 102 84 c 1,49,-1
 101 81 l 1,50,51
 114 85 114 85 139 85 c 128,-1,0
 164 85 164 85 275 69.5 c 128,-1,1
EndSplineSet
EndChar

StartChar: bracketleft
Encoding: 91 91 62
Width: 508
GlyphClass: 2
Flags: W
LayerCount: 2
Fore
SplineSet
365 -397 m 2,0,-1
 -2 -397 l 1,1,-1
 270 886 l 1,2,-1
 638 886 l 2,3,4
 645 886 645 886 645 878 c 128,-1,5
 645 870 645 870 644 864 c 0,6,7
 638 840 638 840 628 840 c 2,8,-1
 334 840 l 1,9,-1
 81 -352 l 1,10,-1
 375 -352 l 2,11,12
 385 -352 385 -352 381 -375 c 1,13,14
 375 -397 375 -397 365 -397 c 2,0,-1
EndSplineSet
EndChar

StartChar: backslash
Encoding: 92 92 63
Width: 324
GlyphClass: 2
Flags: W
LayerCount: 2
Fore
SplineSet
1 749 m 1,0,1
 18 766 18 766 32 766 c 128,-1,2
 46 766 46 766 54 746 c 1,3,-1
 336 -120 l 1,4,5
 315 -137 315 -137 301.5 -137 c 128,-1,6
 288 -137 288 -137 281 -113 c 2,7,-1
 1 749 l 1,0,1
EndSplineSet
EndChar

StartChar: bracketright
Encoding: 93 93 64
Width: 508
GlyphClass: 2
Flags: W
LayerCount: 2
Fore
SplineSet
-122 -397 m 2,0,1
 -130 -397 -130 -397 -130 -387 c 0,2,3
 -130 -382 -130 -382 -128 -375 c 0,4,5
 -124 -352 -124 -352 -112 -352 c 2,6,-1
 181 -352 l 1,7,-1
 434 840 l 1,8,-1
 140 840 l 2,9,10
 128 840 128 840 133 863 c 128,-1,11
 138 886 138 886 150 886 c 2,12,-1
 518 886 l 1,13,-1
 245 -397 l 1,14,-1
 -122 -397 l 2,0,1
EndSplineSet
EndChar

StartChar: asciicircum
Encoding: 94 94 65
Width: 520
GlyphClass: 2
Flags: W
LayerCount: 2
Fore
SplineSet
107 251 m 0,0,1
 98 251 98 251 88 254 c 1,2,3
 303 547 303 547 350.5 616.5 c 128,-1,4
 398 686 398 686 407 688 c 1,5,6
 418 688 418 688 438 610 c 1,7,-1
 527 296 l 1,8,9
 532 286 532 286 532 279 c 128,-1,10
 532 272 532 272 531 269 c 0,11,12
 528 253 528 253 484 251 c 1,13,-1
 385 589 l 1,14,-1
 383 589 l 1,15,-1
 163 284 l 1,16,17
 135 251 135 251 107 251 c 0,0,1
EndSplineSet
EndChar

StartChar: underscore
Encoding: 95 95 66
Width: 500
GlyphClass: 2
Flags: W
LayerCount: 2
Fore
SplineSet
458 -76 m 2,0,1
 499 -76 499 -76 499 -103 c 0,2,3
 499 -111 499 -111 496 -122 c 1,4,-1
 28 -122 l 2,5,6
 12 -122 12 -122 5 -112 c 128,-1,7
 -2 -102 -2 -102 -1 -92 c 2,8,-1
 0 -81 l 1,9,-1
 458 -76 l 2,0,1
EndSplineSet
EndChar

StartChar: grave
Encoding: 96 96 67
Width: 204
GlyphClass: 2
Flags: W
LayerCount: 2
Fore
SplineSet
5 676 m 0,0,1
 5 692 5 692 14.5 701.5 c 128,-1,2
 24 711 24 711 45.5 711 c 128,-1,3
 67 711 67 711 83.5 690 c 128,-1,4
 100 669 100 669 132 608.5 c 128,-1,5
 164 548 164 548 185 520.5 c 128,-1,6
 206 493 206 493 206 489 c 0,7,8
 204 480 204 480 194.5 480 c 128,-1,9
 185 480 185 480 182 483 c 0,10,11
 5 626 5 626 5 676 c 0,0,1
EndSplineSet
EndChar

StartChar: a
Encoding: 97 97 68
Width: 486
GlyphClass: 2
Flags: W
LayerCount: 2
Fore
SplineSet
499 468 m 128,-1,1
 509 468 509 468 509 457 c 0,2,3
 509 450 509 450 502.5 439.5 c 128,-1,4
 496 429 496 429 479 403.5 c 128,-1,5
 462 378 462 378 434.5 327 c 128,-1,6
 407 276 407 276 372 188 c 128,-1,7
 337 100 337 100 337 83 c 128,-1,8
 337 66 337 66 348 66 c 0,9,10
 363 66 363 66 410.5 112 c 128,-1,11
 458 158 458 158 466.5 158 c 128,-1,12
 475 158 475 158 474.5 148 c 128,-1,13
 474 138 474 138 441.5 100 c 128,-1,14
 409 62 409 62 359.5 24.5 c 128,-1,15
 310 -13 310 -13 275 -13 c 0,16,17
 260 -13 260 -13 250.5 -4.5 c 128,-1,18
 241 4 241 4 241 20 c 128,-1,19
 241 36 241 36 255.5 74.5 c 128,-1,20
 270 113 270 113 294 168 c 128,-1,21
 318 223 318 223 325 241 c 1,22,23
 127 -15 127 -15 56 -15 c 0,24,25
 32 -15 32 -15 16 1 c 128,-1,26
 0 17 0 17 0 50.5 c 128,-1,27
 0 84 0 84 24 149.5 c 128,-1,28
 48 215 48 215 86.5 283 c 128,-1,29
 125 351 125 351 184 400.5 c 128,-1,30
 243 450 243 450 303 450 c 0,31,32
 359 450 359 450 396 417 c 0,33,34
 409 406 409 406 413 406 c 0,35,36
 433 406 433 406 461 437 c 128,-1,0
 489 468 489 468 499 468 c 128,-1,1
329 387.5 m 128,-1,38
 300 408 300 408 268 408 c 128,-1,39
 236 408 236 408 191 347 c 128,-1,40
 146 286 146 286 116.5 212.5 c 128,-1,41
 87 139 87 139 87 101 c 128,-1,42
 87 63 87 63 110 63 c 0,43,44
 138 63 138 63 234.5 171.5 c 128,-1,45
 331 280 331 280 367 347 c 1,46,37
 358 367 358 367 329 387.5 c 128,-1,38
EndSplineSet
EndChar

StartChar: b
Encoding: 98 98 69
Width: 460
GlyphClass: 2
Flags: W
LayerCount: 2
Fore
SplineSet
37 63 m 0,0,1
 27 75 27 75 27 88.5 c 128,-1,2
 27 102 27 102 41 135 c 128,-1,3
 55 168 55 168 75.5 227.5 c 128,-1,4
 96 287 96 287 114 339.5 c 128,-1,5
 132 392 132 392 155 452.5 c 128,-1,6
 178 513 178 513 204.5 561 c 128,-1,7
 231 609 231 609 263 650 c 0,8,9
 331 735 331 735 424 735 c 0,10,11
 463 735 463 735 465 708 c 0,12,13
 465 696 465 696 454.5 686 c 128,-1,14
 444 676 444 676 425 672 c 1,15,16
 405 683 405 683 387 683 c 0,17,18
 338 683 338 683 261.5 530.5 c 128,-1,19
 185 378 185 378 141 202 c 1,20,21
 313 452 313 452 385 452 c 0,22,23
 410 452 410 452 428 433.5 c 128,-1,24
 446 415 446 415 446 382 c 128,-1,25
 446 349 446 349 434.5 301.5 c 128,-1,26
 423 254 423 254 400 199.5 c 128,-1,27
 377 145 377 145 346 97.5 c 128,-1,28
 315 50 315 50 270.5 18.5 c 128,-1,29
 226 -13 226 -13 178 -13 c 0,30,31
 104 -13 104 -13 37 63 c 0,0,1
146.5 49.5 m 128,-1,33
 177 29 177 29 208.5 29 c 128,-1,34
 240 29 240 29 278.5 86.5 c 128,-1,35
 317 144 317 144 340.5 214.5 c 128,-1,36
 364 285 364 285 364 329.5 c 128,-1,37
 364 374 364 374 336.5 374 c 128,-1,38
 309 374 309 374 222 265.5 c 128,-1,39
 135 157 135 157 105 90 c 1,40,32
 116 70 116 70 146.5 49.5 c 128,-1,33
EndSplineSet
EndChar

StartChar: c
Encoding: 99 99 70
Width: 335
GlyphClass: 2
Flags: W
LayerCount: 2
Fore
SplineSet
241 152 m 0,0,1
 252 152 252 152 252 141 c 128,-1,2
 252 130 252 130 225 93.5 c 128,-1,3
 198 57 198 57 152.5 21 c 128,-1,4
 107 -15 107 -15 68 -15 c 0,5,6
 44 -15 44 -15 25.5 6 c 128,-1,7
 7 27 7 27 7 63.5 c 128,-1,8
 7 100 7 100 26 162.5 c 128,-1,9
 45 225 45 225 78.5 290.5 c 128,-1,10
 112 356 112 356 167 403 c 128,-1,11
 222 450 222 450 283 450 c 0,12,13
 378 450 378 450 378 395 c 0,14,15
 378 379 378 379 362 367 c 128,-1,16
 346 355 346 355 323 354 c 1,17,18
 298 408 298 408 252 408 c 0,19,20
 216 408 216 408 177 351.5 c 128,-1,21
 138 295 138 295 114.5 224.5 c 128,-1,22
 91 154 91 154 91 122 c 0,23,24
 91 63 91 63 116.5 63 c 128,-1,25
 142 63 142 63 169.5 85.5 c 128,-1,26
 197 108 197 108 216.5 130 c 128,-1,27
 236 152 236 152 241 152 c 0,0,1
EndSplineSet
EndChar

StartChar: d
Encoding: 100 100 71
Width: 506
GlyphClass: 2
Flags: W
LayerCount: 2
Fore
SplineSet
680 672 m 1,0,1
 658 683 658 683 638 683 c 128,-1,2
 618 683 618 683 583 639 c 128,-1,3
 548 595 548 595 512 528 c 0,4,5
 405 326 405 326 353 156 c 0,6,7
 335 97 335 97 335 81.5 c 128,-1,8
 335 66 335 66 347 66 c 0,9,10
 362 66 362 66 407 112 c 128,-1,11
 452 158 452 158 461 158 c 128,-1,12
 470 158 470 158 470 148 c 128,-1,13
 470 138 470 138 439 100 c 128,-1,14
 408 62 408 62 360.5 24.5 c 128,-1,15
 313 -13 313 -13 278 -13 c 0,16,17
 262 -13 262 -13 252 -4 c 128,-1,18
 242 5 242 5 242 22 c 0,19,20
 242 57 242 57 298 194 c 1,21,-1
 317 239 l 1,22,-1
 315 241 l 1,23,24
 131 -15 131 -15 59 -15 c 0,25,26
 34 -15 34 -15 17 2.5 c 128,-1,27
 0 20 0 20 0 51 c 128,-1,28
 0 82 0 82 12.5 130 c 128,-1,29
 25 178 25 178 50 233 c 128,-1,30
 75 288 75 288 108 336.5 c 128,-1,31
 141 385 141 385 187 417.5 c 128,-1,32
 233 450 233 450 286 450 c 128,-1,33
 339 450 339 450 384 410 c 1,34,35
 525 735 525 735 679 735 c 0,36,37
 721 735 721 735 721 708 c 0,38,39
 721 696 721 696 710 686 c 128,-1,40
 699 676 699 676 680 672 c 1,0,1
311.5 387.5 m 128,-1,42
 282 408 282 408 249.5 408 c 128,-1,43
 217 408 217 408 176 349 c 128,-1,44
 135 290 135 290 109.5 217.5 c 128,-1,45
 84 145 84 145 84 104 c 128,-1,46
 84 63 84 63 109 63 c 0,47,48
 137 63 137 63 228 171.5 c 128,-1,49
 319 280 319 280 351 347 c 1,50,41
 341 367 341 367 311.5 387.5 c 128,-1,42
EndSplineSet
EndChar

StartChar: e
Encoding: 101 101 72
Width: 336
GlyphClass: 2
Flags: W
LayerCount: 2
Fore
SplineSet
233 147 m 0,0,1
 243 147 243 147 243 136 c 0,2,3
 243 129 243 129 226.5 105.5 c 128,-1,4
 210 82 210 82 184.5 55 c 128,-1,5
 159 28 159 28 121.5 6.5 c 128,-1,6
 84 -15 84 -15 52.5 -15 c 128,-1,7
 21 -15 21 -15 5.5 4.5 c 128,-1,8
 -10 24 -10 24 -10 56 c 0,9,10
 -10 118 -10 118 28.5 208.5 c 128,-1,11
 67 299 67 299 138.5 374.5 c 128,-1,12
 210 450 210 450 286 450 c 0,13,14
 319 450 319 450 340.5 437.5 c 128,-1,15
 362 425 362 425 362 399 c 0,16,17
 362 354 362 354 273.5 294 c 128,-1,18
 185 234 185 234 98 207 c 1,19,20
 76 137 76 137 76 100 c 128,-1,21
 76 63 76 63 100 63 c 0,22,23
 154 63 154 63 220 139 c 0,24,25
 227 147 227 147 233 147 c 0,0,1
254 408 m 0,26,27
 219 408 219 408 179 357.5 c 128,-1,28
 139 307 139 307 110 236 c 1,29,30
 280 324 280 324 280 381 c 0,31,32
 280 408 280 408 254 408 c 0,26,27
EndSplineSet
EndChar

StartChar: f
Encoding: 102 102 73
Width: 288
GlyphClass: 2
Flags: W
LayerCount: 2
Fore
SplineSet
-135 -279 m 0,0,1
 -166 -279 -166 -279 -188 -261.5 c 128,-1,2
 -210 -244 -210 -244 -211 -219 c 0,3,4
 -211 -194 -211 -194 -185 -180 c 1,5,6
 -166 -197 -166 -197 -156 -204 c 0,7,8
 -129 -226 -129 -226 -99.5 -226 c 128,-1,9
 -70 -226 -70 -226 -43 -191.5 c 128,-1,10
 -16 -157 -16 -157 9.5 -88.5 c 128,-1,11
 35 -20 35 -20 56.5 50.5 c 128,-1,12
 78 121 78 121 109 224 c 128,-1,13
 140 327 140 327 166 399 c 1,14,-1
 85 399 l 2,15,16
 78 399 78 399 78 409 c 0,17,18
 78 432 78 432 91 432 c 0,19,20
 176 432 176 432 186 456 c 0,21,22
 244 602 244 602 305 668.5 c 128,-1,23
 366 735 366 735 460 735 c 0,24,25
 496 735 496 735 527.5 722 c 128,-1,26
 559 709 559 709 559 677 c 0,27,28
 559 656 559 656 545 642 c 128,-1,29
 531 628 531 628 505 625 c 1,30,31
 458 682 458 682 414 682 c 128,-1,32
 370 682 370 682 335 625 c 128,-1,33
 300 568 300 568 255 438 c 1,34,-1
 363 438 l 2,35,36
 369 438 369 438 371 426 c 1,37,38
 371 399 371 399 355 399 c 2,39,-1
 242 399 l 1,40,41
 228 362 228 362 202 280.5 c 128,-1,42
 176 199 176 199 154 132.5 c 128,-1,43
 132 66 132 66 98.5 -14.5 c 128,-1,44
 65 -95 65 -95 32.5 -149.5 c 128,-1,45
 0 -204 0 -204 -44 -241.5 c 128,-1,46
 -88 -279 -88 -279 -135 -279 c 0,0,1
EndSplineSet
EndChar

StartChar: g
Encoding: 103 103 74
Width: 364
GlyphClass: 2
Flags: W
LayerCount: 2
Fore
SplineSet
78 -24 m 2,0,-1
 90 -24 l 1,1,2
 21 29 21 29 21 66 c 0,3,4
 21 88 21 88 122 127 c 1,5,6
 95 134 95 134 68.5 164.5 c 128,-1,7
 42 195 42 195 42 243 c 0,8,9
 42 309 42 309 93.5 379.5 c 128,-1,10
 145 450 145 450 216.5 450 c 128,-1,11
 288 450 288 450 315 385 c 1,12,13
 325 444 325 444 355 487.5 c 128,-1,14
 385 531 385 531 429 531 c 0,15,16
 448 531 448 531 459 519.5 c 128,-1,17
 470 508 470 508 470 491 c 0,18,19
 470 458 470 458 438 441 c 1,20,21
 424 459 424 459 397.5 459 c 128,-1,22
 371 459 371 459 348.5 415.5 c 128,-1,23
 326 372 326 372 326 331.5 c 128,-1,24
 326 291 326 291 315.5 253.5 c 128,-1,25
 305 216 305 216 270.5 175.5 c 128,-1,26
 236 135 236 135 183 126 c 0,27,28
 157 122 157 122 126 108.5 c 128,-1,29
 95 95 95 95 95 79 c 0,30,31
 95 58 95 58 210 -14 c 0,32,33
 252 -40 252 -40 288 -78.5 c 128,-1,34
 324 -117 324 -117 324 -151 c 0,35,36
 324 -200 324 -200 258.5 -239.5 c 128,-1,37
 193 -279 193 -279 108.5 -279 c 128,-1,38
 24 -279 24 -279 -36 -238.5 c 128,-1,39
 -96 -198 -96 -198 -96 -138 c 0,40,41
 -96 -91 -96 -91 -38.5 -57.5 c 128,-1,42
 19 -24 19 -24 78 -24 c 2,0,-1
243 -173 m 0,43,44
 243 -156 243 -156 232 -143 c 128,-1,45
 221 -130 221 -130 214.5 -123 c 128,-1,46
 208 -116 208 -116 193.5 -104 c 128,-1,47
 179 -92 179 -92 172 -86 c 0,48,49
 141 -61 141 -61 122 -48 c 1,50,51
 106 -45 106 -45 90 -45 c 0,52,53
 44 -45 44 -45 13.5 -70 c 128,-1,54
 -17 -95 -17 -95 -17 -136 c 128,-1,55
 -17 -177 -17 -177 29 -209 c 128,-1,56
 75 -241 75 -241 136 -241 c 0,57,58
 243 -241 243 -241 243 -173 c 0,43,44
154 155 m 0,59,60
 186 155 186 155 210 192 c 1,61,62
 256 259 256 259 256 353 c 0,63,64
 256 419 256 419 216.5 419 c 128,-1,65
 177 419 177 419 144.5 350 c 128,-1,66
 112 281 112 281 112 218 c 128,-1,67
 112 155 112 155 154 155 c 0,59,60
EndSplineSet
EndChar

StartChar: h
Encoding: 104 104 75
Width: 446
GlyphClass: 2
Flags: W
LayerCount: 2
Fore
SplineSet
369 683 m 0,0,1
 333 683 333 683 283 590 c 128,-1,2
 233 497 233 497 192 386 c 128,-1,3
 151 275 151 275 138 232 c 1,4,-1
 140 232 l 1,5,6
 237 386 237 386 308 429 c 0,7,8
 344 450 344 450 378.5 450 c 128,-1,9
 413 450 413 450 427.5 432 c 128,-1,10
 442 414 442 414 442 386 c 128,-1,11
 442 358 442 358 408 284 c 128,-1,12
 374 210 374 210 339.5 145 c 128,-1,13
 305 80 305 80 305 68 c 128,-1,14
 305 56 305 56 316 56 c 128,-1,15
 327 56 327 56 339.5 63 c 128,-1,16
 352 70 352 70 359 76 c 128,-1,17
 366 82 366 82 380 96 c 2,18,-1
 395 111 l 1,19,20
 399 113 399 113 400 113 c 0,21,22
 410 113 410 113 410 100 c 0,23,24
 410 79 410 79 357 32 c 128,-1,25
 304 -15 304 -15 269 -15 c 0,26,27
 227 -15 227 -15 227 26 c 0,28,29
 227 62 227 62 287.5 196 c 128,-1,30
 348 330 348 330 348 354 c 128,-1,31
 348 378 348 378 326 378 c 0,32,33
 293 378 293 378 231 310 c 0,34,35
 159 230 159 230 82 43 c 0,36,37
 80 39 80 39 77.5 31.5 c 128,-1,38
 75 24 75 24 73 20 c 128,-1,39
 71 16 71 16 68.5 10 c 128,-1,40
 66 4 66 4 63.5 0.5 c 128,-1,41
 61 -3 61 -3 58 -6 c 0,42,43
 52 -13 52 -13 38 -13 c 128,-1,44
 24 -13 24 -13 7 -2 c 1,45,46
 39 158 39 158 85.5 295 c 128,-1,47
 132 432 132 432 174.5 519.5 c 128,-1,48
 217 607 217 607 278 671 c 128,-1,49
 339 735 339 735 403 735 c 0,50,51
 424 735 424 735 435.5 727 c 128,-1,52
 447 719 447 719 447 706 c 0,53,54
 447 680 447 680 409 672 c 1,55,56
 385 683 385 683 369 683 c 0,0,1
EndSplineSet
EndChar

StartChar: i
Encoding: 105 105 76
Width: 264
GlyphClass: 2
Flags: W
LayerCount: 2
Fore
SplineSet
235 478 m 0,0,1
 243 478 243 478 243 459.5 c 128,-1,2
 243 441 243 441 173 278 c 128,-1,3
 103 115 103 115 103 81 c 0,4,5
 103 66 103 66 113 66 c 0,6,7
 129 66 129 66 154.5 90.5 c 128,-1,8
 180 115 180 115 185 115 c 0,9,10
 195 115 195 115 195 105 c 128,-1,11
 195 95 195 95 174 68 c 128,-1,12
 153 41 153 41 115 14 c 128,-1,13
 77 -13 77 -13 43 -13 c 0,14,15
 29 -13 29 -13 19 -3.5 c 128,-1,16
 9 6 9 6 9 22 c 0,17,18
 9 60 9 60 70.5 206.5 c 128,-1,19
 132 353 132 353 132 360 c 1,20,21
 123 354 123 354 89 334.5 c 128,-1,22
 55 315 55 315 42 302 c 1,23,24
 26 304 26 304 26 317 c 128,-1,25
 26 330 26 330 56.5 350 c 128,-1,26
 87 370 87 370 139 404 c 128,-1,27
 191 438 191 438 225 472 c 0,28,29
 231 478 231 478 235 478 c 0,0,1
290 570.5 m 128,-1,31
 276 556 276 556 255 556 c 128,-1,32
 234 556 234 556 219 570 c 128,-1,33
 204 584 204 584 204 605.5 c 128,-1,34
 204 627 204 627 218.5 641.5 c 128,-1,35
 233 656 233 656 254.5 656 c 128,-1,36
 276 656 276 656 290 641.5 c 128,-1,37
 304 627 304 627 304 606 c 128,-1,30
 304 585 304 585 290 570.5 c 128,-1,31
EndSplineSet
EndChar

StartChar: j
Encoding: 106 106 77
Width: 252
GlyphClass: 2
Flags: W
LayerCount: 2
Fore
SplineSet
167 360 m 1,0,1
 95 324 95 324 73 302 c 1,2,3
 58 304 58 304 58 315 c 0,4,5
 58 329 58 329 88.5 349.5 c 128,-1,6
 119 370 119 370 171.5 404 c 128,-1,7
 224 438 224 438 245 458 c 128,-1,8
 266 478 266 478 270 478 c 0,9,10
 278 478 278 478 277.5 459.5 c 128,-1,11
 277 441 277 441 200 248.5 c 128,-1,12
 123 56 123 56 79 -32 c 0,13,14
 -44 -279 -44 -279 -164 -279 c 0,15,16
 -195 -279 -195 -279 -215.5 -262 c 128,-1,17
 -236 -245 -236 -245 -236 -221 c 128,-1,18
 -236 -197 -236 -197 -208 -180 c 1,19,20
 -177 -209 -177 -209 -159 -217.5 c 128,-1,21
 -141 -226 -141 -226 -125 -226 c 0,22,23
 -66 -226 -66 -226 -3 -82 c 0,24,25
 31 -4 31 -4 87.5 151 c 128,-1,26
 144 306 144 306 167 360 c 1,0,1
286 556 m 128,-1,28
 265 556 265 556 250.5 569.5 c 128,-1,29
 236 583 236 583 236 604 c 128,-1,30
 236 625 236 625 250.5 640.5 c 128,-1,31
 265 656 265 656 286.5 656 c 128,-1,32
 308 656 308 656 322 642 c 128,-1,33
 336 628 336 628 336 607.5 c 128,-1,34
 336 587 336 587 321.5 571.5 c 128,-1,27
 307 556 307 556 286 556 c 128,-1,28
EndSplineSet
EndChar

StartChar: k
Encoding: 107 107 78
Width: 492
GlyphClass: 2
Flags: W
LayerCount: 2
Fore
SplineSet
446 672 m 1,0,1
 424 683 424 683 403 683 c 128,-1,2
 382 683 382 683 345.5 639 c 128,-1,3
 309 595 309 595 270 524 c 0,4,5
 203 400 203 400 148 276 c 1,6,-1
 151 276 l 1,7,8
 214 370 214 370 276 410 c 128,-1,9
 338 450 338 450 385 450 c 0,10,11
 415 450 415 450 433.5 433 c 128,-1,12
 452 416 452 416 452 389 c 0,13,14
 452 339 452 339 388.5 293.5 c 128,-1,15
 325 248 325 248 201 228 c 1,16,17
 219 159 219 159 282 89 c 128,-1,18
 345 19 345 19 404.5 19 c 128,-1,19
 464 19 464 19 464 59 c 0,20,21
 464 69 464 69 457.5 76 c 128,-1,22
 451 83 451 83 437 83 c 128,-1,23
 423 83 423 83 410 70 c 1,24,25
 397 70 397 70 389.5 77.5 c 128,-1,26
 382 85 382 85 382 98.5 c 128,-1,27
 382 112 382 112 396 125 c 128,-1,28
 410 138 410 138 434.5 138 c 128,-1,29
 459 138 459 138 478 118.5 c 128,-1,30
 497 99 497 99 497 66.5 c 128,-1,31
 497 34 497 34 464.5 10.5 c 128,-1,32
 432 -13 432 -13 389 -13 c 0,33,34
 294 -13 294 -13 226.5 51 c 128,-1,35
 159 115 159 115 128 222 c 1,36,-1
 125 222 l 1,37,38
 118 206 118 206 94 137 c 128,-1,39
 70 68 70 68 50 27.5 c 128,-1,40
 30 -13 30 -13 12 -13 c 0,41,42
 -8 -13 -8 -13 -21 -4 c 1,43,44
 12 132 12 132 95 322 c 0,45,46
 142 430 142 430 194.5 520 c 128,-1,47
 247 610 247 610 315 672.5 c 128,-1,48
 383 735 383 735 447 735 c 0,49,50
 488 735 488 735 488 710 c 0,51,52
 488 680 488 680 446 672 c 1,0,1
331 375 m 0,53,54
 267 375 267 375 152 247 c 1,55,-1
 153 245 l 1,56,57
 256 257 256 257 309.5 287.5 c 128,-1,58
 363 318 363 318 365 348 c 1,59,60
 365 375 365 375 331 375 c 0,53,54
EndSplineSet
EndChar

StartChar: l
Encoding: 108 108 79
Width: 259
GlyphClass: 2
Flags: W
LayerCount: 2
Fore
SplineSet
363 683 m 0,0,1
 322 683 322 683 260 553.5 c 128,-1,2
 198 424 198 424 154 281 c 128,-1,3
 110 138 110 138 110 87 c 0,4,5
 110 66 110 66 124.5 66 c 128,-1,6
 139 66 139 66 180 112 c 128,-1,7
 221 158 221 158 230.5 158 c 128,-1,8
 240 158 240 158 240 147.5 c 128,-1,9
 240 137 240 137 213.5 99.5 c 128,-1,10
 187 62 187 62 143.5 24.5 c 128,-1,11
 100 -13 100 -13 64 -13 c 128,-1,12
 28 -13 28 -13 28 28 c 0,13,14
 28 59 28 59 44.5 137 c 128,-1,15
 61 215 61 215 94.5 317 c 128,-1,16
 128 419 128 419 171 512.5 c 128,-1,17
 214 606 214 606 274.5 670.5 c 128,-1,18
 335 735 335 735 397 735 c 0,19,20
 418 735 418 735 429.5 726.5 c 128,-1,21
 441 718 441 718 441 706 c 0,22,23
 441 680 441 680 403 672 c 1,24,25
 379 683 379 683 363 683 c 0,0,1
EndSplineSet
EndChar

StartChar: m
Encoding: 109 109 80
Width: 749
GlyphClass: 2
Flags: W
LayerCount: 2
Fore
SplineSet
270 -15 m 0,0,1
 249 -15 249 -15 236 -2 c 1,2,3
 250 33 250 33 290 118 c 0,4,5
 391 327 391 327 391 352.5 c 128,-1,6
 391 378 391 378 373 378 c 0,7,8
 342 378 342 378 276 310 c 0,9,10
 199 229 199 229 97 43 c 1,11,12
 74 -4 74 -4 62 -10 c 0,13,14
 57 -13 57 -13 44 -13 c 128,-1,15
 31 -13 31 -13 13 -2 c 1,16,17
 14 11 14 11 83.5 181 c 128,-1,18
 153 351 153 351 154 363 c 1,19,20
 151 361 151 361 109.5 338 c 128,-1,21
 68 315 68 315 53 302 c 1,22,23
 38 305 38 305 38 316.5 c 128,-1,24
 38 328 38 328 70 348.5 c 128,-1,25
 102 369 102 369 156.5 403.5 c 128,-1,26
 211 438 211 438 232.5 458 c 128,-1,27
 254 478 254 478 259.5 478 c 128,-1,28
 265 478 265 478 265 465.5 c 128,-1,29
 265 453 265 453 243 401 c 128,-1,30
 221 349 221 349 192.5 288 c 128,-1,31
 164 227 164 227 157 207 c 1,32,-1
 160 207 l 1,33,34
 165 213 165 213 197.5 256.5 c 128,-1,35
 230 300 230 300 251 324 c 128,-1,36
 272 348 272 348 306 382 c 0,37,38
 373 450 373 450 432 450 c 128,-1,39
 491 450 491 450 491 401 c 128,-1,40
 491 352 491 352 407 207 c 1,41,-1
 410 207 l 1,42,43
 415 213 415 213 447.5 256.5 c 128,-1,44
 480 300 480 300 501 324 c 128,-1,45
 522 348 522 348 556 382 c 0,46,47
 623 450 623 450 682 450 c 128,-1,48
 741 450 741 450 741 401 c 0,49,50
 741 368 741 368 695.5 291.5 c 128,-1,51
 650 215 650 215 604.5 146.5 c 128,-1,52
 559 78 559 78 558.5 67 c 128,-1,53
 558 56 558 56 567 56 c 128,-1,54
 576 56 576 56 585 59.5 c 128,-1,55
 594 63 594 63 604 70 c 128,-1,56
 614 77 614 77 620.5 82 c 128,-1,57
 627 87 627 87 638 98 c 0,58,59
 655 113 655 113 659 113 c 0,60,61
 669 113 669 113 669 101 c 1,62,63
 667 81 667 81 606.5 33 c 128,-1,64
 546 -15 546 -15 510 -15 c 128,-1,65
 474 -15 474 -15 474 17 c 0,66,67
 474 51 474 51 557.5 192.5 c 128,-1,68
 641 334 641 334 641 356 c 128,-1,69
 641 378 641 378 623 378 c 0,70,71
 590 378 590 378 532.5 316.5 c 128,-1,72
 475 255 475 255 424 181.5 c 128,-1,73
 373 108 373 108 327.5 46.5 c 128,-1,74
 282 -15 282 -15 270 -15 c 0,0,1
EndSplineSet
EndChar

StartChar: n
Encoding: 110 110 81
Width: 477
GlyphClass: 2
Flags: W
LayerCount: 2
Fore
SplineSet
218 478 m 0,0,1
 226 478 226 478 226 461.5 c 128,-1,2
 226 445 226 445 182 330 c 128,-1,3
 138 215 138 215 136 207 c 1,4,-1
 139 207 l 1,5,6
 142 211 142 211 163 241.5 c 128,-1,7
 184 272 184 272 195.5 286.5 c 128,-1,8
 207 301 207 301 230.5 330.5 c 128,-1,9
 254 360 254 360 272.5 377 c 128,-1,10
 291 394 291 394 315 413 c 0,11,12
 362 450 362 450 408 450 c 0,13,14
 467 450 467 450 467 394 c 0,15,16
 467 363 467 363 427 288 c 128,-1,17
 387 213 387 213 347 145.5 c 128,-1,18
 307 78 307 78 307 67 c 128,-1,19
 307 56 307 56 318 56 c 0,20,21
 340 56 340 56 370 84 c 0,22,23
 377 90 377 90 388 100 c 0,24,25
 402 113 402 113 405 113 c 0,26,27
 415 113 415 113 415 101 c 0,28,29
 415 81 415 81 358 33 c 128,-1,30
 301 -15 301 -15 263.5 -15 c 128,-1,31
 226 -15 226 -15 226 20.5 c 128,-1,32
 226 56 226 56 298 194.5 c 128,-1,33
 370 333 370 333 370 355.5 c 128,-1,34
 370 378 370 378 350 378 c 0,35,36
 317 378 317 378 252 310 c 1,37,38
 171 223 171 223 82 32 c 0,39,40
 78 24 78 24 76 20 c 2,41,-1
 71 10 l 2,42,43
 62 -8 62 -8 56 -10.5 c 128,-1,44
 50 -13 50 -13 37.5 -13 c 128,-1,45
 25 -13 25 -13 7 -2 c 1,46,47
 7 11 7 11 64.5 181 c 128,-1,48
 122 351 122 351 122 363 c 1,49,50
 114 358 114 358 92 346 c 0,51,52
 47 320 47 320 25 302 c 1,53,54
 9 304 9 304 9 316.5 c 128,-1,55
 9 329 9 329 39.5 349 c 128,-1,56
 70 369 70 369 121.5 403 c 128,-1,57
 173 437 173 437 208 472 c 0,58,59
 214 478 214 478 218 478 c 0,0,1
EndSplineSet
EndChar

StartChar: o
Encoding: 111 111 82
Width: 340
GlyphClass: 2
Flags: W
LayerCount: 2
Fore
SplineSet
205 16.5 m 128,-1,1
 162 -19 162 -19 116 -19 c 128,-1,2
 70 -19 70 -19 41.5 20 c 128,-1,3
 13 59 13 59 13 127 c 128,-1,4
 13 195 13 195 37.5 268.5 c 128,-1,5
 62 342 62 342 112.5 396 c 128,-1,6
 163 450 163 450 224 450 c 0,7,8
 270 450 270 450 298.5 414.5 c 128,-1,9
 327 379 327 379 327 324 c 128,-1,10
 327 269 327 269 313 213.5 c 128,-1,11
 299 158 299 158 273.5 105 c 128,-1,0
 248 52 248 52 205 16.5 c 128,-1,1
102 33 m 0,12,13
 143 33 143 33 187 95 c 128,-1,14
 231 157 231 157 256.5 229 c 128,-1,15
 282 301 282 301 282 342 c 0,16,17
 282 404 282 404 236 404 c 0,18,19
 196 404 196 404 152.5 341.5 c 128,-1,20
 109 279 109 279 83 205.5 c 128,-1,21
 57 132 57 132 57 98 c 128,-1,22
 57 64 57 64 70 48.5 c 128,-1,23
 83 33 83 33 102 33 c 0,12,13
EndSplineSet
EndChar

StartChar: p
Encoding: 112 112 83
Width: 500
GlyphClass: 2
Flags: W
LayerCount: 2
Fore
SplineSet
0 186 m 0,0,1
 0 235 0 235 167 343 c 1,2,3
 180 382 180 382 196 446.5 c 128,-1,4
 212 511 212 511 212 547 c 1,5,-1
 210 562 l 1,6,7
 215 563 215 563 231.5 563 c 128,-1,8
 248 563 248 563 263 548 c 128,-1,9
 278 533 278 533 278 504 c 128,-1,10
 278 475 278 475 251 384 c 1,11,12
 373 450 373 450 423 450 c 0,13,14
 488 450 488 450 488 365 c 0,15,16
 488 299 488 299 438 196 c 0,17,18
 413 143 413 143 380.5 96.5 c 128,-1,19
 348 50 348 50 300.5 18.5 c 128,-1,20
 253 -13 253 -13 209.5 -13 c 128,-1,21
 166 -13 166 -13 127 26 c 1,22,23
 64 -173 64 -173 64 -214 c 2,24,-1
 64 -216 l 1,25,26
 66 -241 66 -241 79 -241 c 2,27,-1
 151 -241 l 2,28,29
 162 -241 162 -241 162 -255.5 c 128,-1,30
 162 -270 162 -270 138 -270 c 0,31,32
 40 -269 40 -269 5 -269 c 2,33,-1
 -105 -270 l 2,34,35
 -114 -270 -114 -270 -114 -257 c 0,36,37
 -114 -241 -114 -241 -95 -241 c 2,38,-1
 -58 -241 l 2,39,40
 -40 -241 -40 -241 -34 -222 c 0,41,42
 -24 -193 -24 -193 43.5 -8.5 c 128,-1,43
 111 176 111 176 150 296 c 1,44,45
 48 227 48 227 14 166 c 1,46,-1
 12 166 l 1,47,48
 0 174 0 174 0 186 c 0,0,1
357 375 m 0,49,50
 310 375 310 375 238 339 c 1,51,52
 227 304 227 304 153 94 c 1,53,54
 166 75 166 75 195.5 52.5 c 128,-1,55
 225 30 225 30 242 30 c 0,56,57
 271 30 271 30 309.5 80.5 c 128,-1,58
 348 131 348 131 374.5 198 c 128,-1,59
 401 265 401 265 401 310 c 0,60,61
 401 375 401 375 357 375 c 0,49,50
EndSplineSet
EndChar

StartChar: q
Encoding: 113 113 84
Width: 476
GlyphClass: 2
Flags: W
LayerCount: 2
Fore
SplineSet
220 -158 m 0,0,1
 203 -204 203 -204 203 -222.5 c 128,-1,2
 203 -241 203 -241 216 -241 c 2,3,-1
 288 -241 l 2,4,5
 297 -241 297 -241 297 -252 c 0,6,7
 297 -270 297 -270 271 -270 c 0,8,9
 173 -269 173 -269 137 -269 c 2,10,-1
 27 -270 l 2,11,12
 20 -270 20 -270 20 -258 c 1,13,14
 22 -241 22 -241 41 -241 c 2,15,-1
 78 -241 l 2,16,17
 94 -241 94 -241 104 -222 c 0,18,19
 152 -120 152 -120 327 239 c 1,20,-1
 325 241 l 1,21,22
 184 59 184 59 114 10 c 0,23,24
 79 -15 79 -15 54.5 -15 c 128,-1,25
 30 -15 30 -15 15 2 c 128,-1,26
 0 19 0 19 0 51 c 128,-1,27
 0 83 0 83 23.5 147.5 c 128,-1,28
 47 212 47 212 85 280.5 c 128,-1,29
 123 349 123 349 183.5 399.5 c 128,-1,30
 244 450 244 450 307 450 c 0,31,32
 355 450 355 450 396 417 c 0,33,34
 409 406 409 406 413 406 c 128,-1,35
 417 406 417 406 425 411 c 128,-1,36
 433 416 433 416 444 426 c 128,-1,37
 455 436 455 436 464.5 445 c 128,-1,38
 474 454 474 454 487 467 c 128,-1,39
 500 480 500 480 506.5 486 c 128,-1,40
 513 492 513 492 520 492 c 0,41,42
 530 492 530 492 530 481 c 0,43,44
 530 475 530 475 520 461 c 0,45,46
 476 403 476 403 444 345 c 1,47,48
 349 190 349 190 220 -158 c 0,0,1
330.5 388 m 128,-1,50
 304 408 304 408 270 408 c 128,-1,51
 236 408 236 408 191 347.5 c 128,-1,52
 146 287 146 287 116.5 212 c 128,-1,53
 87 137 87 137 87 93 c 0,54,55
 87 63 87 63 110 63 c 0,56,57
 138 63 138 63 234.5 171.5 c 128,-1,58
 331 280 331 280 367 347 c 1,59,49
 357 368 357 368 330.5 388 c 128,-1,50
EndSplineSet
EndChar

StartChar: r
Encoding: 114 114 85
Width: 355
GlyphClass: 2
Flags: W
LayerCount: 2
Fore
SplineSet
316 434.5 m 128,-1,1
 341 450 341 450 365 450 c 128,-1,2
 389 450 389 450 401 436.5 c 128,-1,3
 413 423 413 423 413 404.5 c 128,-1,4
 413 386 413 386 400.5 370.5 c 128,-1,5
 388 355 388 355 366 348 c 1,6,7
 344 371 344 371 312 371 c 128,-1,8
 280 371 280 371 223 267 c 128,-1,9
 166 163 166 163 120 43 c 0,10,11
 109 13 109 13 99 0 c 128,-1,12
 89 -13 89 -13 66.5 -13 c 128,-1,13
 44 -13 44 -13 26 -2 c 1,14,15
 27 11 27 11 80.5 181 c 128,-1,16
 134 351 134 351 134 363 c 1,17,18
 132 362 132 362 91 338.5 c 128,-1,19
 50 315 50 315 35 302 c 1,20,21
 20 304 20 304 20 315 c 0,22,23
 20 328 20 328 51 348.5 c 128,-1,24
 82 369 82 369 135.5 403.5 c 128,-1,25
 189 438 189 438 224 472 c 0,26,27
 230 478 230 478 234 478 c 0,28,29
 242 478 242 478 242 466.5 c 128,-1,30
 242 455 242 455 224.5 406.5 c 128,-1,31
 207 358 207 358 184 296.5 c 128,-1,32
 161 235 161 235 153 211 c 1,33,-1
 156 211 l 1,34,35
 167 228 167 228 189.5 267 c 128,-1,36
 212 306 212 306 228.5 332.5 c 128,-1,37
 245 359 245 359 268 389 c 128,-1,0
 291 419 291 419 316 434.5 c 128,-1,1
EndSplineSet
EndChar

StartChar: s
Encoding: 115 115 86
Width: 310
GlyphClass: 2
Flags: W
LayerCount: 2
Fore
SplineSet
178 23 m 128,-1,1
 132 -17 132 -17 73 -17 c 0,2,3
 39 -17 39 -17 21 -1 c 128,-1,4
 3 15 3 15 3 36 c 128,-1,5
 3 57 3 57 17.5 69 c 128,-1,6
 32 81 32 81 53 81 c 1,7,8
 79 29 79 29 114 29 c 0,9,10
 134 29 134 29 146 43 c 128,-1,11
 158 57 158 57 158 80 c 0,12,13
 158 120 158 120 115.5 193 c 128,-1,14
 73 266 73 266 73 300 c 0,15,16
 73 367 73 367 122.5 408.5 c 128,-1,17
 172 450 172 450 229 450 c 0,18,19
 268 450 268 450 286.5 434.5 c 128,-1,20
 305 419 305 419 305 394 c 1,21,22
 302 373 302 373 289.5 362 c 128,-1,23
 277 351 277 351 243 349 c 1,24,25
 239 375 239 375 224 389.5 c 128,-1,26
 209 404 209 404 188 404 c 128,-1,27
 167 404 167 404 149 387.5 c 128,-1,28
 131 371 131 371 131 346 c 128,-1,29
 131 321 131 321 145.5 293 c 128,-1,30
 160 265 160 265 178 242 c 0,31,32
 224 183 224 183 224 123 c 128,-1,0
 224 63 224 63 178 23 c 128,-1,1
EndSplineSet
EndChar

StartChar: t
Encoding: 116 116 87
Width: 291
GlyphClass: 2
Flags: W
LayerCount: 2
Fore
SplineSet
208 399 m 1,0,1
 106 116 106 116 106 91 c 128,-1,2
 106 66 106 66 118 66 c 0,3,4
 134 66 134 66 178 112 c 128,-1,5
 222 158 222 158 231 158 c 128,-1,6
 240 158 240 158 240 148.5 c 128,-1,7
 240 139 240 139 211 101.5 c 128,-1,8
 182 64 182 64 134 25.5 c 128,-1,9
 86 -13 86 -13 48 -13 c 0,10,11
 35 -13 35 -13 24.5 -3.5 c 128,-1,12
 14 6 14 6 14 25.5 c 128,-1,13
 14 45 14 45 31.5 101 c 128,-1,14
 49 157 49 157 84.5 258.5 c 128,-1,15
 120 360 120 360 133 399 c 1,16,-1
 48 399 l 2,17,18
 41 399 41 399 41 408.5 c 128,-1,19
 41 418 41 418 45 425 c 128,-1,20
 49 432 49 432 55 432 c 0,21,22
 116 432 116 432 137 443 c 0,23,24
 164 457 164 457 181 551 c 1,25,26
 195 559 195 559 215 559 c 0,27,28
 253 559 253 559 253 533 c 0,29,30
 253 527 253 527 245 504 c 0,31,32
 226 450 226 450 222 438 c 1,33,-1
 326 438 l 2,34,35
 334 438 334 438 334 427.5 c 128,-1,36
 334 417 334 417 329.5 408 c 128,-1,37
 325 399 325 399 319 399 c 2,38,-1
 208 399 l 1,0,1
EndSplineSet
EndChar

StartChar: u
Encoding: 117 117 88
Width: 491
GlyphClass: 2
Flags: W
LayerCount: 2
Fore
SplineSet
254 20 m 0,0,1
 254 65 254 65 310 174 c 0,2,3
 334 220 334 220 339 232 c 1,4,-1
 336 232 l 1,5,6
 332 227 332 227 304 191 c 128,-1,7
 276 155 276 155 260 136 c 128,-1,8
 244 117 244 117 212.5 84 c 128,-1,9
 181 51 181 51 158 33 c 0,10,11
 96 -14 96 -14 45 -14 c 128,-1,12
 -6 -14 -6 -14 -6 34 c 0,13,14
 -6 85 -6 85 137 292 c 0,15,16
 185 362 185 362 185 372.5 c 128,-1,17
 185 383 185 383 175 383 c 128,-1,18
 165 383 165 383 151.5 376 c 128,-1,19
 138 369 138 369 130 362 c 0,20,21
 100 340 100 340 88 328 c 1,22,23
 84 326 84 326 83 326 c 0,24,25
 74 326 74 326 75 342 c 128,-1,26
 76 358 76 358 137 406 c 128,-1,27
 198 454 198 454 234 454 c 128,-1,28
 270 454 270 454 270 422 c 128,-1,29
 270 390 270 390 182.5 245 c 128,-1,30
 95 100 95 100 95 79 c 128,-1,31
 95 58 95 58 113 58 c 0,32,33
 145 58 145 58 215 128 c 0,34,35
 295 208 295 208 402 396 c 0,36,37
 405 401 405 401 411 412 c 128,-1,38
 417 423 417 423 420 428 c 128,-1,39
 423 433 423 433 428 440 c 0,40,41
 438 452 438 452 454 452 c 128,-1,42
 470 452 470 452 486 441 c 1,43,44
 485 430 485 430 410.5 254.5 c 128,-1,45
 336 79 336 79 336 63 c 128,-1,46
 336 47 336 47 353 47 c 128,-1,47
 370 47 370 47 391.5 68.5 c 128,-1,48
 413 90 413 90 421 122 c 1,49,50
 423 125 423 125 427 125 c 0,51,52
 438 125 438 125 438 114 c 0,53,54
 438 75 438 75 390.5 30 c 128,-1,55
 343 -15 343 -15 290 -15 c 0,56,57
 254 -15 254 -15 254 20 c 0,0,1
EndSplineSet
EndChar

StartChar: v
Encoding: 118 118 89
Width: 449
GlyphClass: 2
Flags: W
LayerCount: 2
Fore
SplineSet
41 75 m 0,0,1
 41 145 41 145 112 296 c 0,2,3
 136 347 136 347 136 360 c 128,-1,4
 136 373 136 373 125 373 c 0,5,6
 97 373 97 373 31 299 c 1,7,8
 27 297 27 297 24 297 c 128,-1,9
 21 297 21 297 18 302 c 128,-1,10
 15 307 15 307 15 313.5 c 128,-1,11
 15 320 15 320 40.5 352.5 c 128,-1,12
 66 385 66 385 110 417.5 c 128,-1,13
 154 450 154 450 184 450 c 128,-1,14
 214 450 214 450 221.5 444 c 128,-1,15
 229 438 229 438 229 416.5 c 128,-1,16
 229 395 229 395 173 279 c 128,-1,17
 117 163 117 163 117 131 c 0,18,19
 117 68 117 68 168 68 c 0,20,21
 237 68 237 68 305 152 c 128,-1,22
 373 236 373 236 373 337 c 0,23,24
 373 376 373 376 344 414 c 1,25,26
 349 430 349 430 362 440 c 128,-1,27
 375 450 375 450 392 450 c 0,28,29
 432 450 432 450 432 390 c 0,30,31
 432 345 432 345 407 277.5 c 128,-1,32
 382 210 382 210 341.5 145 c 128,-1,33
 301 80 301 80 242.5 33.5 c 128,-1,34
 184 -13 184 -13 125 -13 c 0,35,36
 41 -13 41 -13 41 75 c 0,0,1
EndSplineSet
EndChar

StartChar: w
Encoding: 119 119 90
Width: 649
GlyphClass: 2
Flags: W
LayerCount: 2
Fore
SplineSet
384 -13 m 0,0,1
 358 -13 358 -13 327.5 4 c 128,-1,2
 297 21 297 21 282 59 c 1,3,4
 192 -13 192 -13 108 -13 c 0,5,6
 42 -13 42 -13 42 65 c 0,7,8
 42 133 42 133 124 294 c 0,9,10
 152 347 152 347 152 360 c 128,-1,11
 152 373 152 373 142 373 c 0,12,13
 114 373 114 373 44 299 c 0,14,15
 42 297 42 297 38 297 c 0,16,17
 29 297 29 297 29 308 c 128,-1,18
 29 319 29 319 56.5 352.5 c 128,-1,19
 84 386 84 386 129 418 c 128,-1,20
 174 450 174 450 212 450 c 0,21,22
 234 450 234 450 241.5 445 c 128,-1,23
 249 440 249 440 249 425 c 0,24,25
 249 397 249 397 185 277 c 128,-1,26
 121 157 121 157 121 115 c 0,27,28
 121 68 121 68 168 68 c 128,-1,29
 215 68 215 68 270 104 c 1,30,31
 266 130 266 130 266 156.5 c 128,-1,32
 266 183 266 183 276.5 229 c 128,-1,33
 287 275 287 275 306.5 322 c 128,-1,34
 326 369 326 369 360 401 c 128,-1,35
 394 433 394 433 434 433 c 128,-1,36
 474 433 474 433 474 380 c 128,-1,37
 474 327 474 327 434 250 c 128,-1,38
 394 173 394 173 333 108 c 1,39,40
 358 68 358 68 422 68 c 0,41,42
 503 68 503 68 548.5 137 c 128,-1,43
 594 206 594 206 594 289.5 c 128,-1,44
 594 373 594 373 555 414 c 1,45,46
 559 429 559 429 571.5 439.5 c 128,-1,47
 584 450 584 450 601 450 c 0,48,49
 641 450 641 450 641 347 c 0,50,51
 641 271 641 271 613 190.5 c 128,-1,52
 585 110 585 110 524 48.5 c 128,-1,53
 463 -13 463 -13 384 -13 c 0,0,1
419 327 m 0,54,55
 419 358 419 358 395 358 c 0,56,57
 363 358 363 358 337.5 311.5 c 128,-1,58
 312 265 312 265 312 197 c 0,59,60
 312 166 312 166 319 141 c 1,61,62
 359 179 359 179 389 231.5 c 128,-1,63
 419 284 419 284 419 327 c 0,54,55
EndSplineSet
EndChar

StartChar: x
Encoding: 120 120 91
Width: 514
GlyphClass: 2
Flags: W
LayerCount: 2
Fore
SplineSet
500 450 m 0,0,1
 557 450 557 450 557 404 c 0,2,3
 557 374 557 374 532.5 347.5 c 128,-1,4
 508 321 508 321 476 321 c 0,5,6
 466 321 466 321 461 324 c 1,7,8
 467 342 467 342 467 360.5 c 128,-1,9
 467 379 467 379 451 379 c 0,10,11
 424 379 424 379 283 231 c 1,12,13
 363 101 363 101 373.5 88.5 c 128,-1,14
 384 76 384 76 389 76 c 0,15,16
 411 76 411 76 411 154 c 2,17,-1
 411 162 l 2,18,19
 411 171 411 171 419 171 c 0,20,21
 438 171 438 171 438 121 c 128,-1,22
 438 71 438 71 423 29 c 128,-1,23
 408 -13 408 -13 381 -13 c 0,24,25
 367 -13 367 -13 349 5 c 1,26,27
 321 36 321 36 233 176 c 1,28,29
 122 42 122 42 63 6 c 0,30,31
 32 -13 32 -13 8 -13 c 128,-1,32
 -16 -13 -16 -13 -27.5 3 c 128,-1,33
 -39 19 -39 19 -39 44.5 c 128,-1,34
 -39 70 -39 70 -22.5 89.5 c 128,-1,35
 -6 109 -6 109 24 109 c 0,36,37
 33 109 33 109 37 108 c 1,38,39
 36 100 36 100 36 91 c 0,40,41
 36 58 36 58 59 58 c 0,42,43
 87 58 87 58 219 199 c 1,44,45
 197 235 197 235 144 325 c 2,46,-1
 131 347 l 2,47,48
 125 357 125 357 119 357 c 0,49,50
 97 357 97 357 97 273 c 2,51,-1
 97 265 l 2,52,53
 97 257 97 257 85 257 c 0,54,55
 69 257 69 257 68.5 308.5 c 128,-1,56
 68 360 68 360 84 405 c 128,-1,57
 100 450 100 450 127.5 450 c 128,-1,58
 155 450 155 450 188 394 c 0,59,60
 199 374 199 374 270 254 c 1,61,62
 277 262 277 262 303 293 c 128,-1,63
 329 324 329 324 349.5 346 c 128,-1,64
 370 368 370 368 398 394 c 1,65,66
 455 450 455 450 500 450 c 0,0,1
EndSplineSet
EndChar

StartChar: y
Encoding: 121 121 92
Width: 380
GlyphClass: 2
Flags: W
LayerCount: 2
Fore
SplineSet
45 312 m 1,0,-1
 46 277 l 2,1,2
 46 267 46 267 37 267 c 0,3,4
 18 267 18 267 18 328.5 c 128,-1,5
 18 390 18 390 36.5 420 c 128,-1,6
 55 450 55 450 87 450 c 0,7,8
 164 450 164 450 206 363.5 c 128,-1,9
 248 277 248 277 248 150 c 0,10,11
 248 67 248 67 232 9 c 1,12,13
 304 157 304 157 304 281 c 0,14,15
 304 366 304 366 272 417 c 1,16,17
 294 450 294 450 324 450 c 0,18,19
 364 450 364 450 364 360 c 0,20,21
 364 251 364 251 308 96 c 0,22,23
 253 -59 253 -59 153 -178 c 0,24,25
 105 -235 105 -235 42 -269.5 c 128,-1,26
 -21 -304 -21 -304 -79.5 -304 c 128,-1,27
 -138 -304 -138 -304 -164.5 -288.5 c 128,-1,28
 -191 -273 -191 -273 -191 -247 c 0,29,30
 -191 -214 -191 -214 -148 -201 c 1,31,32
 -145 -203 -145 -203 -135 -210 c 128,-1,33
 -125 -217 -125 -217 -120.5 -220 c 128,-1,34
 -116 -223 -116 -223 -106 -228 c 128,-1,35
 -96 -233 -96 -233 -90 -236 c 0,36,37
 -73 -242 -73 -242 -53 -242 c 0,38,39
 27 -242 27 -242 82 -190 c 0,40,41
 186 -92 186 -92 186 113 c 0,42,43
 186 214 186 214 153.5 287 c 128,-1,44
 121 360 121 360 81 360 c 0,45,46
 62 360 62 360 54.5 349 c 128,-1,47
 47 338 47 338 45 312 c 1,0,-1
EndSplineSet
EndChar

StartChar: z
Encoding: 122 122 93
Width: 439
GlyphClass: 2
Flags: W
LayerCount: 2
Fore
SplineSet
462 420 m 0,0,1
 462 362 462 362 137 105 c 1,2,3
 192 98 192 98 240.5 71 c 128,-1,4
 289 44 289 44 323 44 c 0,5,6
 384 44 384 44 440 115 c 1,7,8
 450 112 450 112 450 96 c 0,9,10
 450 69 450 69 399.5 27 c 128,-1,11
 349 -15 349 -15 293.5 -15 c 128,-1,12
 238 -15 238 -15 179.5 8.5 c 128,-1,13
 121 32 121 32 80 32 c 0,14,15
 36 32 36 32 18 4 c 0,16,17
 10 -8 10 -8 5 -9 c 0,18,19
 -6 -13 -6 -13 -16 -13 c 0,20,21
 -33 -13 -33 -13 -33 10 c 0,22,23
 -33 48 -33 48 64 97 c 1,24,25
 105 129 105 129 200 210 c 128,-1,26
 295 291 295 291 361 345 c 1,27,28
 240 313 240 313 171.5 313 c 128,-1,29
 103 313 103 313 79 347 c 0,30,31
 70 359 70 359 70 379 c 128,-1,32
 70 399 70 399 97 431 c 1,33,34
 101 429 101 429 117.5 419.5 c 128,-1,35
 134 410 134 410 143.5 407 c 128,-1,36
 153 404 153 404 174 398 c 0,37,38
 210 388 210 388 280 388 c 128,-1,39
 350 388 350 388 408 391 c 1,40,-1
 452 439 l 1,41,42
 462 432 462 432 462 420 c 0,0,1
EndSplineSet
EndChar

StartChar: braceleft
Encoding: 123 123 94
Width: 437
GlyphClass: 2
Flags: W
LayerCount: 2
Fore
SplineSet
246 157 m 0,0,1
 246 90 246 90 205.5 -41 c 128,-1,2
 165 -172 165 -172 165 -234.5 c 128,-1,3
 165 -297 165 -297 203 -326 c 128,-1,4
 241 -355 241 -355 339 -355 c 0,5,6
 359 -355 359 -355 359 -373 c 0,7,8
 359 -383 359 -383 355 -395 c 128,-1,9
 351 -407 351 -407 343 -407 c 0,10,11
 217 -407 217 -407 159.5 -354 c 128,-1,12
 102 -301 102 -301 102 -214 c 0,13,14
 102 -153 102 -153 138 -32 c 128,-1,15
 174 89 174 89 174 155 c 0,16,17
 174 242 174 242 77 242 c 1,18,-1
 48 240 l 2,19,20
 38 240 38 240 38 253.5 c 128,-1,21
 38 267 38 267 43.5 280.5 c 128,-1,22
 49 294 49 294 59 295 c 1,23,24
 75 293 75 293 88 293 c 0,25,26
 150 293 150 293 186 326.5 c 128,-1,27
 222 360 222 360 237 413 c 128,-1,28
 252 466 252 466 261.5 530 c 128,-1,29
 271 594 271 594 289 658.5 c 128,-1,30
 307 723 307 723 339.5 776 c 128,-1,31
 372 829 372 829 443 862.5 c 128,-1,32
 514 896 514 896 620 896 c 0,33,34
 626 896 626 896 626 881.5 c 128,-1,35
 626 867 626 867 618 855.5 c 128,-1,36
 610 844 610 844 594 844 c 0,37,38
 460 844 460 844 404 780 c 0,39,40
 356 726 356 726 341 631 c 0,41,42
 334 587 334 587 328.5 542.5 c 128,-1,43
 323 498 323 498 313 454.5 c 128,-1,44
 303 411 303 411 285 375 c 128,-1,45
 267 339 267 339 231 311 c 128,-1,46
 195 283 195 283 142 270 c 1,47,-1
 141 265 l 1,48,49
 246 261 246 261 246 157 c 0,0,1
EndSplineSet
EndChar

StartChar: bar
Encoding: 124 124 95
Width: 204
GlyphClass: 2
Flags: W
LayerCount: 2
Fore
SplineSet
63 -151 m 0,0,1
 57 -151 57 -151 48 -147 c 1,2,-1
 233 721 l 2,3,4
 239 753 239 753 267 753 c 1,5,-1
 282 749 l 1,6,-1
 94 -121 l 2,7,8
 87 -151 87 -151 63 -151 c 0,0,1
EndSplineSet
EndChar

StartChar: braceright
Encoding: 125 125 96
Width: 402
GlyphClass: 2
Flags: W
LayerCount: 2
Fore
SplineSet
306 270 m 1,0,1
 200 274 200 274 200 384 c 0,2,3
 200 438 200 438 236 553 c 128,-1,4
 272 668 272 668 272 727 c 128,-1,5
 272 786 272 786 234 815 c 128,-1,6
 196 844 196 844 98 844 c 0,7,8
 78 844 78 844 78 862 c 0,9,10
 78 872 78 872 82 884 c 128,-1,11
 86 896 86 896 94 896 c 0,12,13
 220 896 220 896 277.5 843 c 128,-1,14
 335 790 335 790 335 703 c 0,15,16
 335 648 335 648 304 542 c 128,-1,17
 273 436 273 436 273 380 c 0,18,19
 273 293 273 293 370 293 c 1,20,-1
 399 295 l 2,21,22
 408 295 408 295 408 269 c 128,-1,23
 408 243 408 243 388 240 c 1,24,25
 372 242 372 242 359 242 c 0,26,27
 288 242 288 242 254.5 202.5 c 128,-1,28
 221 163 221 163 205 88 c 0,29,30
 200 64 200 64 183.5 -28 c 128,-1,31
 167 -120 167 -120 162 -146 c 0,32,33
 138 -258 138 -258 52.5 -332.5 c 128,-1,34
 -33 -407 -33 -407 -182 -407 c 0,35,36
 -188 -407 -188 -407 -188 -392.5 c 128,-1,37
 -188 -378 -188 -378 -180 -366.5 c 128,-1,38
 -172 -355 -172 -355 -156 -355 c 0,39,40
 -57 -355 -57 -355 -9 -326 c 0,41,42
 16 -311 16 -311 33 -295 c 128,-1,43
 50 -279 50 -279 62 -252 c 1,44,45
 80 -207 80 -207 89 -162 c 128,-1,46
 98 -117 98 -117 115.5 -17.5 c 128,-1,47
 133 82 133 82 138 107 c 0,48,49
 152 174 152 174 193.5 218 c 128,-1,50
 235 262 235 262 305 265 c 1,51,-1
 306 270 l 1,0,1
EndSplineSet
EndChar

StartChar: asciitilde
Encoding: 126 126 97
Width: 458
GlyphClass: 2
Flags: W
LayerCount: 2
Fore
SplineSet
241 310 m 1,0,-1
 333 302 l 1,1,2
 426 302 426 302 460 386 c 0,3,4
 463 394 463 394 472 394 c 0,5,6
 484 394 484 394 484 383 c 0,7,8
 484 381 484 381 484 378 c 0,9,10
 471 320 471 320 428.5 280.5 c 128,-1,11
 386 241 386 241 325 241 c 0,12,13
 306 241 306 241 274 247 c 128,-1,14
 242 253 242 253 226 253 c 0,15,16
 185 253 185 253 150 230.5 c 128,-1,17
 115 208 115 208 98 166 c 0,18,19
 95 158 95 158 86 158 c 0,20,21
 73 158 73 158 73 171 c 0,22,23
 73 174 73 174 73 177 c 0,24,25
 88 237 88 237 133.5 273.5 c 128,-1,26
 179 310 179 310 241 310 c 1,0,-1
EndSplineSet
EndChar

StartChar: exclamdown
Encoding: 161 161 98
Width: 317
GlyphClass: 2
Flags: W
LayerCount: 2
Fore
SplineSet
194 265 m 0,0,1
 215 265 215 265 215 244 c 128,-1,2
 215 223 215 223 202 169 c 0,3,4
 162 11 162 11 162 -125 c 0,5,6
 162 -183 162 -183 171 -222 c 1,7,8
 121 -250 121 -250 93 -250 c 0,9,10
 56 -250 56 -250 56 -199 c 0,11,12
 56 -126 56 -126 107.5 25.5 c 128,-1,13
 159 177 159 177 170 256 c 1,14,15
 182 265 182 265 194 265 c 0,0,1
169 391 m 128,-1,17
 169 414 169 414 186 431 c 128,-1,18
 203 448 203 448 226 448 c 128,-1,19
 249 448 249 448 266 431 c 128,-1,20
 283 414 283 414 283 391 c 128,-1,21
 283 368 283 368 266 351 c 128,-1,22
 249 334 249 334 226 334 c 128,-1,23
 203 334 203 334 186 351 c 128,-1,16
 169 368 169 368 169 391 c 128,-1,17
EndSplineSet
EndChar

StartChar: cent
Encoding: 162 162 99
Width: 405
GlyphClass: 2
Flags: W
LayerCount: 2
Fore
SplineSet
265 282 m 0,0,1
 276 282 276 282 276 268 c 128,-1,2
 276 254 276 254 227 198 c 128,-1,3
 178 142 178 142 129 123 c 1,4,5
 90 13 90 13 83 -1 c 1,6,7
 75 -24 75 -24 53 -24 c 0,8,9
 45 -24 45 -24 37 -20 c 1,10,-1
 85 115 l 1,11,12
 63 118 63 118 47 138.5 c 128,-1,13
 31 159 31 159 31 191.5 c 128,-1,14
 31 224 31 224 45.5 277 c 128,-1,15
 60 330 60 330 86 387.5 c 128,-1,16
 112 445 112 445 154 496 c 128,-1,17
 196 547 196 547 244 567 c 1,18,-1
 292 700 l 2,19,20
 302 727 302 727 322 727 c 0,21,22
 331 727 331 727 345 720 c 1,23,24
 323 661 323 661 294 579 c 1,25,26
 300 580 300 580 307 580 c 0,27,28
 402 580 402 580 402 525 c 0,29,30
 402 509 402 509 386 497 c 128,-1,31
 370 485 370 485 347 484 c 1,32,33
 322 538 322 538 276 538 c 0,34,35
 240 538 240 538 201 481.5 c 128,-1,36
 162 425 162 425 138.5 354.5 c 128,-1,37
 115 284 115 284 115 252 c 0,38,39
 115 193 115 193 140.5 193 c 128,-1,40
 166 193 166 193 193.5 215.5 c 128,-1,41
 221 238 221 238 240.5 260 c 128,-1,42
 260 282 260 282 265 282 c 0,0,1
EndSplineSet
Substitution2: "'onum' Oldstyle Figures lookup 1 subtable" cent.taboldstyle
Substitution2: "'aalt' Access All Alternates lookup 0 subtable" cent.taboldstyle
EndChar

StartChar: sterling
Encoding: 163 163 100
Width: 592
GlyphClass: 2
Flags: W
LayerCount: 2
Fore
SplineSet
395 364 m 2,0,1
 398 364 398 364 398 361.5 c 128,-1,2
 398 359 398 359 395 346 c 128,-1,3
 392 333 392 333 392 322.5 c 128,-1,4
 392 312 392 312 383 312 c 2,5,-1
 286 321 l 1,6,-1
 286 305 l 2,7,8
 286 208 286 208 234 115 c 1,9,10
 254 110 254 110 285 98 c 0,11,12
 351 74 351 74 420.5 74 c 128,-1,13
 490 74 490 74 529 130 c 0,14,15
 534 136 534 136 540.5 136 c 128,-1,16
 547 136 547 136 547 129 c 0,17,18
 547 128 547 128 545 122 c 1,19,20
 530 96 530 96 520.5 81.5 c 128,-1,21
 511 67 511 67 488 40 c 0,22,23
 442 -13 442 -13 372 -13 c 0,24,25
 333 -13 333 -13 304 -1 c 128,-1,26
 275 11 275 11 244 33 c 128,-1,27
 213 55 213 55 197 63 c 1,28,29
 132 -13 132 -13 61 -13 c 0,30,31
 40 -13 40 -13 27.5 -2.5 c 128,-1,32
 15 8 15 8 15 24 c 0,33,34
 15 70 15 70 59.5 96.5 c 128,-1,35
 104 123 104 123 160 123 c 0,36,37
 164 123 164 123 177 122 c 1,38,39
 193 154 193 154 193 201.5 c 128,-1,40
 193 249 193 249 173 319 c 1,41,42
 173 319 173 319 115 317 c 0,43,44
 109 317 109 317 109 326 c 128,-1,45
 109 335 109 335 113.5 343 c 128,-1,46
 118 351 118 351 124 351 c 128,-1,47
 130 351 130 351 144 349.5 c 128,-1,48
 158 348 158 348 166 348 c 1,49,50
 156 386 156 386 156 420 c 0,51,52
 156 520 156 520 235 602 c 128,-1,53
 314 684 314 684 418 684 c 0,54,55
 505 684 505 684 565 611 c 1,56,57
 576 622 576 622 578 624 c 0,58,59
 583 631 583 631 589 631 c 128,-1,60
 595 631 595 631 599 627.5 c 128,-1,61
 603 624 603 624 603 620.5 c 128,-1,62
 603 617 603 617 602 616 c 0,63,64
 549 551 549 551 518 472 c 0,65,66
 517 468 517 468 510 468 c 128,-1,67
 503 468 503 468 496.5 472 c 128,-1,68
 490 476 490 476 490 481.5 c 128,-1,69
 490 487 490 487 500 507 c 128,-1,70
 510 527 510 527 514 540 c 1,71,72
 513 544 513 544 511.5 550.5 c 128,-1,73
 510 557 510 557 503 573 c 128,-1,74
 496 589 496 589 486 601.5 c 128,-1,75
 476 614 476 614 457 624.5 c 128,-1,76
 438 635 438 635 414 635 c 0,77,78
 351 635 351 635 307 586.5 c 128,-1,79
 263 538 263 538 263 472 c 0,80,81
 263 444 263 444 271.5 405.5 c 128,-1,82
 280 367 280 367 282 351 c 1,83,-1
 395 364 l 2,0,1
70 21 m 0,84,85
 114 21 114 21 154 77 c 1,86,87
 140 79 140 79 120.5 79 c 128,-1,88
 101 79 101 79 76 68 c 128,-1,89
 51 57 51 57 51 38 c 0,90,91
 51 21 51 21 70 21 c 0,84,85
EndSplineSet
EndChar

StartChar: currency
Encoding: 164 164 101
Width: 578
GlyphClass: 2
Flags: W
LayerCount: 2
Fore
SplineSet
73 291 m 0,0,1
 73 396 73 396 154 488 c 1,2,-1
 108 533 l 2,3,4
 94 547 94 547 94 562 c 0,5,6
 94 590 94 590 137 608 c 1,7,8
 147 584 147 584 180 536 c 2,9,-1
 191 520 l 1,10,11
 263 573 263 573 343 573 c 128,-1,12
 423 573 423 573 473 520 c 1,13,14
 541 582 541 582 565 608 c 1,15,16
 589 596 589 596 589 568 c 0,17,18
 589 550 589 550 562 533 c 1,19,-1
 496 488 l 1,20,21
 516 451 516 451 516 398 c 0,22,23
 516 294 516 294 435 202 c 1,24,-1
 482 157 l 2,25,26
 495 144 495 144 495 129 c 0,27,28
 495 100 495 100 453 82 c 1,29,-1
 399 170 l 1,30,31
 326 117 326 117 245.5 117 c 128,-1,32
 165 117 165 117 117 170 c 1,33,34
 48 108 48 108 25 82 c 1,35,36
 0 94 0 94 0 115.5 c 128,-1,37
 0 137 0 137 28 157 c 2,38,-1
 93 202 l 1,39,40
 73 242 73 242 73 291 c 0,0,1
260 178 m 0,41,42
 341 178 341 178 398 241.5 c 128,-1,43
 455 305 455 305 455 390 c 0,44,45
 455 450 455 450 419 481 c 128,-1,46
 383 512 383 512 330 512 c 0,47,48
 249 512 249 512 192 449 c 128,-1,49
 135 386 135 386 135 301 c 0,50,51
 135 241 135 241 171 209.5 c 128,-1,52
 207 178 207 178 260 178 c 0,41,42
EndSplineSet
EndChar

StartChar: yen
Encoding: 165 165 102
Width: 753
GlyphClass: 2
Flags: W
LayerCount: 2
Fore
SplineSet
671 671 m 1,0,-1
 783 673 l 2,1,2
 790 673 790 673 790 664.5 c 128,-1,3
 790 656 790 656 786 648 c 128,-1,4
 782 640 782 640 776 640 c 2,5,-1
 751 640 l 2,6,7
 726 640 726 640 704 624 c 0,8,9
 637 576 637 576 541.5 492.5 c 128,-1,10
 446 409 446 409 404 358 c 1,11,-1
 516 360 l 2,12,13
 538 360 538 360 547 355.5 c 128,-1,14
 556 351 556 351 556 340 c 128,-1,15
 556 329 556 329 553 317 c 1,16,-1
 380 317 l 1,17,-1
 358 202 l 1,18,-1
 484 204 l 2,19,20
 506 204 506 204 515.5 199.5 c 128,-1,21
 525 195 525 195 525 183.5 c 128,-1,22
 525 172 525 172 521 161 c 1,23,-1
 348 161 l 1,24,25
 330 71 330 71 330 52 c 128,-1,26
 330 33 330 33 342 33 c 2,27,-1
 400 33 l 2,28,29
 405 33 405 33 405 25 c 0,30,31
 405 0 405 0 393 0 c 2,32,-1
 269 1 l 1,33,-1
 130 -2 l 2,34,35
 125 -2 125 -2 125 14 c 1,36,37
 129 32 129 32 137 32 c 2,38,-1
 180 32 l 2,39,40
 205 32 205 32 215.5 41.5 c 128,-1,41
 226 51 226 51 231 78 c 2,42,-1
 249 161 l 1,43,-1
 105 161 l 2,44,45
 76 161 76 161 76 189 c 1,46,-1
 77 199 l 1,47,48
 185 199 185 199 258 200 c 1,49,50
 281 312 281 312 280 317 c 1,51,-1
 137 317 l 2,52,53
 108 317 108 317 108 344 c 1,54,-1
 109 355 l 1,55,56
 200 355 200 355 264 356 c 1,57,58
 235 423 235 423 136 577 c 0,59,60
 111 616 111 616 96 628.5 c 128,-1,61
 81 641 81 641 66 641 c 2,62,-1
 34 641 l 2,63,64
 30 641 30 641 30 650 c 128,-1,65
 30 659 30 659 33.5 666 c 128,-1,66
 37 673 37 673 41 673 c 2,67,-1
 164 671 l 1,68,-1
 306 673 l 2,69,70
 311 673 311 673 311 656.5 c 128,-1,71
 311 640 311 640 299 640 c 2,72,-1
 229 639 l 1,73,74
 229 634 229 634 256 591 c 0,75,76
 340 460 340 460 366 379 c 1,77,78
 394 414 394 414 480.5 499.5 c 128,-1,79
 567 585 567 585 580 602.5 c 128,-1,80
 593 620 593 620 593.5 630.5 c 128,-1,81
 594 641 594 641 586 641 c 2,82,-1
 547 641 l 2,83,84
 540 641 540 641 540 649 c 128,-1,85
 540 657 540 657 544 665 c 128,-1,86
 548 673 548 673 554 673 c 2,87,-1
 671 671 l 1,0,-1
EndSplineSet
EndChar

StartChar: brokenbar
Encoding: 166 166 103
Width: 254
GlyphClass: 2
Flags: W
LayerCount: 2
Fore
SplineSet
51 -151 m 0,0,1
 45 -151 45 -151 36 -147 c 1,2,-1
 111 210 l 2,3,4
 114 222 114 222 125.5 227.5 c 128,-1,5
 137 233 137 233 147 232 c 1,6,-1
 157 232 l 1,7,-1
 82 -121 l 2,8,9
 75 -151 75 -151 51 -151 c 0,0,1
190 384 m 2,10,11
 188 374 188 374 178 370.5 c 128,-1,12
 168 367 168 367 163 367 c 128,-1,13
 158 367 158 367 156 367 c 2,14,-1
 146 368 l 1,15,-1
 221 721 l 2,16,17
 227 753 227 753 255 753 c 1,18,-1
 270 749 l 1,19,-1
 190 384 l 2,10,11
EndSplineSet
EndChar

StartChar: section
Encoding: 167 167 104
Width: 561
GlyphClass: 2
Flags: W
LayerCount: 2
Fore
SplineSet
91 393 m 0,0,1
 91 492 91 492 152.5 562 c 128,-1,2
 214 632 214 632 323 664 c 1,3,4
 391 714 391 714 450 714 c 128,-1,5
 509 714 509 714 537.5 695 c 128,-1,6
 566 676 566 676 566 647 c 0,7,8
 566 606 566 606 503 573 c 1,9,10
 475 664 475 664 407 664 c 0,11,12
 367 664 367 664 345.5 627.5 c 128,-1,13
 324 591 324 591 324 547.5 c 128,-1,14
 324 504 324 504 348 447 c 128,-1,15
 372 390 372 390 401 342 c 128,-1,16
 430 294 430 294 454 227.5 c 128,-1,17
 478 161 478 161 478 102 c 0,18,19
 478 -103 478 -103 220 -161 c 1,20,21
 201 -177 201 -177 165 -190.5 c 128,-1,22
 129 -204 129 -204 85 -204 c 128,-1,23
 41 -204 41 -204 11 -181.5 c 128,-1,24
 -19 -159 -19 -159 -19 -127 c 0,25,26
 -19 -83 -19 -83 40 -46 c 1,27,28
 47 -84 47 -84 78 -114 c 128,-1,29
 109 -144 109 -144 138 -144 c 0,30,31
 186 -144 186 -144 208.5 -99.5 c 128,-1,32
 231 -55 231 -55 231 -1 c 128,-1,33
 231 53 231 53 209 107 c 128,-1,34
 187 161 187 161 161 199.5 c 128,-1,35
 135 238 135 238 113 290.5 c 128,-1,36
 91 343 91 343 91 393 c 0,0,1
170 460 m 0,37,38
 170 389 170 389 238 276 c 0,39,40
 263 234 263 234 284 173.5 c 128,-1,41
 305 113 305 113 305 56 c 0,42,43
 305 -34 305 -34 251 -122 c 1,44,45
 319 -99 319 -99 356 -44 c 128,-1,46
 393 11 393 11 393 75.5 c 128,-1,47
 393 140 393 140 372.5 200 c 128,-1,48
 352 260 352 260 327.5 304.5 c 128,-1,49
 303 349 303 349 282.5 405 c 128,-1,50
 262 461 262 461 262 517 c 128,-1,51
 262 573 262 573 294 622 c 1,52,53
 170 558 170 558 170 460 c 0,37,38
EndSplineSet
EndChar

StartChar: dieresis
Encoding: 168 168 105
Width: 290
GlyphClass: 2
Flags: W
LayerCount: 2
Fore
SplineSet
75 555 m 128,-1,1
 53 555 53 555 38.5 570.5 c 128,-1,2
 24 586 24 586 24 607.5 c 128,-1,3
 24 629 24 629 39 643 c 128,-1,4
 54 657 54 657 74.5 657 c 128,-1,5
 95 657 95 657 110.5 642.5 c 128,-1,6
 126 628 126 628 126 607 c 128,-1,7
 126 586 126 586 111.5 570.5 c 128,-1,0
 97 555 97 555 75 555 c 128,-1,1
242 555 m 128,-1,9
 220 555 220 555 205.5 570.5 c 128,-1,10
 191 586 191 586 191 607 c 128,-1,11
 191 628 191 628 206.5 642.5 c 128,-1,12
 222 657 222 657 242 657 c 128,-1,13
 262 657 262 657 277.5 642.5 c 128,-1,14
 293 628 293 628 293 607 c 128,-1,15
 293 586 293 586 278.5 570.5 c 128,-1,8
 264 555 264 555 242 555 c 128,-1,9
EndSplineSet
EndChar

StartChar: copyright
Encoding: 169 169 106
Width: 699
GlyphClass: 2
Flags: W
LayerCount: 2
Fore
SplineSet
237.5 579 m 128,-1,1
 328 631 328 631 434.5 631 c 128,-1,2
 541 631 541 631 600 568.5 c 128,-1,3
 659 506 659 506 659 399 c 0,4,5
 659 252 659 252 548.5 138 c 128,-1,6
 438 24 438 24 285 24 c 0,7,8
 171 24 171 24 105.5 90 c 128,-1,9
 40 156 40 156 40 256 c 128,-1,10
 40 356 40 356 93.5 441.5 c 128,-1,0
 147 527 147 527 237.5 579 c 128,-1,1
422 596 m 0,11,12
 289 596 289 596 185.5 498.5 c 128,-1,13
 82 401 82 401 82 268 c 0,14,15
 82 174 82 174 139 116.5 c 128,-1,16
 196 59 196 59 292 59 c 0,17,18
 422 59 422 59 520.5 159.5 c 128,-1,19
 619 260 619 260 619 393 c 0,20,21
 619 487 619 487 567.5 541.5 c 128,-1,22
 516 596 516 596 422 596 c 0,11,12
412 156 m 1,23,24
 365 142 365 142 333 142 c 0,25,26
 260 142 260 142 211.5 180.5 c 128,-1,27
 163 219 163 219 163 282 c 0,28,29
 163 382 163 382 243 452.5 c 128,-1,30
 323 523 323 523 418 523 c 0,31,32
 433 523 433 523 440 522 c 2,33,-1
 484 517 l 1,34,35
 503 517 503 517 511 523 c 128,-1,36
 519 529 519 529 524 529 c 128,-1,37
 529 529 529 529 539 519 c 1,38,39
 527 506 527 506 515.5 476 c 128,-1,40
 504 446 504 446 504 427 c 0,41,42
 504 413 504 413 486.5 413 c 128,-1,43
 469 413 469 413 469 420 c 1,44,45
 470 425 470 425 473 434.5 c 128,-1,46
 476 444 476 444 476 454 c 0,47,48
 476 485 476 485 402.5 485 c 128,-1,49
 329 485 329 485 282.5 427.5 c 128,-1,50
 236 370 236 370 236 293 c 0,51,52
 236 242 236 242 268 210.5 c 128,-1,53
 300 179 300 179 345 179 c 128,-1,54
 390 179 390 179 432 212 c 1,55,-1
 445 247 l 2,56,57
 448 257 448 257 458.5 257 c 128,-1,58
 469 257 469 257 475 241 c 1,59,60
 457 208 457 208 448 171 c 128,-1,61
 439 134 439 134 426.5 134 c 128,-1,62
 414 134 414 134 410 138 c 1,63,-1
 412 156 l 1,23,24
EndSplineSet
EndChar

StartChar: ordfeminine
Encoding: 170 170 107
Width: 274
GlyphClass: 2
Flags: W
LayerCount: 2
Fore
SplineSet
84 391 m 1,0,-1
 184 387 l 1,1,2
 225 387 225 387 263 397 c 1,3,4
 266 391 266 391 264 382 c 0,5,6
 259 359 259 359 231.5 349.5 c 128,-1,7
 204 340 204 340 174 340 c 1,8,-1
 67 345 l 1,9,10
 33 345 33 345 18 340 c 1,11,12
 14 348 14 348 14 355 c 0,13,14
 14 391 14 391 84 391 c 1,0,-1
158 445 m 0,15,16
 158 456 158 456 204 560 c 1,17,-1
 202 561 l 1,18,19
 101 427 101 427 64 427 c 0,20,21
 35 427 35 427 35 457.5 c 128,-1,22
 35 488 35 488 54 537 c 128,-1,23
 73 586 73 586 110.5 629.5 c 128,-1,24
 148 673 148 673 188 673 c 0,25,26
 211 673 211 673 228 662 c 2,27,-1
 244 652 l 1,28,29
 254 652 254 652 267 668.5 c 128,-1,30
 280 685 280 685 284 685 c 0,31,32
 294 685 294 685 294 673 c 0,33,34
 294 668 294 668 289.5 660 c 128,-1,35
 285 652 285 652 279 641 c 128,-1,36
 273 630 273 630 259.5 604.5 c 128,-1,37
 246 579 246 579 230 539 c 128,-1,38
 214 499 214 499 214 491 c 128,-1,39
 214 483 214 483 220 483 c 0,40,41
 228 483 228 483 247.5 503 c 128,-1,42
 267 523 267 523 272 523 c 128,-1,43
 277 523 277 523 277 513.5 c 128,-1,44
 277 504 277 504 239 466.5 c 128,-1,45
 201 429 201 429 175 428 c 0,46,47
 158 428 158 428 158 445 c 0,15,16
213 622 m 1,48,49
 203 645 203 645 176 645 c 128,-1,50
 149 645 149 645 119 591.5 c 128,-1,51
 89 538 89 538 89 501 c 0,52,53
 89 485 89 485 100 485 c 0,54,55
 114 485 114 485 154.5 535 c 128,-1,56
 195 585 195 585 213 622 c 1,48,49
EndSplineSet
EndChar

StartChar: guillemotleft
Encoding: 171 171 108
Width: 381
GlyphClass: 2
Flags: W
LayerCount: 2
Fore
SplineSet
124.5 166 m 128,-1,1
 149 136 149 136 159.5 120 c 128,-1,2
 170 104 170 104 170 96 c 128,-1,3
 170 88 170 88 168 80 c 128,-1,4
 166 72 166 72 150 59 c 1,5,6
 123 99 123 99 88 139.5 c 128,-1,7
 53 180 53 180 31 200 c 2,8,-1
 9 221 l 1,9,10
 121 293 121 293 219 383 c 1,11,12
 239 357 239 357 204 324 c 0,13,14
 185 306 185 306 147.5 275.5 c 128,-1,15
 110 245 110 245 85 221 c 1,16,0
 100 196 100 196 124.5 166 c 128,-1,1
379 383 m 1,17,18
 387 373 387 373 387 366 c 0,19,20
 387 345 387 345 366 325.5 c 128,-1,21
 345 306 345 306 307.5 275.5 c 128,-1,22
 270 245 270 245 245 221 c 1,23,24
 260 196 260 196 284.5 166 c 128,-1,25
 309 136 309 136 319.5 120 c 128,-1,26
 330 104 330 104 330 96 c 128,-1,27
 330 88 330 88 328 80 c 128,-1,28
 326 72 326 72 310 59 c 1,29,30
 283 99 283 99 248 139.5 c 128,-1,31
 213 180 213 180 191 200 c 2,32,-1
 169 221 l 1,33,34
 281 293 281 293 379 383 c 1,17,18
EndSplineSet
EndChar

StartChar: logicalnot
Encoding: 172 172 109
Width: 494
GlyphClass: 2
Flags: W
LayerCount: 2
Fore
SplineSet
222 356 m 1,0,-1
 481 360 l 2,1,2
 494 360 494 360 494 347 c 0,3,4
 494 337 494 337 484 302 c 1,5,-1
 446 141 l 2,6,7
 439 110 439 110 393 110 c 1,8,-1
 442 317 l 1,9,10
 340 313 340 313 44 313 c 0,11,12
 15 313 15 313 15 344 c 1,13,-1
 16 356 l 1,14,-1
 222 356 l 1,0,-1
EndSplineSet
EndChar

StartChar: registered
Encoding: 174 174 110
Width: 699
GlyphClass: 2
Flags: W
LayerCount: 2
Fore
SplineSet
237.5 579 m 128,-1,1
 328 631 328 631 434.5 631 c 128,-1,2
 541 631 541 631 600 568.5 c 128,-1,3
 659 506 659 506 659 399 c 0,4,5
 659 252 659 252 548.5 138 c 128,-1,6
 438 24 438 24 285 24 c 0,7,8
 171 24 171 24 105.5 90 c 128,-1,9
 40 156 40 156 40 256 c 128,-1,10
 40 356 40 356 93.5 441.5 c 128,-1,0
 147 527 147 527 237.5 579 c 128,-1,1
340 319 m 1,11,12
 330 319 330 319 328 321 c 1,13,-1
 323 303 l 1,14,15
 301 213 301 213 276 181 c 1,16,17
 283 181 283 181 301 178.5 c 128,-1,18
 319 176 319 176 331 176 c 1,19,20
 323 150 323 150 304 150 c 1,21,22
 256 158 256 158 218 158 c 128,-1,23
 180 158 180 158 174 152 c 1,24,25
 174 179 174 179 204 182 c 0,26,27
 238 185 238 185 252 269 c 1,28,29
 288 433 288 433 293 488 c 1,30,31
 268 488 268 488 223 465 c 1,32,33
 217 473 217 473 217 479 c 0,34,35
 218 494 218 494 267 509.5 c 128,-1,36
 316 525 316 525 373.5 525 c 128,-1,37
 431 525 431 525 473 498 c 128,-1,38
 515 471 515 471 515 425 c 128,-1,39
 515 379 515 379 483 350.5 c 128,-1,40
 451 322 451 322 402 315 c 1,41,42
 410 307 410 307 428 280 c 1,43,-1
 453 239 l 2,44,45
 465 218 465 218 483.5 196.5 c 128,-1,46
 502 175 502 175 515.5 175 c 128,-1,47
 529 175 529 175 547 190 c 1,48,49
 619 283 619 283 619 385 c 128,-1,50
 619 487 619 487 567.5 541.5 c 128,-1,51
 516 596 516 596 422 596 c 0,52,53
 289 596 289 596 185.5 498.5 c 128,-1,54
 82 401 82 401 82 268 c 0,55,56
 82 174 82 174 139 116.5 c 128,-1,57
 196 59 196 59 292 59 c 0,58,59
 415 59 415 59 510 149 c 1,60,61
 498 145 498 145 481 145 c 0,62,63
 451 145 451 145 423.5 181 c 128,-1,64
 396 217 396 217 340 319 c 1,11,12
333 351 m 1,65,66
 348 345 348 345 372.5 345 c 128,-1,67
 397 345 397 345 421.5 366 c 128,-1,68
 446 387 446 387 447 421 c 128,-1,69
 448 455 448 455 426 475 c 128,-1,70
 404 495 404 495 373 495 c 0,71,72
 361 495 361 495 356 473 c 2,73,-1
 333 351 l 1,65,66
EndSplineSet
EndChar

StartChar: macron
Encoding: 175 175 111
Width: 258
GlyphClass: 2
Flags: W
LayerCount: 2
Fore
SplineSet
226 627 m 2,0,1
 266 627 266 627 266 601 c 0,2,3
 266 592 266 592 263 581 c 1,4,-1
 38 581 l 2,5,6
 21 581 21 581 14 591.5 c 128,-1,7
 7 602 7 602 8 612 c 2,8,-1
 10 622 l 1,9,-1
 226 627 l 2,0,1
EndSplineSet
EndChar

StartChar: degree
Encoding: 176 176 112
Width: 267
GlyphClass: 2
Flags: W
LayerCount: 2
Fore
SplineSet
241.5 643 m 128,-1,1
 270 614 270 614 270 564 c 128,-1,2
 270 514 270 514 222.5 468 c 128,-1,3
 175 422 175 422 122.5 422 c 128,-1,4
 70 422 70 422 42 450 c 128,-1,5
 14 478 14 478 14 528.5 c 128,-1,6
 14 579 14 579 60.5 625.5 c 128,-1,7
 107 672 107 672 168 672 c 0,8,0
 213 672 213 672 241.5 643 c 128,-1,1
69 475.5 m 128,-1,10
 90 454 90 454 127 454 c 128,-1,11
 164 454 164 454 200 487.5 c 128,-1,12
 236 521 236 521 236 558.5 c 128,-1,13
 236 596 236 596 214.5 617.5 c 128,-1,14
 193 639 193 639 155 639 c 128,-1,15
 117 639 117 639 82.5 605.5 c 128,-1,16
 48 572 48 572 48 534.5 c 128,-1,9
 48 497 48 497 69 475.5 c 128,-1,10
EndSplineSet
EndChar

StartChar: plusminus
Encoding: 177 177 113
Width: 488
GlyphClass: 2
Flags: W
LayerCount: 2
Fore
SplineSet
351 501 m 0,0,1
 355 501 355 501 360 501 c 1,2,-1
 324 333 l 1,3,-1
 439 336 l 1,4,5
 479 336 479 336 479 306 c 0,6,7
 479 298 479 298 476 288 c 1,8,-1
 315 288 l 1,9,-1
 287 157 l 2,10,11
 283 140 283 140 270 134 c 128,-1,12
 257 128 257 128 246 130 c 2,13,-1
 235 133 l 1,14,15
 239 152 239 152 249.5 206 c 128,-1,16
 260 260 260 260 266 288 c 1,17,-1
 136 288 l 2,18,19
 119 288 119 288 112 299 c 128,-1,20
 105 310 105 310 106 320 c 2,21,-1
 108 331 l 1,22,23
 150 331 150 331 274 333 c 1,24,-1
 298 454 l 2,25,26
 307 501 307 501 351 501 c 0,0,1
469 20 m 0,27,28
 469 12 469 12 466 1 c 1,29,-1
 35 1 l 2,30,31
 18 1 18 1 11 12 c 128,-1,32
 4 23 4 23 6 34 c 2,33,-1
 7 45 l 1,34,-1
 429 50 l 2,35,36
 469 50 469 50 469 20 c 0,27,28
EndSplineSet
EndChar

StartChar: twosuperior
Encoding: 178 178 114
Width: 338
GlyphClass: 2
Flags: W
LayerCount: 2
Fore
SplineSet
248 605 m 0,0,1
 248 643 248 643 209 643 c 0,2,3
 182 643 182 643 161 623 c 128,-1,4
 140 603 140 603 140 579.5 c 128,-1,5
 140 556 140 556 145 546 c 1,6,7
 127 528 127 528 109 528 c 128,-1,8
 91 528 91 528 81 537 c 128,-1,9
 71 546 71 546 71 561 c 0,10,11
 71 601 71 601 121.5 636.5 c 128,-1,12
 172 672 172 672 217 672 c 128,-1,13
 262 672 262 672 289 653.5 c 128,-1,14
 316 635 316 635 316 602.5 c 128,-1,15
 316 570 316 570 297 539 c 128,-1,16
 278 508 278 508 243 480 c 0,17,18
 189 437 189 437 111 394 c 1,19,-1
 113 391 l 1,20,21
 121 392 121 392 139 392 c 0,22,23
 230 392 230 392 275 419 c 1,24,-1
 284 446 l 2,25,26
 286 452 286 452 294.5 452 c 128,-1,27
 303 452 303 452 307 449.5 c 128,-1,28
 311 447 311 447 311 446 c 0,29,30
 292 391 292 391 279 334 c 1,31,32
 279 328 279 328 266 328 c 128,-1,33
 253 328 253 328 253 334 c 1,34,-1
 257 350 l 1,35,-1
 18 350 l 2,36,37
 12 350 12 350 12 356 c 0,38,39
 13 362 13 362 32 372.5 c 128,-1,40
 51 383 51 383 85.5 407 c 128,-1,41
 120 431 120 431 158.5 464 c 128,-1,42
 197 497 197 497 222.5 535 c 128,-1,43
 248 573 248 573 248 605 c 0,0,1
EndSplineSet
EndChar

StartChar: threesuperior
Encoding: 179 179 115
Width: 313
GlyphClass: 2
Flags: W
LayerCount: 2
Fore
SplineSet
128 298 m 0,0,1
 172 298 172 298 201 330.5 c 128,-1,2
 230 363 230 363 230 406 c 0,3,4
 230 461 230 461 182 483 c 1,5,6
 139 466 139 466 126 466 c 128,-1,7
 113 466 113 466 113 475 c 0,8,9
 113 487 113 487 131.5 494 c 128,-1,10
 150 501 150 501 174 501 c 1,11,12
 198 515 198 515 217.5 543 c 128,-1,13
 237 571 237 571 237 600 c 0,14,15
 237 650 237 650 199 650 c 0,16,17
 178 650 178 650 159.5 637 c 128,-1,18
 141 624 141 624 141 610 c 128,-1,19
 141 596 141 596 147 585 c 1,20,21
 138 570 138 570 123 570 c 128,-1,22
 108 570 108 570 99 576.5 c 128,-1,23
 90 583 90 583 90 594 c 0,24,25
 90 625 90 625 128.5 648.5 c 128,-1,26
 167 672 167 672 207 672 c 128,-1,27
 247 672 247 672 271.5 654.5 c 128,-1,28
 296 637 296 637 296 607 c 128,-1,29
 296 577 296 577 268 546 c 128,-1,30
 240 515 240 515 204 495 c 1,31,32
 288 470 288 470 288 413.5 c 128,-1,33
 288 357 288 357 235.5 317.5 c 128,-1,34
 183 278 183 278 114 278 c 0,35,36
 74 278 74 278 48.5 293 c 128,-1,37
 23 308 23 308 23 330 c 0,38,39
 23 363 23 363 53 363 c 0,40,41
 61 363 61 363 74 358 c 1,42,43
 74 330 74 330 88.5 314 c 128,-1,44
 103 298 103 298 128 298 c 0,0,1
EndSplineSet
EndChar

StartChar: acute
Encoding: 180 180 116
Width: 238
GlyphClass: 2
Flags: W
LayerCount: 2
Fore
SplineSet
53 483 m 0,0,1
 50 480 50 480 40.5 480 c 128,-1,2
 31 480 31 480 29 489 c 0,3,4
 29 493 29 493 50 520.5 c 128,-1,5
 71 548 71 548 103 608.5 c 128,-1,6
 135 669 135 669 151.5 690 c 128,-1,7
 168 711 168 711 190 711 c 0,8,9
 230 711 230 711 230 676 c 0,10,11
 230 626 230 626 53 483 c 0,0,1
EndSplineSet
EndChar

StartChar: mu
Encoding: 181 181 117
AltUni2: 0003bc.ffffffff.0
Width: 564
GlyphClass: 2
Flags: W
LayerCount: 2
Fore
SplineSet
336 20 m 0,0,1
 336 65 336 65 392 174 c 0,2,3
 416 220 416 220 421 232 c 1,4,-1
 418 232 l 1,5,6
 407 220 407 220 370.5 171.5 c 128,-1,7
 334 123 334 123 304.5 87 c 128,-1,8
 275 51 275 51 234 19 c 128,-1,9
 193 -13 193 -13 161 -13 c 0,10,11
 143 -13 143 -13 126 -2 c 1,12,13
 86 -95 86 -95 86 -199 c 0,14,15
 86 -217 86 -217 87 -235 c 1,16,17
 77 -236 77 -236 67 -236 c 0,18,19
 35 -236 35 -236 15.5 -217.5 c 128,-1,20
 -4 -199 -4 -199 -4 -163 c 0,21,22
 -4 -106 -4 -106 38.5 -13 c 128,-1,23
 81 80 81 80 131.5 158.5 c 128,-1,24
 182 237 182 237 224.5 302 c 128,-1,25
 267 367 267 367 267 375 c 128,-1,26
 267 383 267 383 257 383 c 128,-1,27
 247 383 247 383 233.5 376 c 128,-1,28
 220 369 220 369 212 362 c 0,29,30
 182 340 182 340 170 328 c 1,31,32
 166 326 166 326 165 326 c 0,33,34
 156 326 156 326 157 342 c 128,-1,35
 158 358 158 358 219 406 c 128,-1,36
 280 454 280 454 316 454 c 128,-1,37
 352 454 352 454 352 422 c 128,-1,38
 352 390 352 390 264.5 245 c 128,-1,39
 177 100 177 100 177 79 c 128,-1,40
 177 58 177 58 195 58 c 0,41,42
 227 58 227 58 297 128 c 0,43,44
 377 208 377 208 484 396 c 0,45,46
 487 401 487 401 493 412 c 128,-1,47
 499 423 499 423 502 428 c 128,-1,48
 505 433 505 433 510 440 c 0,49,50
 520 452 520 452 536 452 c 128,-1,51
 552 452 552 452 568 441 c 1,52,53
 567 430 567 430 492.5 254.5 c 128,-1,54
 418 79 418 79 418 63 c 128,-1,55
 418 47 418 47 435 47 c 128,-1,56
 452 47 452 47 473.5 68.5 c 128,-1,57
 495 90 495 90 503 122 c 1,58,59
 505 125 505 125 509 125 c 0,60,61
 520 125 520 125 520 114 c 0,62,63
 520 75 520 75 472.5 30 c 128,-1,64
 425 -15 425 -15 372 -15 c 0,65,66
 336 -15 336 -15 336 20 c 0,0,1
EndSplineSet
EndChar

StartChar: paragraph
Encoding: 182 182 118
Width: 522
GlyphClass: 2
Flags: W
LayerCount: 2
Fore
SplineSet
488 671 m 1,0,-1
 615 673 l 2,1,2
 620 673 620 673 622 666 c 1,3,4
 622 640 622 640 607 640 c 2,5,-1
 547 640 l 2,6,7
 526 640 526 640 500 552 c 2,8,-1
 387 177 l 2,9,10
 344 33 344 33 298 -51 c 128,-1,11
 252 -135 252 -135 175.5 -181.5 c 128,-1,12
 99 -228 99 -228 33 -228 c 0,13,14
 -2 -228 -2 -228 -23 -212.5 c 128,-1,15
 -44 -197 -44 -197 -44 -169 c 0,16,17
 -44 -131 -44 -131 -3 -113 c 1,18,19
 16 -132 16 -132 47.5 -147.5 c 128,-1,20
 79 -163 79 -163 105 -163 c 0,21,22
 181 -163 181 -163 282 168 c 1,23,-1
 422 637 l 1,24,25
 384 636 384 636 383 634 c 0,26,27
 313 414 313 414 279 319 c 1,28,29
 243 307 243 307 209 307 c 0,30,31
 145 307 145 307 113 338 c 128,-1,32
 81 369 81 369 78 420 c 1,33,-1
 79 446 l 2,34,35
 81 473 81 473 89 495 c 1,36,37
 142 671 142 671 373 671 c 2,38,-1
 488 671 l 1,0,-1
EndSplineSet
EndChar

StartChar: periodcentered
Encoding: 183 183 119
Width: 195
GlyphClass: 2
Flags: W
LayerCount: 2
Fore
SplineSet
109.5 319 m 128,-1,1
 136 319 136 319 149 302.5 c 128,-1,2
 162 286 162 286 162 274 c 0,3,4
 162 234 162 234 135.5 211 c 128,-1,5
 109 188 109 188 82.5 188 c 128,-1,6
 56 188 56 188 43.5 205 c 128,-1,7
 31 222 31 222 31 235 c 0,8,9
 31 275 31 275 57 297 c 128,-1,0
 83 319 83 319 109.5 319 c 128,-1,1
EndSplineSet
EndChar

StartChar: cedilla
Encoding: 184 184 120
Width: 205
GlyphClass: 2
Flags: W
LayerCount: 2
Fore
SplineSet
113 -50 m 0,0,1
 145 -50 145 -50 166.5 -63 c 128,-1,2
 188 -76 188 -76 188 -98 c 0,3,4
 188 -135 188 -135 157.5 -153.5 c 128,-1,5
 127 -172 127 -172 98.5 -172 c 128,-1,6
 70 -172 70 -172 46.5 -159 c 128,-1,7
 23 -146 23 -146 23 -128 c 0,8,9
 23 -125 23 -125 24 -121 c 0,10,11
 29 -101 29 -101 47 -101 c 128,-1,12
 65 -101 65 -101 68 -115 c 1,13,14
 52 -131 52 -131 70 -143 c 0,15,16
 81 -150 81 -150 94 -150 c 0,17,18
 134 -150 134 -150 142 -114 c 0,19,20
 143 -108 143 -108 143 -98.5 c 128,-1,21
 143 -89 143 -89 129.5 -80 c 128,-1,22
 116 -71 116 -71 101.5 -71 c 128,-1,23
 87 -71 87 -71 79 -71.5 c 128,-1,24
 71 -72 71 -72 67 -72 c 1,25,-1
 110 0 l 1,26,-1
 138 0 l 1,27,-1
 109 -50 l 1,28,29
 111 -50 111 -50 113 -50 c 0,0,1
EndSplineSet
EndChar

StartChar: onesuperior
Encoding: 185 185 121
Width: 276
GlyphClass: 2
Flags: W
LayerCount: 2
Fore
SplineSet
177 668 m 1,0,-1
 277 670 l 2,1,2
 281 670 281 670 281 666 c 128,-1,3
 281 662 281 662 279.5 652 c 128,-1,4
 278 642 278 642 272 642 c 2,5,-1
 222 642 l 2,6,7
 212 642 212 642 211 631 c 1,8,-1
 168 432 l 2,9,10
 163 406 163 406 163 393.5 c 128,-1,11
 163 381 163 381 165 379 c 128,-1,12
 167 377 167 377 172 377 c 2,13,-1
 216 377 l 2,14,15
 222 377 222 377 219 363 c 128,-1,16
 216 349 216 349 211 349 c 2,17,-1
 117 350 l 1,18,-1
 24 348 l 2,19,20
 21 348 21 348 21 352 c 128,-1,21
 21 356 21 356 23.5 366 c 128,-1,22
 26 376 26 376 29 376 c 2,23,-1
 79 376 l 2,24,25
 88 376 88 376 91 387 c 2,26,-1
 131 577 l 2,27,28
 138 607 138 607 138 624 c 128,-1,29
 138 641 138 641 129 641 c 2,30,-1
 86 641 l 2,31,32
 78 641 78 641 81 655 c 128,-1,33
 84 669 84 669 90 669 c 2,34,-1
 177 668 l 1,0,-1
EndSplineSet
EndChar

StartChar: ordmasculine
Encoding: 186 186 122
Width: 258
GlyphClass: 2
Flags: W
LayerCount: 2
Fore
SplineSet
128 429 m 0,0,1
 93 429 93 429 75 453 c 128,-1,2
 57 477 57 477 57 514 c 0,3,4
 57 576 57 576 97 631 c 128,-1,5
 137 686 137 686 197 686 c 0,6,7
 233 686 233 686 251.5 662.5 c 128,-1,8
 270 639 270 639 270 601 c 0,9,10
 270 540 270 540 229.5 484.5 c 128,-1,11
 189 429 189 429 128 429 c 0,0,1
144 458 m 0,12,13
 174 458 174 458 197 503.5 c 128,-1,14
 220 549 220 549 220 595 c 0,15,16
 220 653 220 653 183 653 c 0,17,18
 153 653 153 653 129.5 607 c 128,-1,19
 106 561 106 561 106 509.5 c 128,-1,20
 106 458 106 458 144 458 c 0,12,13
76 391 m 1,21,-1
 176 387 l 1,22,23
 217 387 217 387 255 397 c 1,24,25
 257 393 257 393 257 389 c 0,26,27
 250 340 250 340 166 340 c 1,28,-1
 59 345 l 1,29,30
 25 345 25 345 10 340 c 1,31,32
 7 348 7 348 7 355 c 2,33,-1
 7 360 l 1,34,35
 13 391 13 391 76 391 c 1,21,-1
EndSplineSet
EndChar

StartChar: guillemotright
Encoding: 187 187 123
Width: 390
GlyphClass: 2
Flags: W
LayerCount: 2
Fore
SplineSet
278.5 276 m 128,-1,1
 254 306 254 306 243.5 322 c 128,-1,2
 233 338 233 338 233 346 c 128,-1,3
 233 354 233 354 235 362 c 128,-1,4
 237 370 237 370 253 383 c 1,5,6
 280 343 280 343 315 302.5 c 128,-1,7
 350 262 350 262 372 242 c 1,8,-1
 393 221 l 1,9,10
 282 149 282 149 184 59 c 1,11,12
 164 85 164 85 199 118 c 0,13,14
 218 136 218 136 255 166 c 128,-1,15
 292 196 292 196 317 221 c 1,16,0
 303 246 303 246 278.5 276 c 128,-1,1
24 59 m 1,17,18
 16 69 16 69 16 76 c 0,19,20
 16 97 16 97 37 116.5 c 128,-1,21
 58 136 58 136 95 166 c 128,-1,22
 132 196 132 196 157 221 c 1,23,24
 143 246 143 246 118.5 276 c 128,-1,25
 94 306 94 306 83.5 322 c 128,-1,26
 73 338 73 338 73 346 c 128,-1,27
 73 354 73 354 75 362 c 128,-1,28
 77 370 77 370 93 383 c 1,29,30
 120 343 120 343 155 302.5 c 128,-1,31
 190 262 190 262 212 242 c 1,32,-1
 233 221 l 1,33,34
 122 149 122 149 24 59 c 1,17,18
EndSplineSet
EndChar

StartChar: onequarter
Encoding: 188 188 124
Width: 724
GlyphClass: 2
Flags: W
LayerCount: 2
Fore
SplineSet
90 -11 m 2,0,1
 70 -33 70 -33 58.5 -33 c 128,-1,2
 47 -33 47 -33 33 -16 c 1,3,-1
 668 682 l 2,4,5
 686 701 686 701 696 701 c 0,6,7
 711 701 711 701 724 684 c 1,8,9
 393 321 393 321 159 65 c 1,10,-1
 90 -11 l 2,0,1
216 668 m 1,11,-1
 316 670 l 2,12,13
 320 670 320 670 320 656 c 128,-1,14
 320 642 320 642 311 642 c 2,15,-1
 261 642 l 2,16,17
 251 642 251 642 250 631 c 1,18,-1
 207 432 l 2,19,20
 202 407 202 407 202 392 c 128,-1,21
 202 377 202 377 211 377 c 2,22,-1
 255 377 l 2,23,24
 258 377 258 377 258 363 c 128,-1,25
 258 349 258 349 250 349 c 2,26,-1
 156 350 l 1,27,-1
 63 348 l 2,28,29
 60 348 60 348 60 352 c 0,30,31
 60 376 60 376 68 376 c 2,32,-1
 118 376 l 2,33,34
 127 376 127 376 130 387 c 2,35,-1
 170 577 l 2,36,37
 177 609 177 609 177 625 c 128,-1,38
 177 641 177 641 168 641 c 2,39,-1
 125 641 l 2,40,41
 120 641 120 641 120 655 c 128,-1,42
 120 669 120 669 129 669 c 2,43,-1
 216 668 l 1,11,-1
492 -64 m 1,44,-1
 415 -66 l 2,45,46
 412 -66 412 -66 413 -55.5 c 128,-1,47
 414 -45 414 -45 418 -45 c 2,48,-1
 447 -45 l 2,49,50
 459 -45 459 -45 462 -28 c 2,51,-1
 480 57 l 1,52,-1
 327 57 l 2,53,54
 321 57 321 57 321 67.5 c 128,-1,55
 321 78 321 78 334 90 c 2,56,-1
 581 329 l 1,57,58
 603 329 603 329 603 314 c 1,59,60
 582 250 582 250 558 134 c 2,61,-1
 549 91 l 1,62,-1
 601 91 l 2,63,64
 608 91 608 91 608 82 c 0,65,66
 608 57 608 57 594 57 c 2,67,-1
 542 57 l 1,68,-1
 520 -43 l 1,69,-1
 550 -42 l 2,70,71
 554 -42 554 -42 554 -52.5 c 128,-1,72
 554 -63 554 -63 547 -64 c 1,73,-1
 492 -64 l 1,44,-1
515 229 m 1,74,-1
 371 90 l 1,75,-1
 487 90 l 1,76,-1
 518 228 l 1,77,-1
 515 229 l 1,74,-1
EndSplineSet
EndChar

StartChar: onehalf
Encoding: 189 189 125
Width: 724
GlyphClass: 2
Flags: W
LayerCount: 2
Fore
SplineSet
90.5 -10 m 128,-1,1
 90 -10 90 -10 90 -11 c 0,2,3
 70 -33 70 -33 58.5 -33 c 128,-1,4
 47 -33 47 -33 33 -16 c 1,5,-1
 668 682 l 2,6,7
 686 701 686 701 696 701 c 0,8,9
 711 701 711 701 724 684 c 1,10,-1
 91 -9 l 2,11,0
 91 -10 91 -10 90.5 -10 c 128,-1,1
580 255 m 0,12,13
 580 293 580 293 541 293 c 0,14,15
 513 293 513 293 492 272 c 128,-1,16
 471 251 471 251 471 227.5 c 128,-1,17
 471 204 471 204 476 196 c 1,18,19
 460 178 460 178 441.5 178 c 128,-1,20
 423 178 423 178 413 187 c 128,-1,21
 403 196 403 196 403 210 c 0,22,23
 403 252 403 252 453 287 c 128,-1,24
 503 322 503 322 548.5 322 c 128,-1,25
 594 322 594 322 621 303.5 c 128,-1,26
 648 285 648 285 648 252 c 128,-1,27
 648 219 648 219 629 188.5 c 128,-1,28
 610 158 610 158 574 130 c 0,29,30
 517 85 517 85 443 44 c 1,31,-1
 444 41 l 1,32,33
 452 42 452 42 470 42 c 0,34,35
 563 42 563 42 606 69 c 1,36,-1
 616 96 l 2,37,38
 618 102 618 102 630.5 102 c 128,-1,39
 643 102 643 102 643 96 c 1,40,41
 624 41 624 41 611 -16 c 0,42,43
 610 -22 610 -22 603 -22 c 128,-1,44
 596 -22 596 -22 592 -20 c 0,45,46
 585 -17 585 -17 585 -16 c 2,47,-1
 589 0 l 1,48,-1
 350 0 l 2,49,50
 344 0 344 0 345 6.5 c 128,-1,51
 346 13 346 13 353 17 c 0,52,53
 419 55 419 55 492 116 c 0,54,55
 530 148 530 148 555 185.5 c 128,-1,56
 580 223 580 223 580 255 c 0,12,13
215 668 m 1,57,-1
 315 670 l 2,58,59
 319 670 319 670 319 656 c 128,-1,60
 319 642 319 642 310 642 c 2,61,-1
 260 642 l 2,62,63
 250 642 250 642 249 631 c 1,64,-1
 206 432 l 2,65,66
 201 407 201 407 201 392 c 128,-1,67
 201 377 201 377 210 377 c 2,68,-1
 254 377 l 2,69,70
 257 377 257 377 257 363 c 128,-1,71
 257 349 257 349 249 349 c 2,72,-1
 155 350 l 1,73,-1
 62 348 l 2,74,75
 59 348 59 348 59 352 c 0,76,77
 59 376 59 376 67 376 c 2,78,-1
 117 376 l 2,79,80
 126 376 126 376 129 387 c 2,81,-1
 169 577 l 2,82,83
 176 609 176 609 176 625 c 128,-1,84
 176 641 176 641 167 641 c 2,85,-1
 124 641 l 2,86,87
 119 641 119 641 119 655 c 128,-1,88
 119 669 119 669 128 669 c 2,89,-1
 215 668 l 1,57,-1
EndSplineSet
EndChar

StartChar: threequarters
Encoding: 190 190 126
Width: 728
GlyphClass: 2
Flags: W
LayerCount: 2
Fore
SplineSet
62 -33 m 128,-1,1
 51 -33 51 -33 37 -16 c 1,2,-1
 672 682 l 2,3,4
 690 701 690 701 700 701 c 0,5,6
 715 701 715 701 728 684 c 1,7,-1
 95 -9 l 2,8,0
 73 -33 73 -33 62 -33 c 128,-1,1
138 298 m 0,9,10
 182 298 182 298 211 330.5 c 128,-1,11
 240 363 240 363 240 406 c 0,12,13
 240 461 240 461 192 483 c 1,14,15
 149 466 149 466 136 466 c 128,-1,16
 123 466 123 466 123 475 c 0,17,18
 123 487 123 487 141.5 494 c 128,-1,19
 160 501 160 501 184 501 c 1,20,21
 208 515 208 515 227.5 543 c 128,-1,22
 247 571 247 571 247 600 c 0,23,24
 247 650 247 650 209 650 c 0,25,26
 188 650 188 650 169.5 637 c 128,-1,27
 151 624 151 624 151 610 c 128,-1,28
 151 596 151 596 157 585 c 1,29,30
 148 570 148 570 133 570 c 128,-1,31
 118 570 118 570 109 576.5 c 128,-1,32
 100 583 100 583 100 594 c 0,33,34
 100 625 100 625 138.5 648.5 c 128,-1,35
 177 672 177 672 217 672 c 128,-1,36
 257 672 257 672 281.5 654.5 c 128,-1,37
 306 637 306 637 306 607 c 128,-1,38
 306 577 306 577 278 546 c 128,-1,39
 250 515 250 515 214 495 c 1,40,41
 298 470 298 470 298 413.5 c 128,-1,42
 298 357 298 357 245.5 317.5 c 128,-1,43
 193 278 193 278 124 278 c 0,44,45
 84 278 84 278 58.5 293 c 128,-1,46
 33 308 33 308 33 330 c 0,47,48
 33 363 33 363 63 363 c 0,49,50
 71 363 71 363 84 358 c 1,51,52
 84 330 84 330 98.5 314 c 128,-1,53
 113 298 113 298 138 298 c 0,9,10
497 -64 m 1,54,-1
 420 -66 l 2,55,56
 417 -66 417 -66 418 -55.5 c 128,-1,57
 419 -45 419 -45 423 -45 c 2,58,-1
 452 -45 l 2,59,60
 464 -45 464 -45 467 -28 c 2,61,-1
 485 57 l 1,62,-1
 332 57 l 2,63,64
 326 57 326 57 326 67.5 c 128,-1,65
 326 78 326 78 339 90 c 2,66,-1
 586 329 l 1,67,68
 608 329 608 329 608 314 c 1,69,70
 587 250 587 250 563 134 c 2,71,-1
 554 91 l 1,72,-1
 606 91 l 2,73,74
 613 91 613 91 613 82 c 0,75,76
 613 57 613 57 599 57 c 2,77,-1
 547 57 l 1,78,-1
 525 -43 l 1,79,-1
 555 -42 l 2,80,81
 559 -42 559 -42 559 -52.5 c 128,-1,82
 559 -63 559 -63 552 -64 c 1,83,-1
 497 -64 l 1,54,-1
520 229 m 1,84,-1
 376 90 l 1,85,-1
 492 90 l 1,86,-1
 523 228 l 1,87,-1
 520 229 l 1,84,-1
EndSplineSet
EndChar

StartChar: questiondown
Encoding: 191 191 127
Width: 402
GlyphClass: 2
Flags: W
LayerCount: 2
Fore
SplineSet
325 205 m 0,0,1
 345 205 345 205 345 155.5 c 128,-1,2
 345 106 345 106 320.5 71 c 128,-1,3
 296 36 296 36 261 18.5 c 128,-1,4
 226 1 226 1 190 -14 c 0,5,6
 106 -51 106 -51 106 -113 c 0,7,8
 106 -143 106 -143 137 -160.5 c 128,-1,9
 168 -178 168 -178 205.5 -184.5 c 128,-1,10
 243 -191 243 -191 275.5 -211 c 128,-1,11
 308 -231 308 -231 309 -259 c 128,-1,12
 310 -287 310 -287 302 -305.5 c 128,-1,13
 294 -324 294 -324 286 -332 c 2,14,-1
 279 -339 l 1,15,16
 262 -310 262 -310 219 -288.5 c 128,-1,17
 176 -267 176 -267 136 -256 c 128,-1,18
 96 -245 96 -245 64.5 -219.5 c 128,-1,19
 33 -194 33 -194 33 -155 c 0,20,21
 33 -96 33 -96 62 -54.5 c 128,-1,22
 91 -13 91 -13 132 9.5 c 128,-1,23
 173 32 173 32 214 52 c 0,24,25
 313 99 313 99 313 172 c 1,26,-1
 308 197 l 1,27,28
 316 205 316 205 325 205 c 0,0,1
256.5 334.5 m 128,-1,30
 273 352 273 352 296.5 352 c 128,-1,31
 320 352 320 352 337 335.5 c 128,-1,32
 354 319 354 319 354 296 c 128,-1,33
 354 273 354 273 338.5 255.5 c 128,-1,34
 323 238 323 238 299.5 238 c 128,-1,35
 276 238 276 238 258 253.5 c 128,-1,36
 240 269 240 269 240 293 c 128,-1,29
 240 317 240 317 256.5 334.5 c 128,-1,30
EndSplineSet
EndChar

StartChar: Agrave
Encoding: 192 192 128
Width: 558
GlyphClass: 2
Flags: W
LayerCount: 2
Fore
SplineSet
381.5 798 m 128,-1,1
 360 816 360 816 360 832.5 c 128,-1,2
 360 849 360 849 369.5 858.5 c 128,-1,3
 379 868 379 868 400.5 868 c 128,-1,4
 422 868 422 868 443.5 847 c 128,-1,5
 465 826 465 826 495 782 c 128,-1,6
 525 738 525 738 539 723.5 c 128,-1,7
 553 709 553 709 553 705 c 0,8,9
 551 696 551 696 541.5 696 c 128,-1,10
 532 696 532 696 517 707.5 c 128,-1,11
 502 719 502 719 452.5 749.5 c 128,-1,0
 403 780 403 780 381.5 798 c 128,-1,1
438 1 m 1,12,-1
 310 -2 l 2,13,14
 302 -2 302 -2 302 7 c 0,15,16
 302 32 302 32 317 32 c 2,17,-1
 372 32 l 2,18,19
 397 32 397 32 397 57 c 0,20,21
 397 79 397 79 383 169.5 c 128,-1,22
 369 260 369 260 364 299 c 1,23,24
 337 300 337 300 296 300 c 128,-1,25
 255 300 255 300 202 297 c 1,26,27
 114 149 114 149 65 48 c 1,28,29
 59 33 59 33 71 33 c 2,30,-1
 138 33 l 2,31,32
 145 33 145 33 145 16.5 c 128,-1,33
 145 0 145 0 129 0 c 2,34,-1
 -1 1 l 1,35,36
 -1 1 -1 1 -112 -2 c 0,37,38
 -120 -2 -120 -2 -120 8 c 0,39,40
 -120 32 -120 32 -105 32 c 2,41,-1
 -58 32 l 2,42,43
 -35 32 -35 32 -20 54 c 0,44,45
 6 93 6 93 74 190 c 0,46,47
 207 378 207 378 302 545 c 0,48,49
 341 612 341 612 385 649.5 c 128,-1,50
 429 687 429 687 467 687 c 0,51,52
 495 687 495 687 495 659 c 1,53,54
 463 649 463 649 449 633.5 c 128,-1,55
 435 618 435 618 435 593 c 0,56,57
 435 402 435 402 468 217.5 c 128,-1,58
 501 33 501 33 541 33 c 2,59,-1
 573 33 l 2,60,61
 581 33 581 33 581 16.5 c 128,-1,62
 581 0 581 0 568 0 c 2,63,-1
 438 1 l 1,12,-1
226 337 m 1,64,65
 283 336 283 336 313 336 c 128,-1,66
 343 336 343 336 359 336 c 1,67,68
 342 460 342 460 342 523 c 1,69,-1
 338 523 l 1,70,71
 319 490 319 490 226 337 c 1,64,65
EndSplineSet
EndChar

StartChar: Aacute
Encoding: 193 193 129
Width: 558
GlyphClass: 2
Flags: W
LayerCount: 2
Fore
SplineSet
439.5 748.5 m 128,-1,1
 390 718 390 718 375 706.5 c 128,-1,2
 360 695 360 695 350.5 695 c 128,-1,3
 341 695 341 695 339 704 c 0,4,5
 339 708 339 708 353 722.5 c 128,-1,6
 367 737 367 737 397 781 c 128,-1,7
 427 825 427 825 448.5 846 c 128,-1,8
 470 867 470 867 492 867 c 0,9,10
 532 867 532 867 532 832 c 0,11,12
 532 815 532 815 510.5 797 c 128,-1,0
 489 779 489 779 439.5 748.5 c 128,-1,1
438 1 m 1,13,-1
 310 -2 l 2,14,15
 302 -2 302 -2 302 7 c 0,16,17
 302 32 302 32 317 32 c 2,18,-1
 372 32 l 2,19,20
 397 32 397 32 397 57 c 0,21,22
 397 79 397 79 383 169.5 c 128,-1,23
 369 260 369 260 364 299 c 1,24,25
 337 300 337 300 296 300 c 128,-1,26
 255 300 255 300 202 297 c 1,27,28
 114 149 114 149 65 48 c 1,29,30
 59 33 59 33 71 33 c 2,31,-1
 138 33 l 2,32,33
 145 33 145 33 145 16.5 c 128,-1,34
 145 0 145 0 129 0 c 2,35,-1
 -1 1 l 1,36,-1
 -112 -2 l 2,37,38
 -120 -2 -120 -2 -120 8 c 0,39,40
 -120 32 -120 32 -105 32 c 2,41,-1
 -58 32 l 2,42,43
 -35 32 -35 32 -20 54 c 0,44,45
 6 93 6 93 74 190 c 0,46,47
 207 378 207 378 302 545 c 0,48,49
 341 612 341 612 385 649.5 c 128,-1,50
 429 687 429 687 467 687 c 0,51,52
 495 687 495 687 495 659 c 1,53,54
 463 649 463 649 449 633.5 c 128,-1,55
 435 618 435 618 435 593 c 0,56,57
 435 402 435 402 468 217.5 c 128,-1,58
 501 33 501 33 541 33 c 2,59,-1
 573 33 l 2,60,61
 581 33 581 33 581 16.5 c 128,-1,62
 581 0 581 0 568 0 c 2,63,-1
 438 1 l 1,13,-1
226 337 m 1,64,65
 283 336 283 336 313 336 c 128,-1,66
 343 336 343 336 359 336 c 1,67,68
 342 460 342 460 342 523 c 1,69,-1
 338 523 l 1,70,71
 319 490 319 490 226 337 c 1,64,65
EndSplineSet
EndChar

StartChar: Acircumflex
Encoding: 194 194 130
Width: 558
GlyphClass: 2
Flags: W
LayerCount: 2
Fore
SplineSet
346 702 m 2,0,1
 337 694 337 694 329 694 c 128,-1,2
 321 694 321 694 319 702 c 1,3,-1
 443 840 l 2,4,5
 456 853 456 853 469.5 853 c 128,-1,6
 483 853 483 853 493 840 c 1,7,-1
 565 702 l 1,8,9
 560 695 560 695 551.5 695 c 128,-1,10
 543 695 543 695 537 702 c 2,11,-1
 457 786 l 1,12,-1
 346 702 l 2,0,1
438 1 m 1,13,-1
 310 -2 l 2,14,15
 302 -2 302 -2 302 7 c 0,16,17
 302 32 302 32 317 32 c 2,18,-1
 372 32 l 2,19,20
 397 32 397 32 397 57 c 0,21,22
 397 79 397 79 383 169.5 c 128,-1,23
 369 260 369 260 364 299 c 1,24,25
 337 300 337 300 296 300 c 128,-1,26
 255 300 255 300 202 297 c 1,27,28
 114 149 114 149 65 48 c 1,29,30
 59 33 59 33 71 33 c 2,31,-1
 138 33 l 2,32,33
 145 33 145 33 145 16.5 c 128,-1,34
 145 0 145 0 129 0 c 2,35,-1
 -1 1 l 1,36,-1
 -112 -2 l 2,37,38
 -120 -2 -120 -2 -120 8 c 0,39,40
 -120 32 -120 32 -105 32 c 2,41,-1
 -58 32 l 2,42,43
 -35 32 -35 32 -20 54 c 0,44,45
 6 93 6 93 74 190 c 0,46,47
 207 378 207 378 302 545 c 0,48,49
 341 612 341 612 385 649.5 c 128,-1,50
 429 687 429 687 467 687 c 0,51,52
 495 687 495 687 495 659 c 1,53,54
 463 649 463 649 449 633.5 c 128,-1,55
 435 618 435 618 435 593 c 0,56,57
 435 402 435 402 468 217.5 c 128,-1,58
 501 33 501 33 541 33 c 2,59,-1
 573 33 l 2,60,61
 581 33 581 33 581 16.5 c 128,-1,62
 581 0 581 0 568 0 c 2,63,-1
 438 1 l 1,13,-1
226 337 m 1,64,65
 283 336 283 336 313 336 c 128,-1,66
 343 336 343 336 359 336 c 1,67,68
 342 460 342 460 342 523 c 1,69,-1
 338 523 l 1,70,71
 319 490 319 490 226 337 c 1,64,65
EndSplineSet
EndChar

StartChar: Atilde
Encoding: 195 195 131
Width: 558
GlyphClass: 2
Flags: W
LayerCount: 2
Fore
SplineSet
563 837 m 1,0,1
 564 843 564 843 574.5 843 c 128,-1,2
 585 843 585 843 585 832 c 0,3,4
 585 830 585 830 584 827 c 0,5,6
 558 730 558 730 484 730 c 0,7,8
 466 730 466 730 436 736 c 128,-1,9
 406 742 406 742 388 742 c 0,10,11
 329 742 329 742 307 700 c 0,12,13
 304 693 304 693 296 693 c 0,14,15
 281 693 281 693 285 710 c 0,16,17
 297 753 297 753 327.5 778.5 c 128,-1,18
 358 804 358 804 383 804 c 128,-1,19
 408 804 408 804 437.5 798 c 128,-1,20
 467 792 467 792 491.5 792 c 128,-1,21
 516 792 516 792 533 799.5 c 128,-1,22
 550 807 550 807 563 837 c 1,0,1
438 1 m 1,23,-1
 310 -2 l 2,24,25
 302 -2 302 -2 302 7 c 0,26,27
 302 32 302 32 317 32 c 2,28,-1
 372 32 l 2,29,30
 397 32 397 32 397 57 c 0,31,32
 397 79 397 79 383 169.5 c 128,-1,33
 369 260 369 260 364 299 c 1,34,35
 337 300 337 300 296 300 c 128,-1,36
 255 300 255 300 202 297 c 1,37,38
 114 149 114 149 65 48 c 1,39,40
 59 33 59 33 71 33 c 2,41,-1
 138 33 l 2,42,43
 145 33 145 33 145 16.5 c 128,-1,44
 145 0 145 0 129 0 c 2,45,-1
 -1 1 l 1,46,-1
 -112 -2 l 2,47,48
 -120 -2 -120 -2 -120 8 c 0,49,50
 -120 32 -120 32 -105 32 c 2,51,-1
 -58 32 l 2,52,53
 -35 32 -35 32 -20 54 c 0,54,55
 6 93 6 93 74 190 c 0,56,57
 207 378 207 378 302 545 c 0,58,59
 341 612 341 612 385 649.5 c 128,-1,60
 429 687 429 687 467 687 c 0,61,62
 495 687 495 687 495 659 c 1,63,64
 463 649 463 649 449 633.5 c 128,-1,65
 435 618 435 618 435 593 c 0,66,67
 435 402 435 402 468 217.5 c 128,-1,68
 501 33 501 33 541 33 c 2,69,-1
 573 33 l 2,70,71
 581 33 581 33 581 16.5 c 128,-1,72
 581 0 581 0 568 0 c 2,73,74
 568 0 568 0 438 1 c 1,23,-1
226 337 m 1,75,76
 283 336 283 336 313 336 c 128,-1,77
 343 336 343 336 359 336 c 1,78,79
 342 460 342 460 342 523 c 1,80,-1
 338 523 l 1,81,82
 319 490 319 490 226 337 c 1,75,76
EndSplineSet
EndChar

StartChar: Adieresis
Encoding: 196 196 132
Width: 558
GlyphClass: 2
Flags: W
LayerCount: 2
Fore
SplineSet
398 729.5 m 128,-1,1
 384 715 384 715 364 715 c 128,-1,2
 344 715 344 715 331 729 c 128,-1,3
 318 743 318 743 318 763 c 128,-1,4
 318 783 318 783 332 796 c 128,-1,5
 346 809 346 809 364.5 809 c 128,-1,6
 383 809 383 809 397.5 795.5 c 128,-1,7
 412 782 412 782 412 763 c 128,-1,0
 412 744 412 744 398 729.5 c 128,-1,1
547 729 m 128,-1,9
 534 715 534 715 513.5 715 c 128,-1,10
 493 715 493 715 479.5 729.5 c 128,-1,11
 466 744 466 744 466 763.5 c 128,-1,12
 466 783 466 783 480 796 c 128,-1,13
 494 809 494 809 513 809 c 128,-1,14
 532 809 532 809 546 796 c 128,-1,15
 560 783 560 783 560 763 c 128,-1,8
 560 743 560 743 547 729 c 128,-1,9
438 1 m 1,16,-1
 310 -2 l 2,17,18
 302 -2 302 -2 302 7 c 0,19,20
 302 32 302 32 317 32 c 2,21,-1
 372 32 l 2,22,23
 397 32 397 32 397 57 c 0,24,25
 397 79 397 79 383 169.5 c 128,-1,26
 369 260 369 260 364 299 c 1,27,28
 337 300 337 300 296 300 c 128,-1,29
 255 300 255 300 202 297 c 1,30,31
 114 149 114 149 65 48 c 1,32,33
 59 33 59 33 71 33 c 2,34,-1
 138 33 l 2,35,36
 145 33 145 33 145 16.5 c 128,-1,37
 145 0 145 0 129 0 c 2,38,39
 129 0 129 0 -1 1 c 1,40,-1
 -112 -2 l 2,41,42
 -120 -2 -120 -2 -120 8 c 0,43,44
 -120 32 -120 32 -105 32 c 2,45,-1
 -58 32 l 2,46,47
 -35 32 -35 32 -20 54 c 0,48,49
 6 93 6 93 74 190 c 0,50,51
 207 378 207 378 302 545 c 0,52,53
 341 612 341 612 385 649.5 c 128,-1,54
 429 687 429 687 467 687 c 0,55,56
 495 687 495 687 495 659 c 1,57,58
 463 649 463 649 449 633.5 c 128,-1,59
 435 618 435 618 435 593 c 0,60,61
 435 402 435 402 468 217.5 c 128,-1,62
 501 33 501 33 541 33 c 2,63,-1
 573 33 l 2,64,65
 581 33 581 33 581 16.5 c 128,-1,66
 581 0 581 0 568 0 c 2,67,-1
 438 1 l 1,16,-1
226 337 m 1,68,69
 283 336 283 336 313 336 c 128,-1,70
 343 336 343 336 359 336 c 1,71,72
 342 460 342 460 342 523 c 1,73,-1
 338 523 l 1,74,75
 319 490 319 490 226 337 c 1,68,69
EndSplineSet
EndChar

StartChar: Aring
Encoding: 197 197 133
Width: 558
GlyphClass: 2
Flags: W
LayerCount: 2
Fore
SplineSet
471.5 733 m 128,-1,1
 448 710 448 710 414.5 710 c 128,-1,2
 381 710 381 710 356.5 733.5 c 128,-1,3
 332 757 332 757 332 789.5 c 128,-1,4
 332 822 332 822 356 845 c 128,-1,5
 380 868 380 868 412.5 868 c 128,-1,6
 445 868 445 868 470 845.5 c 128,-1,7
 495 823 495 823 495 789.5 c 128,-1,0
 495 756 495 756 471.5 733 c 128,-1,1
377.5 751 m 128,-1,9
 393 735 393 735 414.5 735 c 128,-1,10
 436 735 436 735 451 751.5 c 128,-1,11
 466 768 466 768 466 789.5 c 128,-1,12
 466 811 466 811 450.5 827.5 c 128,-1,13
 435 844 435 844 413 844 c 128,-1,14
 391 844 391 844 376.5 827.5 c 128,-1,15
 362 811 362 811 362 789 c 128,-1,8
 362 767 362 767 377.5 751 c 128,-1,9
438 1 m 1,16,-1
 310 -2 l 2,17,18
 302 -2 302 -2 302 7 c 0,19,20
 302 32 302 32 317 32 c 2,21,-1
 372 32 l 2,22,23
 397 32 397 32 397 57 c 0,24,25
 397 79 397 79 383 169.5 c 128,-1,26
 369 260 369 260 364 299 c 1,27,28
 337 300 337 300 296 300 c 128,-1,29
 255 300 255 300 202 297 c 1,30,31
 114 149 114 149 65 48 c 1,32,33
 59 33 59 33 71 33 c 2,34,-1
 138 33 l 2,35,36
 145 33 145 33 145 16.5 c 128,-1,37
 145 0 145 0 129 0 c 2,38,39
 129 0 129 0 -1 1 c 1,40,-1
 -112 -2 l 2,41,42
 -120 -2 -120 -2 -120 8 c 0,43,44
 -120 32 -120 32 -105 32 c 2,45,-1
 -58 32 l 2,46,47
 -35 32 -35 32 -20 54 c 0,48,49
 6 93 6 93 74 190 c 0,50,51
 207 378 207 378 302 545 c 0,52,53
 341 612 341 612 385 649.5 c 128,-1,54
 429 687 429 687 467 687 c 0,55,56
 495 687 495 687 495 659 c 1,57,58
 463 649 463 649 449 633.5 c 128,-1,59
 435 618 435 618 435 593 c 0,60,61
 435 402 435 402 468 217.5 c 128,-1,62
 501 33 501 33 541 33 c 2,63,-1
 573 33 l 2,64,65
 581 33 581 33 581 16.5 c 128,-1,66
 581 0 581 0 568 0 c 2,67,-1
 438 1 l 1,16,-1
226 337 m 1,68,69
 283 336 283 336 313 336 c 128,-1,70
 343 336 343 336 359 336 c 1,71,72
 342 460 342 460 342 523 c 1,73,-1
 338 523 l 1,74,75
 319 490 319 490 226 337 c 1,68,69
EndSplineSet
EndChar

StartChar: AE
Encoding: 198 198 134
Width: 886
GlyphClass: 2
Flags: W
LayerCount: 2
Fore
SplineSet
469 673 m 2,0,-1
 593 671 l 1,1,-1
 880 671 l 1,2,-1
 886 692 l 2,3,4
 888 701 888 701 901.5 701 c 128,-1,5
 915 701 915 701 915 693 c 0,6,7
 915 690 915 690 908 663 c 0,8,9
 889 582 889 582 889 540 c 0,10,11
 889 532 889 532 873.5 532 c 128,-1,12
 858 532 858 532 857 541 c 1,13,14
 857 601 857 601 836 613 c 1,15,16
 789 633 789 633 671 634 c 0,17,18
 653 634 653 634 643 623.5 c 128,-1,19
 633 613 633 613 628 588 c 2,20,-1
 573 352 l 1,21,22
 636 353 636 353 696 358 c 128,-1,23
 756 363 756 363 761 366 c 1,24,-1
 785 425 l 1,25,26
 789 432 789 432 802.5 432 c 128,-1,27
 816 432 816 432 816 425 c 0,28,29
 816 424 816 424 812 412 c 0,30,31
 783 320 783 320 776 247 c 1,32,33
 774 239 774 239 759.5 239 c 128,-1,34
 745 239 745 239 745 244 c 2,35,-1
 746 305 l 1,36,37
 726 316 726 316 567 320 c 1,38,39
 512 102 512 102 512 59 c 0,40,41
 512 40 512 40 524 40 c 2,42,-1
 573 40 l 2,43,44
 640 40 640 40 701.5 51.5 c 128,-1,45
 763 63 763 63 795 82 c 1,46,-1
 815 137 l 2,47,48
 818 145 818 145 833 145 c 128,-1,49
 848 145 848 145 848 139 c 0,50,51
 848 137 848 137 842 116 c 0,52,53
 813 26 813 26 803 -22 c 0,54,55
 802 -29 802 -29 787 -29 c 128,-1,56
 772 -29 772 -29 772 -23 c 1,57,-1
 778 0 l 1,58,-1
 531 0 l 1,59,-1
 308 -2 l 2,60,61
 302 -2 302 -2 302 7 c 0,62,63
 302 32 302 32 316 32 c 2,64,-1
 359 32 l 2,65,66
 384 32 384 32 394 41.5 c 128,-1,67
 404 51 404 51 410 78 c 2,68,-1
 466 320 l 1,69,70
 327 320 327 320 271 316 c 1,71,72
 221 263 221 263 148 193.5 c 128,-1,73
 75 124 75 124 37.5 86 c 128,-1,74
 0 48 0 48 0 37 c 0,75,76
 0 33 0 33 8 33 c 2,77,-1
 67 33 l 2,78,79
 75 33 75 33 75.5 23 c 128,-1,80
 76 13 76 13 71.5 6.5 c 128,-1,81
 67 0 67 0 60 0 c 2,82,-1
 -59 1 l 1,83,-1
 -181 -2 l 2,84,85
 -190 -2 -190 -2 -190 8 c 0,86,87
 -190 11 -190 11 -190 13 c 0,88,89
 -190 32 -190 32 -176 32 c 0,90,91
 -103 32 -103 32 -78 54 c 0,92,93
 17 137 17 137 225 337 c 128,-1,94
 433 537 433 537 530 620 c 0,95,96
 531 622 531 622 530 631 c 128,-1,97
 529 640 529 640 519 640 c 2,98,-1
 461 640 l 2,99,100
 456 640 456 640 456 649 c 0,101,102
 456 673 456 673 469 673 c 2,0,-1
518 546 m 1,103,104
 418 459 418 459 314 358 c 1,105,106
 392 352 392 352 473 352 c 1,107,-1
 518 546 l 1,103,104
EndSplineSet
EndChar

StartChar: Ccedilla
Encoding: 199 199 135
Width: 638
GlyphClass: 2
Flags: W
LayerCount: 2
Fore
SplineSet
589 502 m 1,0,1
 603 551 603 551 603 565 c 0,2,3
 602 594 602 594 566.5 612 c 128,-1,4
 531 630 531 630 465 630 c 0,5,6
 366 630 366 630 290 576.5 c 128,-1,7
 214 523 214 523 176 440 c 128,-1,8
 138 357 138 357 138 261 c 128,-1,9
 138 165 138 165 200 105.5 c 128,-1,10
 262 46 262 46 349 46 c 128,-1,11
 436 46 436 46 519 111 c 1,12,-1
 545 177 l 1,13,14
 552 189 552 189 560 189 c 0,15,16
 572 189 572 189 584 162 c 1,17,18
 550 100 550 100 520 -4 c 0,19,20
 513 -26 513 -26 503 -26 c 0,21,22
 485 -26 485 -26 478 -21 c 1,23,-1
 484 8 l 1,24,25
 484 16 484 16 476 16 c 0,26,27
 474 16 474 16 421.5 2.5 c 128,-1,28
 369 -11 369 -11 326 -11 c 0,29,30
 194 -11 194 -11 105.5 59 c 128,-1,31
 17 129 17 129 17 247 c 128,-1,32
 17 365 17 365 88 469 c 128,-1,33
 159 573 159 573 266.5 629.5 c 128,-1,34
 374 686 374 686 486 686 c 0,35,36
 500 686 500 686 526 684 c 2,37,-1
 609 675 l 1,38,39
 637 675 637 675 648 678.5 c 128,-1,40
 659 682 659 682 669 692 c 1,41,42
 676 697 676 697 680 697 c 0,43,44
 689 697 689 697 701 685 c 1,45,46
 679 662 679 662 658.5 607.5 c 128,-1,47
 638 553 638 553 638 515 c 2,48,-1
 638 513 l 2,49,50
 638 505 638 505 627 499 c 128,-1,51
 616 493 616 493 602.5 493 c 128,-1,52
 589 493 589 493 589 502 c 1,0,1
325 -50 m 0,53,54
 357 -50 357 -50 378.5 -63 c 128,-1,55
 400 -76 400 -76 400 -98 c 0,56,57
 400 -135 400 -135 369.5 -153.5 c 128,-1,58
 339 -172 339 -172 310.5 -172 c 128,-1,59
 282 -172 282 -172 258.5 -159 c 128,-1,60
 235 -146 235 -146 235 -128 c 0,61,62
 235 -125 235 -125 236 -121 c 0,63,64
 241 -101 241 -101 259 -101 c 128,-1,65
 277 -101 277 -101 280 -115 c 1,66,67
 264 -131 264 -131 282 -143 c 0,68,69
 293 -150 293 -150 306 -150 c 0,70,71
 346 -150 346 -150 354 -114 c 0,72,73
 355 -108 355 -108 355 -98.5 c 128,-1,74
 355 -89 355 -89 341.5 -80 c 128,-1,75
 328 -71 328 -71 313.5 -71 c 128,-1,76
 299 -71 299 -71 291 -71.5 c 128,-1,77
 283 -72 283 -72 279 -72 c 1,78,-1
 322 0 l 1,79,-1
 350 0 l 1,80,-1
 321 -50 l 1,81,82
 323 -50 323 -50 325 -50 c 0,53,54
EndSplineSet
EndChar

StartChar: Egrave
Encoding: 200 200 136
Width: 584
GlyphClass: 2
Flags: W
LayerCount: 2
Fore
SplineSet
289.5 798 m 128,-1,1
 268 816 268 816 268 832.5 c 128,-1,2
 268 849 268 849 277.5 858.5 c 128,-1,3
 287 868 287 868 308.5 868 c 128,-1,4
 330 868 330 868 351.5 847 c 128,-1,5
 373 826 373 826 403 782 c 128,-1,6
 433 738 433 738 447 723.5 c 128,-1,7
 461 709 461 709 461 705 c 0,8,9
 459 696 459 696 449.5 696 c 128,-1,10
 440 696 440 696 425 707.5 c 128,-1,11
 410 719 410 719 360.5 749.5 c 128,-1,0
 311 780 311 780 289.5 798 c 128,-1,1
463 -37 m 1,12,-1
 452 -38 l 1,13,14
 434 -38 434 -38 434 -24 c 0,15,16
 434 -13 434 -13 444 13 c 1,17,18
 374 -14 374 -14 306 -14 c 128,-1,19
 238 -14 238 -14 157.5 0.5 c 128,-1,20
 77 15 77 15 37 15 c 128,-1,21
 -3 15 -3 15 -43 4 c 1,22,23
 -43 15 -43 15 -28.5 27.5 c 128,-1,24
 -14 40 -14 40 14.5 45 c 128,-1,25
 43 50 43 50 69 85.5 c 128,-1,26
 95 121 95 121 119 207 c 2,27,-1
 236 618 l 1,28,29
 170 616 170 616 93 579 c 1,30,31
 88 584 88 584 88.5 597 c 128,-1,32
 89 610 89 610 116.5 627 c 128,-1,33
 144 644 144 644 217 657.5 c 128,-1,34
 290 671 290 671 396 671 c 2,35,-1
 505 670 l 2,36,37
 553 670 553 670 584 671 c 0,38,39
 585 671 585 671 586 678.5 c 128,-1,40
 587 686 587 686 592.5 693.5 c 128,-1,41
 598 701 598 701 609 701 c 128,-1,42
 620 701 620 701 620 694 c 128,-1,43
 620 687 620 687 603 629 c 128,-1,44
 586 571 586 571 586 542 c 0,45,46
 586 532 586 532 570 532 c 128,-1,47
 554 532 554 532 554 540 c 2,48,-1
 555 568 l 2,49,50
 555 589 555 589 548 602 c 0,51,52
 534 631 534 631 369 631 c 0,53,54
 339 631 339 631 326 585 c 2,55,-1
 264 360 l 1,56,57
 268 359 268 359 320.5 359 c 128,-1,58
 373 359 373 359 449 366 c 1,59,60
 471 423 471 423 476 427.5 c 128,-1,61
 481 432 481 432 494 432 c 128,-1,62
 507 432 507 432 507 426 c 0,63,64
 507 413 507 413 494 382.5 c 128,-1,65
 481 352 481 352 472.5 326 c 128,-1,66
 464 300 464 300 461 263 c 0,67,68
 459 240 459 240 437 239 c 0,69,70
 425 239 425 239 425 246 c 0,71,72
 425 258 425 258 428 303 c 1,73,74
 368 318 368 318 251 318 c 1,75,76
 247 305 247 305 234 256.5 c 128,-1,77
 221 208 221 208 210.5 177 c 128,-1,78
 200 146 200 146 179.5 111 c 128,-1,79
 159 76 159 76 134 64 c 1,80,-1
 133 61 l 1,81,82
 146 65 146 65 171 65 c 128,-1,83
 196 65 196 65 253.5 56 c 128,-1,84
 311 47 311 47 350 47 c 0,85,86
 422 47 422 47 467 81 c 1,87,-1
 492 131 l 1,88,89
 492 135 492 135 499 138.5 c 128,-1,90
 506 142 506 142 515 142 c 128,-1,91
 524 142 524 142 525 134 c 1,92,-1
 463 -37 l 1,12,-1
EndSplineSet
EndChar

StartChar: Eacute
Encoding: 201 201 137
Width: 584
GlyphClass: 2
Flags: W
LayerCount: 2
Fore
SplineSet
439.5 748.5 m 128,-1,1
 390 718 390 718 375 706.5 c 128,-1,2
 360 695 360 695 350.5 695 c 128,-1,3
 341 695 341 695 339 704 c 0,4,5
 339 708 339 708 353 722.5 c 128,-1,6
 367 737 367 737 397 781 c 128,-1,7
 427 825 427 825 448.5 846 c 128,-1,8
 470 867 470 867 492 867 c 0,9,10
 532 867 532 867 532 832 c 0,11,12
 532 815 532 815 510.5 797 c 128,-1,0
 489 779 489 779 439.5 748.5 c 128,-1,1
463 -37 m 1,13,-1
 452 -38 l 1,14,15
 434 -38 434 -38 434 -24 c 0,16,17
 434 -13 434 -13 444 13 c 1,18,19
 374 -14 374 -14 306 -14 c 128,-1,20
 238 -14 238 -14 157.5 0.5 c 128,-1,21
 77 15 77 15 37 15 c 128,-1,22
 -3 15 -3 15 -43 4 c 1,23,24
 -43 15 -43 15 -28.5 27.5 c 128,-1,25
 -14 40 -14 40 14.5 45 c 128,-1,26
 43 50 43 50 69 85.5 c 128,-1,27
 95 121 95 121 119 207 c 2,28,-1
 236 618 l 1,29,30
 170 616 170 616 93 579 c 1,31,32
 88 584 88 584 88.5 597 c 128,-1,33
 89 610 89 610 116.5 627 c 128,-1,34
 144 644 144 644 217 657.5 c 128,-1,35
 290 671 290 671 396 671 c 2,36,-1
 505 670 l 2,37,38
 553 670 553 670 584 671 c 0,39,40
 585 671 585 671 586 678.5 c 128,-1,41
 587 686 587 686 592.5 693.5 c 128,-1,42
 598 701 598 701 609 701 c 128,-1,43
 620 701 620 701 620 694 c 128,-1,44
 620 687 620 687 603 629 c 128,-1,45
 586 571 586 571 586 542 c 0,46,47
 586 532 586 532 570 532 c 128,-1,48
 554 532 554 532 554 540 c 2,49,-1
 555 568 l 2,50,51
 555 589 555 589 548 602 c 0,52,53
 534 631 534 631 369 631 c 0,54,55
 339 631 339 631 326 585 c 2,56,-1
 264 360 l 1,57,58
 268 359 268 359 320.5 359 c 128,-1,59
 373 359 373 359 449 366 c 1,60,61
 471 423 471 423 476 427.5 c 128,-1,62
 481 432 481 432 494 432 c 128,-1,63
 507 432 507 432 507 426 c 0,64,65
 507 413 507 413 494 382.5 c 128,-1,66
 481 352 481 352 472.5 326 c 128,-1,67
 464 300 464 300 461 263 c 0,68,69
 459 240 459 240 437 239 c 0,70,71
 425 239 425 239 425 246 c 0,72,73
 425 258 425 258 428 303 c 1,74,75
 368 318 368 318 251 318 c 1,76,77
 247 305 247 305 234 256.5 c 128,-1,78
 221 208 221 208 210.5 177 c 128,-1,79
 200 146 200 146 179.5 111 c 128,-1,80
 159 76 159 76 134 64 c 1,81,-1
 133 61 l 1,82,83
 146 65 146 65 171 65 c 128,-1,84
 196 65 196 65 253.5 56 c 128,-1,85
 311 47 311 47 350 47 c 0,86,87
 422 47 422 47 467 81 c 1,88,-1
 492 131 l 1,89,90
 492 135 492 135 499 138.5 c 128,-1,91
 506 142 506 142 515 142 c 128,-1,92
 524 142 524 142 525 134 c 1,93,-1
 463 -37 l 1,13,-1
EndSplineSet
EndChar

StartChar: Ecircumflex
Encoding: 202 202 138
Width: 584
GlyphClass: 2
Flags: W
LayerCount: 2
Fore
SplineSet
302 706 m 2,0,1
 293 698 293 698 285 698 c 128,-1,2
 277 698 277 698 275 706 c 1,3,-1
 399 844 l 2,4,5
 412 857 412 857 425.5 857 c 128,-1,6
 439 857 439 857 449 844 c 1,7,-1
 521 706 l 1,8,9
 516 699 516 699 507.5 699 c 128,-1,10
 499 699 499 699 493 706 c 2,11,-1
 413 790 l 1,12,-1
 302 706 l 2,0,1
463 -37 m 1,13,-1
 452 -38 l 1,14,15
 434 -38 434 -38 434 -24 c 0,16,17
 434 -13 434 -13 444 13 c 1,18,19
 374 -14 374 -14 306 -14 c 128,-1,20
 238 -14 238 -14 157.5 0.5 c 128,-1,21
 77 15 77 15 37 15 c 128,-1,22
 -3 15 -3 15 -43 4 c 1,23,24
 -43 15 -43 15 -28.5 27.5 c 128,-1,25
 -14 40 -14 40 14.5 45 c 128,-1,26
 43 50 43 50 69 85.5 c 128,-1,27
 95 121 95 121 119 207 c 2,28,-1
 236 618 l 1,29,30
 170 616 170 616 93 579 c 1,31,32
 88 584 88 584 88.5 597 c 128,-1,33
 89 610 89 610 116.5 627 c 128,-1,34
 144 644 144 644 217 657.5 c 128,-1,35
 290 671 290 671 396 671 c 2,36,-1
 505 670 l 2,37,38
 553 670 553 670 584 671 c 0,39,40
 585 671 585 671 586 678.5 c 128,-1,41
 587 686 587 686 592.5 693.5 c 128,-1,42
 598 701 598 701 609 701 c 128,-1,43
 620 701 620 701 620 694 c 128,-1,44
 620 687 620 687 603 629 c 128,-1,45
 586 571 586 571 586 542 c 0,46,47
 586 532 586 532 570 532 c 128,-1,48
 554 532 554 532 554 540 c 2,49,-1
 555 568 l 2,50,51
 555 589 555 589 548 602 c 0,52,53
 534 631 534 631 369 631 c 0,54,55
 339 631 339 631 326 585 c 2,56,-1
 264 360 l 1,57,58
 268 359 268 359 320.5 359 c 128,-1,59
 373 359 373 359 449 366 c 1,60,61
 471 423 471 423 476 427.5 c 128,-1,62
 481 432 481 432 494 432 c 128,-1,63
 507 432 507 432 507 426 c 0,64,65
 507 413 507 413 494 382.5 c 128,-1,66
 481 352 481 352 472.5 326 c 128,-1,67
 464 300 464 300 461 263 c 0,68,69
 459 240 459 240 437 239 c 0,70,71
 425 239 425 239 425 246 c 0,72,73
 425 258 425 258 428 303 c 1,74,75
 368 318 368 318 251 318 c 1,76,77
 247 305 247 305 234 256.5 c 128,-1,78
 221 208 221 208 210.5 177 c 128,-1,79
 200 146 200 146 179.5 111 c 128,-1,80
 159 76 159 76 134 64 c 1,81,-1
 133 61 l 1,82,83
 146 65 146 65 171 65 c 128,-1,84
 196 65 196 65 253.5 56 c 128,-1,85
 311 47 311 47 350 47 c 0,86,87
 422 47 422 47 467 81 c 1,88,-1
 492 131 l 1,89,90
 492 135 492 135 499 138.5 c 128,-1,91
 506 142 506 142 515 142 c 128,-1,92
 524 142 524 142 525 134 c 1,93,-1
 463 -37 l 1,13,-1
EndSplineSet
EndChar

StartChar: Edieresis
Encoding: 203 203 139
Width: 584
GlyphClass: 2
Flags: W
LayerCount: 2
Fore
SplineSet
375 729.5 m 128,-1,1
 361 715 361 715 341 715 c 128,-1,2
 321 715 321 715 308 729 c 128,-1,3
 295 743 295 743 295 763 c 128,-1,4
 295 783 295 783 309 796 c 128,-1,5
 323 809 323 809 341.5 809 c 128,-1,6
 360 809 360 809 374.5 795.5 c 128,-1,7
 389 782 389 782 389 763 c 128,-1,0
 389 744 389 744 375 729.5 c 128,-1,1
524 729 m 128,-1,9
 511 715 511 715 490.5 715 c 128,-1,10
 470 715 470 715 456.5 729.5 c 128,-1,11
 443 744 443 744 443 763.5 c 128,-1,12
 443 783 443 783 457 796 c 128,-1,13
 471 809 471 809 490 809 c 128,-1,14
 509 809 509 809 523 796 c 128,-1,15
 537 783 537 783 537 763 c 128,-1,8
 537 743 537 743 524 729 c 128,-1,9
463 -37 m 1,16,-1
 452 -38 l 1,17,18
 434 -38 434 -38 434 -24 c 0,19,20
 434 -13 434 -13 444 13 c 1,21,22
 374 -14 374 -14 306 -14 c 128,-1,23
 238 -14 238 -14 157.5 0.5 c 128,-1,24
 77 15 77 15 37 15 c 128,-1,25
 -3 15 -3 15 -43 4 c 1,26,27
 -43 15 -43 15 -28.5 27.5 c 128,-1,28
 -14 40 -14 40 14.5 45 c 128,-1,29
 43 50 43 50 69 85.5 c 128,-1,30
 95 121 95 121 119 207 c 2,31,-1
 236 618 l 1,32,33
 170 616 170 616 93 579 c 1,34,35
 88 584 88 584 88.5 597 c 128,-1,36
 89 610 89 610 116.5 627 c 128,-1,37
 144 644 144 644 217 657.5 c 128,-1,38
 290 671 290 671 396 671 c 2,39,-1
 505 670 l 2,40,41
 553 670 553 670 584 671 c 0,42,43
 585 671 585 671 586 678.5 c 128,-1,44
 587 686 587 686 592.5 693.5 c 128,-1,45
 598 701 598 701 609 701 c 128,-1,46
 620 701 620 701 620 694 c 128,-1,47
 620 687 620 687 603 629 c 128,-1,48
 586 571 586 571 586 542 c 0,49,50
 586 532 586 532 570 532 c 128,-1,51
 554 532 554 532 554 540 c 2,52,-1
 555 568 l 2,53,54
 555 589 555 589 548 602 c 0,55,56
 534 631 534 631 369 631 c 0,57,58
 339 631 339 631 326 585 c 2,59,-1
 264 360 l 1,60,61
 268 359 268 359 320.5 359 c 128,-1,62
 373 359 373 359 449 366 c 1,63,64
 471 423 471 423 476 427.5 c 128,-1,65
 481 432 481 432 494 432 c 128,-1,66
 507 432 507 432 507 426 c 0,67,68
 507 413 507 413 494 382.5 c 128,-1,69
 481 352 481 352 472.5 326 c 128,-1,70
 464 300 464 300 461 263 c 0,71,72
 459 240 459 240 437 239 c 0,73,74
 425 239 425 239 425 246 c 0,75,76
 425 258 425 258 428 303 c 1,77,78
 368 318 368 318 251 318 c 1,79,80
 247 305 247 305 234 256.5 c 128,-1,81
 221 208 221 208 210.5 177 c 128,-1,82
 200 146 200 146 179.5 111 c 128,-1,83
 159 76 159 76 134 64 c 1,84,-1
 133 61 l 1,85,86
 146 65 146 65 171 65 c 128,-1,87
 196 65 196 65 253.5 56 c 128,-1,88
 311 47 311 47 350 47 c 0,89,90
 422 47 422 47 467 81 c 1,91,-1
 492 131 l 1,92,93
 492 135 492 135 499 138.5 c 128,-1,94
 506 142 506 142 515 142 c 128,-1,95
 524 142 524 142 525 134 c 1,96,-1
 463 -37 l 1,16,-1
EndSplineSet
EndChar

StartChar: Igrave
Encoding: 204 204 140
Width: 394
GlyphClass: 2
Flags: W
LayerCount: 2
Fore
SplineSet
184.5 798 m 128,-1,1
 163 816 163 816 163 832.5 c 128,-1,2
 163 849 163 849 172.5 858.5 c 128,-1,3
 182 868 182 868 203.5 868 c 128,-1,4
 225 868 225 868 246.5 847 c 128,-1,5
 268 826 268 826 298 782 c 128,-1,6
 328 738 328 738 342 723.5 c 128,-1,7
 356 709 356 709 356 705 c 0,8,9
 354 696 354 696 344.5 696 c 128,-1,10
 335 696 335 696 320 707.5 c 128,-1,11
 305 719 305 719 255.5 749.5 c 128,-1,0
 206 780 206 780 184.5 798 c 128,-1,1
412 671 m 0,12,13
 433 671 433 671 433 658 c 0,14,15
 433 652 433 652 427.5 645.5 c 128,-1,16
 422 639 422 639 420 636 c 1,17,-1
 362 636 l 2,18,19
 351 636 351 636 345 624.5 c 128,-1,20
 339 613 339 613 332 586 c 0,21,22
 265 296 265 296 230.5 188 c 128,-1,23
 196 80 196 80 149 41 c 1,24,25
 172 41 172 41 211 36 c 128,-1,26
 250 31 250 31 274 31 c 1,27,28
 271 18 271 18 257.5 7 c 128,-1,29
 244 -4 244 -4 230 -4 c 1,30,-1
 66 15 l 1,31,32
 26 15 26 15 -13 4 c 1,33,34
 -13 8 -13 8 -12 14 c 128,-1,35
 -11 20 -11 20 1 31.5 c 128,-1,36
 13 43 13 43 35 46 c 0,37,38
 71 51 71 51 94 85.5 c 128,-1,39
 117 120 117 120 138 207 c 2,40,-1
 240 623 l 1,41,42
 174 621 174 621 99 584 c 1,43,44
 93 592 93 592 93 598 c 0,45,46
 95 635 95 635 182.5 653 c 128,-1,47
 270 671 270 671 412 671 c 0,12,13
EndSplineSet
EndChar

StartChar: Iacute
Encoding: 205 205 141
Width: 394
GlyphClass: 2
Flags: W
LayerCount: 2
Fore
SplineSet
365.5 750.5 m 128,-1,1
 316 720 316 720 301 708.5 c 128,-1,2
 286 697 286 697 276.5 697 c 128,-1,3
 267 697 267 697 265 706 c 0,4,5
 265 710 265 710 279 724.5 c 128,-1,6
 293 739 293 739 323 783 c 128,-1,7
 353 827 353 827 374.5 848 c 128,-1,8
 396 869 396 869 418 869 c 0,9,10
 458 869 458 869 458 834 c 0,11,12
 458 817 458 817 436.5 799 c 128,-1,0
 415 781 415 781 365.5 750.5 c 128,-1,1
412 671 m 0,13,14
 433 671 433 671 433 658 c 0,15,16
 433 652 433 652 427.5 645.5 c 128,-1,17
 422 639 422 639 420 636 c 1,18,-1
 362 636 l 2,19,20
 351 636 351 636 345 624.5 c 128,-1,21
 339 613 339 613 332 586 c 0,22,23
 265 296 265 296 230.5 188 c 128,-1,24
 196 80 196 80 149 41 c 1,25,26
 172 41 172 41 211 36 c 128,-1,27
 250 31 250 31 274 31 c 1,28,29
 271 18 271 18 257.5 7 c 128,-1,30
 244 -4 244 -4 230 -4 c 1,31,-1
 66 15 l 1,32,33
 26 15 26 15 -13 4 c 1,34,35
 -13 8 -13 8 -12 14 c 128,-1,36
 -11 20 -11 20 1 31.5 c 128,-1,37
 13 43 13 43 35 46 c 0,38,39
 71 51 71 51 94 85.5 c 128,-1,40
 117 120 117 120 138 207 c 2,41,-1
 240 623 l 1,42,43
 174 621 174 621 99 584 c 1,44,45
 93 592 93 592 93 598 c 0,46,47
 95 635 95 635 182.5 653 c 128,-1,48
 270 671 270 671 412 671 c 0,13,14
EndSplineSet
EndChar

StartChar: Icircumflex
Encoding: 206 206 142
Width: 394
GlyphClass: 2
Flags: W
LayerCount: 2
Fore
SplineSet
206 708 m 2,0,1
 197 700 197 700 189 700 c 128,-1,2
 181 700 181 700 179 708 c 1,3,-1
 303 846 l 2,4,5
 316 859 316 859 329.5 859 c 128,-1,6
 343 859 343 859 353 846 c 1,7,-1
 425 708 l 1,8,9
 420 701 420 701 411.5 701 c 128,-1,10
 403 701 403 701 397 708 c 2,11,-1
 317 792 l 1,12,-1
 206 708 l 2,0,1
412 671 m 0,13,14
 433 671 433 671 433 658 c 0,15,16
 433 652 433 652 427.5 645.5 c 128,-1,17
 422 639 422 639 420 636 c 1,18,-1
 362 636 l 2,19,20
 351 636 351 636 345 624.5 c 128,-1,21
 339 613 339 613 332 586 c 0,22,23
 265 296 265 296 230.5 188 c 128,-1,24
 196 80 196 80 149 41 c 1,25,26
 172 41 172 41 211 36 c 128,-1,27
 250 31 250 31 274 31 c 1,28,29
 271 18 271 18 257.5 7 c 128,-1,30
 244 -4 244 -4 230 -4 c 1,31,-1
 66 15 l 1,32,33
 26 15 26 15 -13 4 c 1,34,35
 -13 8 -13 8 -12 14 c 128,-1,36
 -11 20 -11 20 1 31.5 c 128,-1,37
 13 43 13 43 35 46 c 0,38,39
 71 51 71 51 94 85.5 c 128,-1,40
 117 120 117 120 138 207 c 2,41,-1
 240 623 l 1,42,43
 174 621 174 621 99 584 c 1,44,45
 93 592 93 592 93 598 c 0,46,47
 95 635 95 635 182.5 653 c 128,-1,48
 270 671 270 671 412 671 c 0,13,14
EndSplineSet
EndChar

StartChar: Idieresis
Encoding: 207 207 143
Width: 394
GlyphClass: 2
Flags: W
LayerCount: 2
Fore
SplineSet
273 729.5 m 128,-1,1
 259 715 259 715 239 715 c 128,-1,2
 219 715 219 715 206 729 c 128,-1,3
 193 743 193 743 193 763 c 128,-1,4
 193 783 193 783 207 796 c 128,-1,5
 221 809 221 809 239.5 809 c 128,-1,6
 258 809 258 809 272.5 795.5 c 128,-1,7
 287 782 287 782 287 763 c 128,-1,0
 287 744 287 744 273 729.5 c 128,-1,1
422 729 m 128,-1,9
 409 715 409 715 388.5 715 c 128,-1,10
 368 715 368 715 354.5 729.5 c 128,-1,11
 341 744 341 744 341 763.5 c 128,-1,12
 341 783 341 783 355 796 c 128,-1,13
 369 809 369 809 388 809 c 128,-1,14
 407 809 407 809 421 796 c 128,-1,15
 435 783 435 783 435 763 c 128,-1,8
 435 743 435 743 422 729 c 128,-1,9
412 671 m 0,16,17
 433 671 433 671 433 658 c 0,18,19
 433 652 433 652 427.5 645.5 c 128,-1,20
 422 639 422 639 420 636 c 1,21,-1
 362 636 l 2,22,23
 351 636 351 636 345 624.5 c 128,-1,24
 339 613 339 613 332 586 c 0,25,26
 265 296 265 296 230.5 188 c 128,-1,27
 196 80 196 80 149 41 c 1,28,29
 172 41 172 41 211 36 c 128,-1,30
 250 31 250 31 274 31 c 1,31,32
 271 18 271 18 257.5 7 c 128,-1,33
 244 -4 244 -4 230 -4 c 1,34,-1
 66 15 l 1,35,36
 26 15 26 15 -13 4 c 1,37,38
 -13 8 -13 8 -12 14 c 128,-1,39
 -11 20 -11 20 1 31.5 c 128,-1,40
 13 43 13 43 35 46 c 0,41,42
 71 51 71 51 94 85.5 c 128,-1,43
 117 120 117 120 138 207 c 2,44,-1
 240 623 l 1,45,46
 174 621 174 621 99 584 c 1,47,48
 93 592 93 592 93 598 c 0,49,50
 95 635 95 635 182.5 653 c 128,-1,51
 270 671 270 671 412 671 c 0,16,17
EndSplineSet
EndChar

StartChar: Eth
Encoding: 208 208 144
Width: 690
GlyphClass: 2
Flags: W
LayerCount: 2
Fore
SplineSet
357 671 m 0,0,1
 674 671 674 671 674 362 c 0,2,3
 674 287 674 287 640.5 216.5 c 128,-1,4
 607 146 607 146 554 96 c 128,-1,5
 501 46 501 46 433 16 c 128,-1,6
 365 -14 365 -14 306 -14 c 128,-1,7
 247 -14 247 -14 164.5 0.5 c 128,-1,8
 82 15 82 15 42 15 c 128,-1,9
 2 15 2 15 -37 4 c 1,10,11
 -37 16 -37 16 -24 28 c 128,-1,12
 -11 40 -11 40 11 44 c 0,13,14
 45 50 45 50 68.5 85.5 c 128,-1,15
 92 121 92 121 110 207 c 2,16,-1
 133 317 l 1,17,18
 87 311 87 311 75 311 c 128,-1,19
 63 311 63 311 54.5 322.5 c 128,-1,20
 46 334 46 334 44 346 c 2,21,-1
 43 357 l 1,22,23
 89 357 89 357 143 363 c 1,24,-1
 196 618 l 1,25,26
 132 616 132 616 57 579 c 1,27,28
 52 584 52 584 51.5 597 c 128,-1,29
 51 610 51 610 78.5 627 c 128,-1,30
 106 644 106 644 178.5 657.5 c 128,-1,31
 251 671 251 671 357 671 c 0,0,1
339 51 m 0,32,33
 425 51 425 51 498 135 c 128,-1,34
 571 219 571 219 571 343 c 0,35,36
 571 631 571 631 332 631 c 0,37,38
 303 631 303 631 293 585 c 0,39,40
 277 509 277 509 250 379 c 1,41,42
 327 390 327 390 331 390 c 0,43,44
 360 390 360 390 360 366 c 0,45,46
 360 362 360 362 358 350 c 1,47,48
 302 346 302 346 241 335 c 1,49,50
 214 205 214 205 193 145 c 128,-1,51
 172 85 172 85 139 68 c 1,52,-1
 138 65 l 1,53,54
 151 69 151 69 176 69 c 128,-1,55
 201 69 201 69 250.5 60 c 128,-1,56
 300 51 300 51 339 51 c 0,32,33
EndSplineSet
EndChar

StartChar: Ntilde
Encoding: 209 209 145
Width: 747
GlyphClass: 2
Flags: W
LayerCount: 2
Fore
SplineSet
565 708 m 1,0,-1
 452 720 l 1,1,2
 393 720 393 720 371 678 c 0,3,4
 368 671 368 671 360 671 c 0,5,6
 345 671 345 671 349 688 c 0,7,8
 361 731 361 731 391.5 756.5 c 128,-1,9
 422 782 422 782 447 782 c 128,-1,10
 472 782 472 782 510 776 c 128,-1,11
 548 770 548 770 572.5 770 c 128,-1,12
 597 770 597 770 614 777.5 c 128,-1,13
 631 785 631 785 644 815 c 0,14,15
 646 821 646 821 654 821 c 0,16,17
 670 821 670 821 665 805 c 0,18,19
 639 708 639 708 565 708 c 1,0,-1
232 35 m 1,20,21
 213 -3 213 -3 185 -3 c 1,22,-1
 50 15 l 1,23,24
 11 15 11 15 -29 4 c 1,25,26
 -29 16 -29 16 -14.5 30.5 c 128,-1,27
 0 45 0 45 28 50 c 128,-1,28
 56 55 56 55 79.5 88 c 128,-1,29
 103 121 103 121 124 207 c 1,30,-1
 229 585 l 1,31,32
 215 606 215 606 198.5 616.5 c 128,-1,33
 182 627 182 627 171 628.5 c 128,-1,34
 160 630 160 630 137.5 630 c 128,-1,35
 115 630 115 630 84.5 617.5 c 128,-1,36
 54 605 54 605 44.5 605 c 128,-1,37
 35 605 35 605 35 618 c 1,38,39
 44 625 44 625 59.5 636 c 128,-1,40
 75 647 75 647 117 665.5 c 128,-1,41
 159 684 159 684 197.5 684 c 128,-1,42
 236 684 236 684 268.5 662.5 c 128,-1,43
 301 641 301 641 330 595.5 c 128,-1,44
 359 550 359 550 384 500 c 0,45,46
 469 334 469 334 545 222 c 1,47,48
 581 396 581 396 608.5 476 c 128,-1,49
 636 556 636 556 660.5 596.5 c 128,-1,50
 685 637 685 637 719.5 663 c 128,-1,51
 754 689 754 689 798.5 689 c 128,-1,52
 843 689 843 689 843 654 c 0,53,54
 843 627 843 627 822 606 c 1,55,56
 761 606 761 606 714.5 551.5 c 128,-1,57
 668 497 668 497 644 417 c 0,58,59
 597 260 597 260 597 138 c 0,60,61
 597 86 597 86 619 29 c 2,62,-1
 626 11 l 1,63,64
 626 -3 626 -3 615 -3 c 0,65,66
 562 -3 562 -3 270 513 c 1,67,68
 213 276 213 276 181 181 c 128,-1,69
 149 86 149 86 101 45 c 1,70,71
 124 45 124 45 166 40 c 128,-1,72
 208 35 208 35 232 35 c 1,20,21
EndSplineSet
EndChar

StartChar: Ograve
Encoding: 210 210 146
Width: 632
GlyphClass: 2
Flags: W
LayerCount: 2
Fore
SplineSet
309.5 810 m 128,-1,1
 288 828 288 828 288 844.5 c 128,-1,2
 288 861 288 861 297.5 870.5 c 128,-1,3
 307 880 307 880 328.5 880 c 128,-1,4
 350 880 350 880 371.5 859 c 128,-1,5
 393 838 393 838 423 794 c 128,-1,6
 453 750 453 750 467 735.5 c 128,-1,7
 481 721 481 721 481 717 c 0,8,9
 479 708 479 708 469.5 708 c 128,-1,10
 460 708 460 708 445 719.5 c 128,-1,11
 430 731 430 731 380.5 761.5 c 128,-1,0
 331 792 331 792 309.5 810 c 128,-1,1
199.5 610.5 m 128,-1,13
 289 684 289 684 398 684 c 128,-1,14
 507 684 507 684 565.5 613.5 c 128,-1,15
 624 543 624 543 624 437.5 c 128,-1,16
 624 332 624 332 578 231.5 c 128,-1,17
 532 131 532 131 441.5 61 c 128,-1,18
 351 -9 351 -9 238.5 -9 c 128,-1,19
 126 -9 126 -9 70 56.5 c 128,-1,20
 14 122 14 122 14 224.5 c 128,-1,21
 14 327 14 327 62 432 c 128,-1,12
 110 537 110 537 199.5 610.5 c 128,-1,13
484.5 570.5 m 128,-1,23
 451 625 451 625 379.5 625 c 128,-1,24
 308 625 308 625 246 565 c 128,-1,25
 184 505 184 505 153 420 c 128,-1,26
 122 335 122 335 122 247.5 c 128,-1,27
 122 160 122 160 158.5 103 c 128,-1,28
 195 46 195 46 267 46 c 128,-1,29
 339 46 339 46 398 107.5 c 128,-1,30
 457 169 457 169 487.5 256.5 c 128,-1,31
 518 344 518 344 518 430 c 128,-1,22
 518 516 518 516 484.5 570.5 c 128,-1,23
EndSplineSet
EndChar

StartChar: Oacute
Encoding: 211 211 147
Width: 632
GlyphClass: 2
Flags: W
LayerCount: 2
Fore
SplineSet
500.5 754.5 m 128,-1,1
 451 724 451 724 436 712.5 c 128,-1,2
 421 701 421 701 411.5 701 c 128,-1,3
 402 701 402 701 400 710 c 0,4,5
 400 714 400 714 414 728.5 c 128,-1,6
 428 743 428 743 458 787 c 128,-1,7
 488 831 488 831 509.5 852 c 128,-1,8
 531 873 531 873 552 873 c 0,9,10
 593 873 593 873 593 838 c 0,11,12
 593 821 593 821 571.5 803 c 128,-1,0
 550 785 550 785 500.5 754.5 c 128,-1,1
199.5 610.5 m 128,-1,14
 289 684 289 684 398 684 c 128,-1,15
 507 684 507 684 565.5 613.5 c 128,-1,16
 624 543 624 543 624 437.5 c 128,-1,17
 624 332 624 332 578 231.5 c 128,-1,18
 532 131 532 131 441.5 61 c 128,-1,19
 351 -9 351 -9 238.5 -9 c 128,-1,20
 126 -9 126 -9 70 56.5 c 128,-1,21
 14 122 14 122 14 224.5 c 128,-1,22
 14 327 14 327 62 432 c 128,-1,13
 110 537 110 537 199.5 610.5 c 128,-1,14
484.5 570.5 m 128,-1,24
 451 625 451 625 379.5 625 c 128,-1,25
 308 625 308 625 246 565 c 128,-1,26
 184 505 184 505 153 420 c 128,-1,27
 122 335 122 335 122 247.5 c 128,-1,28
 122 160 122 160 158.5 103 c 128,-1,29
 195 46 195 46 267 46 c 128,-1,30
 339 46 339 46 398 107.5 c 128,-1,31
 457 169 457 169 487.5 256.5 c 128,-1,32
 518 344 518 344 518 430 c 128,-1,23
 518 516 518 516 484.5 570.5 c 128,-1,24
EndSplineSet
EndChar

StartChar: Ocircumflex
Encoding: 212 212 148
Width: 632
GlyphClass: 2
Flags: W
LayerCount: 2
Fore
SplineSet
328 710 m 2,0,1
 319 702 319 702 311 702 c 128,-1,2
 303 702 303 702 301 710 c 1,3,-1
 425 848 l 2,4,5
 438 861 438 861 451.5 861 c 128,-1,6
 465 861 465 861 475 848 c 1,7,-1
 547 710 l 1,8,9
 542 703 542 703 533.5 703 c 128,-1,10
 525 703 525 703 519 710 c 2,11,-1
 439 794 l 1,12,-1
 328 710 l 2,0,1
199.5 610.5 m 128,-1,14
 289 684 289 684 398 684 c 128,-1,15
 507 684 507 684 565.5 613.5 c 128,-1,16
 624 543 624 543 624 437.5 c 128,-1,17
 624 332 624 332 578 231.5 c 128,-1,18
 532 131 532 131 441.5 61 c 128,-1,19
 351 -9 351 -9 238.5 -9 c 128,-1,20
 126 -9 126 -9 70 56.5 c 128,-1,21
 14 122 14 122 14 224.5 c 128,-1,22
 14 327 14 327 62 432 c 128,-1,13
 110 537 110 537 199.5 610.5 c 128,-1,14
484.5 570.5 m 128,-1,24
 451 625 451 625 379.5 625 c 128,-1,25
 308 625 308 625 246 565 c 128,-1,26
 184 505 184 505 153 420 c 128,-1,27
 122 335 122 335 122 247.5 c 128,-1,28
 122 160 122 160 158.5 103 c 128,-1,29
 195 46 195 46 267 46 c 128,-1,30
 339 46 339 46 398 107.5 c 128,-1,31
 457 169 457 169 487.5 256.5 c 128,-1,32
 518 344 518 344 518 430 c 128,-1,23
 518 516 518 516 484.5 570.5 c 128,-1,24
EndSplineSet
EndChar

StartChar: Otilde
Encoding: 213 213 149
Width: 632
GlyphClass: 2
Flags: W
LayerCount: 2
Fore
SplineSet
265 693 m 0,0,1
 250 693 250 693 254 710 c 0,2,3
 266 753 266 753 296.5 778.5 c 128,-1,4
 327 804 327 804 352 804 c 128,-1,5
 377 804 377 804 406.5 798 c 128,-1,6
 436 792 436 792 460.5 792 c 128,-1,7
 485 792 485 792 502 799.5 c 128,-1,8
 519 807 519 807 532 837 c 0,9,10
 534 843 534 843 542 843 c 0,11,12
 558 843 558 843 553 827 c 0,13,14
 527 730 527 730 453 730 c 0,15,16
 435 730 435 730 405 736 c 128,-1,17
 375 742 375 742 357 742 c 0,18,19
 298 742 298 742 276 700 c 0,20,21
 272 693 272 693 265 693 c 0,0,1
199.5 610.5 m 128,-1,23
 289 684 289 684 398 684 c 128,-1,24
 507 684 507 684 565.5 613.5 c 128,-1,25
 624 543 624 543 624 437.5 c 128,-1,26
 624 332 624 332 578 231.5 c 128,-1,27
 532 131 532 131 441.5 61 c 128,-1,28
 351 -9 351 -9 238.5 -9 c 128,-1,29
 126 -9 126 -9 70 56.5 c 128,-1,30
 14 122 14 122 14 224.5 c 128,-1,31
 14 327 14 327 62 432 c 128,-1,22
 110 537 110 537 199.5 610.5 c 128,-1,23
484.5 570.5 m 128,-1,33
 451 625 451 625 379.5 625 c 128,-1,34
 308 625 308 625 246 565 c 128,-1,35
 184 505 184 505 153 420 c 128,-1,36
 122 335 122 335 122 247.5 c 128,-1,37
 122 160 122 160 158.5 103 c 128,-1,38
 195 46 195 46 267 46 c 128,-1,39
 339 46 339 46 398 107.5 c 128,-1,40
 457 169 457 169 487.5 256.5 c 128,-1,41
 518 344 518 344 518 430 c 128,-1,32
 518 516 518 516 484.5 570.5 c 128,-1,33
EndSplineSet
EndChar

StartChar: Odieresis
Encoding: 214 214 150
Width: 632
GlyphClass: 2
Flags: W
LayerCount: 2
Fore
SplineSet
367 729.5 m 128,-1,1
 353 715 353 715 333 715 c 128,-1,2
 313 715 313 715 300 729 c 128,-1,3
 287 743 287 743 287 763 c 128,-1,4
 287 783 287 783 301 796 c 128,-1,5
 315 809 315 809 333.5 809 c 128,-1,6
 352 809 352 809 366.5 795.5 c 128,-1,7
 381 782 381 782 381 763 c 128,-1,0
 381 744 381 744 367 729.5 c 128,-1,1
516 729 m 128,-1,9
 503 715 503 715 482.5 715 c 128,-1,10
 462 715 462 715 448.5 729.5 c 128,-1,11
 435 744 435 744 435 763.5 c 128,-1,12
 435 783 435 783 449 796 c 128,-1,13
 463 809 463 809 482 809 c 128,-1,14
 501 809 501 809 515 796 c 128,-1,15
 529 783 529 783 529 763 c 128,-1,8
 529 743 529 743 516 729 c 128,-1,9
199.5 610.5 m 128,-1,17
 289 684 289 684 398 684 c 128,-1,18
 507 684 507 684 565.5 613.5 c 128,-1,19
 624 543 624 543 624 437.5 c 128,-1,20
 624 332 624 332 578 231.5 c 128,-1,21
 532 131 532 131 441.5 61 c 128,-1,22
 351 -9 351 -9 238.5 -9 c 128,-1,23
 126 -9 126 -9 70 56.5 c 128,-1,24
 14 122 14 122 14 224.5 c 128,-1,25
 14 327 14 327 62 432 c 128,-1,16
 110 537 110 537 199.5 610.5 c 128,-1,17
484.5 570.5 m 128,-1,27
 451 625 451 625 379.5 625 c 128,-1,28
 308 625 308 625 246 565 c 128,-1,29
 184 505 184 505 153 420 c 128,-1,30
 122 335 122 335 122 247.5 c 128,-1,31
 122 160 122 160 158.5 103 c 128,-1,32
 195 46 195 46 267 46 c 128,-1,33
 339 46 339 46 398 107.5 c 128,-1,34
 457 169 457 169 487.5 256.5 c 128,-1,35
 518 344 518 344 518 430 c 128,-1,26
 518 516 518 516 484.5 570.5 c 128,-1,27
EndSplineSet
EndChar

StartChar: multiply
Encoding: 215 215 151
Width: 496
GlyphClass: 2
Flags: W
LayerCount: 2
Fore
SplineSet
39 55 m 0,0,1
 22 55 22 55 15 81 c 1,2,-1
 228 256 l 1,3,-1
 84 438 l 1,4,5
 97 464 97 464 119 464 c 0,6,7
 129 464 129 464 139 451 c 2,8,-1
 267 287 l 1,9,-1
 463 451 l 2,10,11
 480 464 480 464 489 464 c 0,12,13
 508 464 508 464 514 438 c 1,14,-1
 291 256 l 1,15,-1
 431 81 l 1,16,17
 409 57 409 57 397.5 56 c 128,-1,18
 386 55 386 55 373 71 c 2,19,-1
 253 225 l 1,20,-1
 69 71 l 1,21,22
 48 55 48 55 39 55 c 0,0,1
EndSplineSet
EndChar

StartChar: Oslash
Encoding: 216 216 152
Width: 632
GlyphClass: 2
Flags: W
LayerCount: 2
Fore
SplineSet
566 612 m 1,0,1
 624 547 624 547 624 439.5 c 128,-1,2
 624 332 624 332 578 231.5 c 128,-1,3
 532 131 532 131 441.5 61 c 128,-1,4
 351 -9 351 -9 239 -9 c 0,5,6
 170 -9 170 -9 119 18 c 1,7,-1
 21 -113 l 1,8,9
 5 -137 5 -137 -9 -137 c 128,-1,10
 -23 -137 -23 -137 -36 -120 c 1,11,-1
 85 41 l 1,12,13
 14 103 14 103 14 225 c 0,14,15
 14 327 14 327 62 432 c 128,-1,16
 110 537 110 537 199.5 610.5 c 128,-1,17
 289 684 289 684 383.5 684 c 128,-1,18
 478 684 478 684 535 641 c 1,19,-1
 614 746 l 2,20,21
 629 766 629 766 639 766 c 0,22,23
 658 766 658 766 669 749 c 1,24,-1
 566 612 l 1,0,1
483 572 m 1,25,26
 448 625 448 625 378 625 c 128,-1,27
 308 625 308 625 246 565 c 128,-1,28
 184 505 184 505 153 420 c 128,-1,29
 122 335 122 335 122 254.5 c 128,-1,30
 122 174 122 174 147 124 c 1,31,-1
 483 572 l 1,25,26
487.5 256.5 m 128,-1,33
 518 344 518 344 518 414 c 128,-1,34
 518 484 518 484 504 529 c 1,35,-1
 171 86 l 1,36,37
 208 46 208 46 273.5 46 c 128,-1,38
 339 46 339 46 398 107.5 c 128,-1,32
 457 169 457 169 487.5 256.5 c 128,-1,33
EndSplineSet
EndChar

StartChar: Ugrave
Encoding: 217 217 153
Width: 644
GlyphClass: 2
Flags: W
LayerCount: 2
Fore
SplineSet
258.5 798 m 128,-1,1
 237 816 237 816 237 832.5 c 128,-1,2
 237 849 237 849 246.5 858.5 c 128,-1,3
 256 868 256 868 277.5 868 c 128,-1,4
 299 868 299 868 320.5 847 c 128,-1,5
 342 826 342 826 372 782 c 128,-1,6
 402 738 402 738 416 723.5 c 128,-1,7
 430 709 430 709 430 705 c 0,8,9
 428 696 428 696 418.5 696 c 128,-1,10
 409 696 409 696 394 707.5 c 128,-1,11
 379 719 379 719 329.5 749.5 c 128,-1,0
 280 780 280 780 258.5 798 c 128,-1,1
619 671 m 1,12,-1
 720 674 l 2,13,14
 724 674 724 674 724 668 c 2,15,-1
 724 665 l 2,16,17
 724 654 724 654 719 647 c 128,-1,18
 714 640 714 640 710 640 c 2,19,-1
 682 640 l 2,20,21
 660 640 660 640 633 538 c 0,22,23
 571 300 571 300 512 192 c 0,24,25
 479 133 479 133 440.5 87 c 128,-1,26
 402 41 402 41 346 13 c 128,-1,27
 290 -15 290 -15 224 -15 c 0,28,29
 139 -15 139 -15 82 37.5 c 128,-1,30
 25 90 25 90 25 178 c 1,31,32
 30 325 30 325 88 540 c 0,33,34
 107 608 107 608 107 635 c 1,35,-1
 3 639 l 1,36,37
 3 677 3 677 29 677 c 1,38,39
 136 672 136 672 176.5 672 c 128,-1,40
 217 672 217 672 258.5 676 c 128,-1,41
 300 680 300 680 309 680 c 0,42,43
 313 680 313 680 313 671 c 128,-1,44
 313 662 313 662 308 651.5 c 128,-1,45
 303 641 303 641 296 641 c 2,46,-1
 259 641 l 2,47,48
 234 641 234 641 223.5 631.5 c 128,-1,49
 213 622 213 622 208 595 c 1,50,51
 178 495 178 495 155.5 380 c 128,-1,52
 133 265 133 265 133 197 c 1,53,54
 137 127 137 127 169 90.5 c 128,-1,55
 201 54 201 54 258 54 c 128,-1,56
 315 54 315 54 364 88.5 c 128,-1,57
 413 123 413 123 444 179 c 128,-1,58
 475 235 475 235 498 299 c 128,-1,59
 521 363 521 363 532 430 c 0,60,61
 555 560 555 560 555 619 c 1,62,63
 554 639 554 639 545 639 c 2,64,-1
 482 637 l 1,65,-1
 484 648 l 1,66,67
 487 673 487 673 496 673 c 2,68,-1
 619 671 l 1,12,-1
EndSplineSet
EndChar

StartChar: Uacute
Encoding: 218 218 154
Width: 644
GlyphClass: 2
Flags: W
LayerCount: 2
Fore
SplineSet
474.5 748.5 m 128,-1,1
 425 718 425 718 410 706.5 c 128,-1,2
 395 695 395 695 385.5 695 c 128,-1,3
 376 695 376 695 374 704 c 0,4,5
 374 708 374 708 388 722.5 c 128,-1,6
 402 737 402 737 432 781 c 128,-1,7
 462 825 462 825 483.5 846 c 128,-1,8
 505 867 505 867 526 867 c 0,9,10
 567 867 567 867 567 832 c 0,11,12
 567 815 567 815 545.5 797 c 128,-1,0
 524 779 524 779 474.5 748.5 c 128,-1,1
619 671 m 1,13,-1
 720 674 l 2,14,15
 724 674 724 674 724 668 c 2,16,-1
 724 665 l 2,17,18
 724 654 724 654 719 647 c 128,-1,19
 714 640 714 640 710 640 c 2,20,-1
 682 640 l 2,21,22
 660 640 660 640 633 538 c 0,23,24
 571 300 571 300 512 192 c 0,25,26
 479 133 479 133 440.5 87 c 128,-1,27
 402 41 402 41 346 13 c 128,-1,28
 290 -15 290 -15 224 -15 c 0,29,30
 139 -15 139 -15 82 37.5 c 128,-1,31
 25 90 25 90 25 178 c 1,32,33
 30 325 30 325 88 540 c 0,34,35
 107 608 107 608 107 635 c 1,36,-1
 3 639 l 1,37,38
 3 677 3 677 29 677 c 1,39,40
 136 672 136 672 176.5 672 c 128,-1,41
 217 672 217 672 258.5 676 c 128,-1,42
 300 680 300 680 309 680 c 0,43,44
 313 680 313 680 313 671 c 128,-1,45
 313 662 313 662 308 651.5 c 128,-1,46
 303 641 303 641 296 641 c 2,47,-1
 259 641 l 2,48,49
 234 641 234 641 223.5 631.5 c 128,-1,50
 213 622 213 622 208 595 c 1,51,52
 178 495 178 495 155.5 380 c 128,-1,53
 133 265 133 265 133 197 c 1,54,55
 137 127 137 127 169 90.5 c 128,-1,56
 201 54 201 54 258 54 c 128,-1,57
 315 54 315 54 364 88.5 c 128,-1,58
 413 123 413 123 444 179 c 128,-1,59
 475 235 475 235 498 299 c 128,-1,60
 521 363 521 363 532 430 c 0,61,62
 555 560 555 560 555 619 c 1,63,64
 554 639 554 639 545 639 c 2,65,-1
 482 637 l 1,66,-1
 484 648 l 1,67,68
 487 673 487 673 496 673 c 2,69,-1
 619 671 l 1,13,-1
EndSplineSet
EndChar

StartChar: Ucircumflex
Encoding: 219 219 155
Width: 644
GlyphClass: 2
Flags: W
LayerCount: 2
Fore
SplineSet
308 710 m 2,0,1
 299 702 299 702 291 702 c 128,-1,2
 283 702 283 702 281 710 c 1,3,-1
 405 848 l 2,4,5
 418 861 418 861 431.5 861 c 128,-1,6
 445 861 445 861 455 848 c 1,7,-1
 527 710 l 1,8,9
 522 703 522 703 513.5 703 c 128,-1,10
 505 703 505 703 499 710 c 2,11,-1
 419 794 l 1,12,-1
 308 710 l 2,0,1
619 671 m 1,13,-1
 720 674 l 2,14,15
 724 674 724 674 724 668 c 2,16,-1
 724 665 l 2,17,18
 724 654 724 654 719 647 c 128,-1,19
 714 640 714 640 710 640 c 2,20,-1
 682 640 l 2,21,22
 660 640 660 640 633 538 c 0,23,24
 571 300 571 300 512 192 c 0,25,26
 479 133 479 133 440.5 87 c 128,-1,27
 402 41 402 41 346 13 c 128,-1,28
 290 -15 290 -15 224 -15 c 0,29,30
 139 -15 139 -15 82 37.5 c 128,-1,31
 25 90 25 90 25 178 c 1,32,33
 30 325 30 325 88 540 c 0,34,35
 107 608 107 608 107 635 c 1,36,-1
 3 639 l 1,37,38
 3 677 3 677 29 677 c 1,39,40
 136 672 136 672 176.5 672 c 128,-1,41
 217 672 217 672 258.5 676 c 128,-1,42
 300 680 300 680 309 680 c 0,43,44
 313 680 313 680 313 671 c 128,-1,45
 313 662 313 662 308 651.5 c 128,-1,46
 303 641 303 641 296 641 c 2,47,-1
 259 641 l 2,48,49
 234 641 234 641 223.5 631.5 c 128,-1,50
 213 622 213 622 208 595 c 1,51,52
 178 495 178 495 155.5 380 c 128,-1,53
 133 265 133 265 133 197 c 1,54,55
 137 127 137 127 169 90.5 c 128,-1,56
 201 54 201 54 258 54 c 128,-1,57
 315 54 315 54 364 88.5 c 128,-1,58
 413 123 413 123 444 179 c 128,-1,59
 475 235 475 235 498 299 c 128,-1,60
 521 363 521 363 532 430 c 0,61,62
 555 560 555 560 555 619 c 1,63,64
 554 639 554 639 545 639 c 2,65,-1
 482 637 l 1,66,-1
 484 648 l 1,67,68
 487 673 487 673 496 673 c 2,69,-1
 619 671 l 1,13,-1
EndSplineSet
EndChar

